<svg width="182" height="179" viewBox="0 0 182 179" fill="none" xmlns="http://www.w3.org/2000/svg">
<path d="M178.003 104.726C178.003 104.186 177.821 103.643 177.461 103.283C176.921 102.923 176.378 102.56 175.858 102.56C175.315 102.56 174.775 102.923 174.414 103.283C173.872 103.643 173.692 104.186 173.692 104.726C173.692 105.449 173.872 106.011 174.414 106.371C174.775 106.731 175.315 106.911 175.858 106.911C176.379 106.911 176.921 106.731 177.461 106.371C177.822 106.011 178.003 105.449 178.003 104.726ZM179.627 101.097C180.53 102.001 181.07 103.283 181.07 104.726C181.07 106.191 180.53 107.455 179.627 108.537H179.447C178.544 109.459 177.281 109.999 175.858 109.999C174.414 109.999 173.15 109.459 172.248 108.537L172.068 108.356C171.166 107.454 170.623 106.19 170.623 104.726C170.623 103.283 171.166 102 172.248 101.097C173.15 100.015 174.414 99.4521 175.858 99.4521C177.281 99.4525 178.544 100.195 179.627 101.097Z" fill="#FF7705"/>
<path d="M161.278 30.4538C162.001 30.8156 162.363 31.7164 161.82 32.4583C161.82 32.8208 161.64 33.0012 161.278 33.0012L155.705 36.269C154.982 36.6297 154.099 36.4493 153.739 35.7074C153.378 34.9848 153.559 34.0841 154.281 33.5412L157.508 31.7164L154.281 29.7324C153.559 29.3504 153.379 28.4475 153.739 27.7271C154.1 27.0046 154.983 26.6446 155.706 27.185L161.278 30.4538Z" fill="#FF7705"/>
<path d="M119.571 171.741C120.474 171.741 121.197 172.463 121.197 173.385C121.197 174.108 120.474 174.829 119.571 174.829H111.651C110.95 174.829 110.229 174.108 110.229 173.385C110.229 172.463 110.95 171.741 111.651 171.741H119.571Z" fill="#FF7705"/>
<path d="M134.131 83.4717C134.491 84.7544 135.031 86.017 135.574 87.1002C136.114 88.2026 136.836 89.1062 137.377 90.0083C138.08 90.931 138.983 91.6535 140.064 92.5543C141.149 93.4572 142.592 94.5588 144.016 95.4624C144.196 95.6421 144.376 95.8242 144.376 96.0046C144.919 96.7472 144.557 97.6476 143.836 98.1894C142.593 98.9321 141.51 99.6525 140.427 100.556C139.344 101.278 138.621 102.181 137.74 103.283C136.837 104.366 136.114 105.269 135.574 106.551C134.851 107.815 134.311 109.078 133.949 110.542C133.608 111.986 133.068 113.63 132.887 115.636C132.505 117.439 132.325 119.807 132.145 122.172L131.804 131.797C131.624 133.962 131.624 135.788 131.624 136.87C131.624 139.056 131.624 141.222 130.901 143.047C130.179 144.872 128.735 146.496 126.229 147.597C125.326 147.96 124.063 148.14 122.26 148.32C121.014 148.501 119.391 148.501 117.587 148.501V162.296H120.114C122.981 162.296 125.686 162.116 128.013 161.935C130.179 161.575 132.145 161.213 133.607 160.852C135.031 160.311 136.476 159.75 137.74 159.027C138.983 158.305 140.246 157.202 141.329 156.119C142.412 155.217 143.314 153.934 144.015 152.671C144.736 151.408 145.279 149.944 145.639 148.319C146.001 146.676 146.181 144.689 146.361 141.963C146.542 139.416 146.722 136.328 146.722 132.519V130.152C146.542 117.619 146.542 105.448 161.821 103.643V89.8287C160.559 89.6476 159.656 89.6476 158.772 89.468C157.33 89.1062 156.067 88.7454 155.164 88.2026C146.722 84.2144 146.722 71.8612 146.722 64.2202V63.4998C146.722 59.1488 146.542 55.3374 146.361 52.4102C146.181 49.1615 145.821 46.7959 145.459 45.1515C145.099 43.5282 144.556 42.0633 143.835 40.6201C143.314 39.5368 142.412 38.2545 141.509 37.3516H141.329C140.426 36.2683 139.163 35.3464 137.74 34.6239C136.296 33.9013 134.49 33.1802 132.505 32.6388C131.624 32.2583 130.541 32.0779 129.458 31.8961C128.193 31.7157 126.771 31.5354 125.146 31.5354H117.587V44.9707C119.571 44.9707 121.196 44.9707 122.44 45.1511C124.244 45.3315 125.507 45.5111 126.41 45.8938C127.312 46.2538 128.013 46.6163 128.736 47.1563C129.459 47.6985 129.999 48.4189 130.36 49.1615C130.901 49.8841 131.082 50.967 131.443 52.0697C131.625 53.1529 131.625 54.5955 131.625 56.0606C131.625 57.6839 131.805 59.6891 131.805 62.4169L132.326 72.5823C132.506 74.7693 132.686 76.9355 132.888 78.7582C133.247 80.5636 133.607 82.0267 134.131 83.4717ZM114.538 163.761V147.038C114.538 146.135 115.261 145.593 116.161 145.593C118.488 145.593 120.474 145.412 121.917 145.232C123.522 145.052 124.423 144.871 125.146 144.69C126.771 143.949 127.672 143.047 128.012 141.963C128.555 140.499 128.555 138.876 128.555 136.87C128.555 135.968 128.735 134.142 128.735 131.617L129.096 121.992C129.278 119.444 129.458 117.079 129.818 115.073C130.179 113.088 130.541 111.082 131.081 109.639C131.624 107.995 132.145 106.551 132.886 105.087C133.607 103.643 134.49 102.381 135.393 101.278C136.296 100.195 137.376 99.0923 138.44 98.1891C138.982 97.6476 139.703 97.1073 140.426 96.7469C139.523 96.204 138.802 95.6417 138.08 94.9213C136.836 93.8388 135.934 92.9161 135.03 92.0132C134.31 90.9307 133.607 89.8283 132.886 88.5651C132.324 87.2802 131.623 85.8373 131.261 84.3937C130.72 82.9292 130.177 81.1259 129.998 79.1207C129.637 77.2959 129.457 75.1297 129.277 72.7638L128.735 62.4165C128.735 59.6888 128.555 57.5032 128.555 56.0603C128.555 54.797 128.555 53.5122 128.374 52.6104C128.192 51.8893 128.012 51.1473 127.851 50.7869V50.6045C127.491 50.2444 127.131 49.8841 126.77 49.5212C126.408 49.1612 125.867 48.9617 125.325 48.8008C124.785 48.4189 123.702 48.2392 122.258 48.2392C120.653 48.0588 118.667 48.0588 116.16 48.0588C115.26 48.0588 114.537 47.3363 114.537 46.4335V29.9125C114.537 29.1899 115.26 28.4473 116.16 28.4473H125.145H125.325C126.951 28.4473 128.554 28.6276 129.817 28.8098C131.26 29.0092 132.324 29.3498 133.427 29.5302C135.573 30.2721 137.558 30.9946 139.162 31.8958C140.965 32.8199 142.411 33.901 143.493 35.1656H143.654C144.735 36.4484 145.82 37.7116 146.54 39.1545C147.443 40.7997 147.983 42.4446 148.526 44.4282C148.887 46.2531 149.227 48.8005 149.407 52.2493C149.589 55.3367 149.769 59.1481 149.769 63.4991V64.2195C149.769 71.1186 149.769 82.2074 156.425 85.4759C157.148 85.8366 158.051 86.1963 159.293 86.3788C160.396 86.5591 161.819 86.7388 163.263 86.9188C164.166 86.9188 164.686 87.6615 164.686 88.384V105.086C164.686 106.01 164.165 106.731 163.263 106.731C149.589 107.633 149.589 118.702 149.769 130.151V132.519C149.769 136.148 149.589 139.415 149.407 142.144C149.227 145.052 148.886 147.217 148.526 149.042C148.165 150.846 147.443 152.491 146.721 154.114C145.82 155.579 144.735 157.022 143.493 158.304V158.487C142.229 159.57 140.785 160.852 139.342 161.755C137.739 162.475 136.113 163.199 134.489 163.76C132.684 164.301 130.72 164.663 128.191 165.023C125.867 165.203 123.159 165.384 120.112 165.384H116.16C115.261 165.384 114.538 164.663 114.538 163.761Z" fill="#FF7705"/>
<path d="M114.357 175.911C115.26 175.911 115.8 176.634 115.8 177.376C115.8 178.276 115.26 179 114.357 179H97.4539C96.5506 179 95.8281 178.276 95.8281 177.376C95.8281 176.634 96.5506 175.911 97.4539 175.911H114.357Z" fill="#FF7705"/>
<path d="M97.8153 127.967V115.434H81.4524V131.977H89.3732C90.0741 131.977 90.7966 132.7 90.7966 133.602C90.7966 137.973 89.9132 141.222 87.7488 143.95C86.1242 146.135 83.6178 147.778 80.5495 149.043L83.0767 154.496C88.831 151.949 92.4206 148.861 94.7664 144.872C97.0928 140.499 97.8153 135.065 97.8153 127.967ZM100.862 113.99V127.967C100.862 135.428 100.161 141.422 97.2731 146.316C94.5864 151.408 90.0745 155.037 82.896 157.765C82.1752 158.126 81.2724 157.765 80.9109 157.023L76.9603 148.68C76.5999 147.961 77.1417 147.038 77.8631 146.676C81.2724 145.593 83.7985 144.149 85.4023 141.964C86.847 140.139 87.5685 137.973 87.7496 135.065H80.0095C79.1264 135.065 78.4056 134.323 78.4056 133.602V113.99C78.4056 113.088 79.1264 112.367 80.0095 112.367H99.4393C100.341 112.367 100.862 113.088 100.862 113.99Z" fill="#FF7705"/>
<path d="M97.0932 77.675V61.1533H80.7314V77.675H97.0932ZM100.162 59.6892V79.3011C100.162 80.0215 99.4394 80.744 98.5383 80.744H79.1265C78.4058 80.744 77.6836 80.0215 77.6836 79.3011V59.6892C77.6836 58.7863 78.4058 58.0439 79.1265 58.0439H98.5383C99.4394 58.0439 100.162 58.7863 100.162 59.6892Z" fill="#FF7705"/>
<path d="M53.5807 5.02763C53.7607 5.75015 53.3997 6.65091 52.4978 6.85249L49.8101 7.57288C49.0893 7.75537 48.1864 7.21286 48.0064 6.47125C47.825 5.56766 48.1864 4.84726 49.0893 4.6669L51.7955 3.94438C52.4978 3.56314 53.3997 4.12475 53.5807 5.02763Z" fill="#FF7705"/>
<path d="M49.8085 11.5638C49.9892 12.4667 49.6281 13.209 48.7252 13.3887C48.0048 13.7494 47.1214 13.209 46.9414 12.2863L46.2189 9.73897C46.0385 8.83609 46.3999 7.93533 47.3018 7.75532C48.0052 7.57283 48.907 8.11605 49.0877 8.83644L49.8085 11.5638Z" fill="#FF7705"/>
<path d="M44.7762 4.48543L44.0548 1.93947C43.8734 1.03659 44.4159 0.294972 45.1377 0.114608C46.0391 -0.24612 46.9424 0.294972 47.1224 1.03659L47.8244 3.74488C48.0058 4.48543 47.463 5.38796 46.762 5.56761C45.8591 5.7501 44.9566 5.38831 44.7762 4.48543Z" fill="#FF7705"/>
<path d="M41.368 6.65016L44.2358 5.92976C44.9576 5.7494 45.8601 6.11013 46.0402 7.03211C46.2205 7.75462 45.8601 8.65538 44.9573 8.83575L42.2511 9.55826C41.368 9.91899 40.6473 9.37861 40.2848 8.47502C40.1048 7.75462 40.6473 6.85174 41.368 6.65016Z" fill="#FF7705"/>
<path d="M19.9722 144.31C19.9722 144.149 19.7919 143.95 19.6119 143.768C19.4319 143.588 19.2515 143.407 18.8893 143.407C18.7093 143.407 18.349 143.588 18.169 143.768C17.9886 143.95 17.9886 144.149 17.9886 144.31C17.9886 144.69 17.9886 144.872 18.169 145.053C18.349 145.233 18.7093 145.412 18.8893 145.412C19.2518 145.412 19.4319 145.233 19.6119 145.053C19.7919 144.872 19.9722 144.691 19.9722 144.31ZM21.7571 141.603C22.4786 142.325 22.84 143.227 22.84 144.31C22.84 145.593 22.4786 146.496 21.7571 147.218C21.0357 147.961 19.9722 148.501 18.8893 148.501C17.8065 148.501 16.7236 147.961 16.0028 147.218C15.2803 146.496 14.9199 145.593 14.9199 144.31C14.9199 143.227 15.2803 142.325 16.0028 141.603C16.7236 140.861 17.8065 140.319 18.8893 140.319C19.9722 140.319 21.0353 140.861 21.7571 141.603Z" fill="#FF7705"/>
<path d="M60.598 162.296V148.501C58.7933 148.501 57.35 148.501 55.9255 148.32C54.1211 148.14 52.8582 147.96 51.9752 147.597C49.449 146.495 48.0061 144.871 47.3027 142.866C46.7623 141.222 46.5819 139.056 46.5819 136.87C46.5819 135.787 46.5819 133.962 46.4009 131.796L46.0394 122.172C45.8594 119.624 45.6791 117.439 45.319 115.636C45.138 113.63 44.7765 111.986 44.2351 110.542C43.8736 109.078 43.3333 107.814 42.7907 106.551H42.6104C42.07 105.269 41.3673 104.366 40.6465 103.283H40.4655C39.7437 102.181 38.8415 101.278 37.7582 100.556C36.8557 99.6521 35.5925 98.9317 34.349 98.1894C33.6283 97.6479 33.4472 96.7472 33.8086 96.0045C33.989 95.8241 33.989 95.642 34.349 95.4623C35.7725 94.5587 37.0364 93.4571 38.1197 92.5542H38.3007C39.2015 91.6535 40.1044 90.9309 40.8269 90.0083C41.5278 89.1061 42.0704 88.2028 42.6104 87.1001C43.1532 86.0169 43.6936 84.7544 44.2351 83.4716C44.5962 82.0266 44.9569 80.5635 45.319 78.7581C45.6794 76.9354 45.8594 74.7693 46.0394 72.5823L46.4009 62.4168C46.5819 59.6891 46.5819 57.6838 46.5819 56.0606C46.5819 54.5954 46.7623 53.1528 46.9427 52.0696C47.1227 50.9672 47.4632 49.884 47.8247 49.1615C48.3661 48.4188 48.9079 47.6984 49.449 47.1562H49.6294C50.1715 46.6162 50.8923 46.2534 51.7952 45.8937C52.6782 45.511 53.9411 45.3314 55.7448 45.151C57.1693 44.9706 58.7936 44.9706 60.5983 44.9706V31.5356H53.0386C51.6151 31.5356 50.1719 31.716 48.9079 31.8964C47.6447 32.0782 46.5823 32.2582 45.6798 32.6391C43.694 33.1805 42.0707 33.9016 40.4658 34.6241C39.0215 35.3466 37.7586 36.2686 36.8561 37.3519H36.6757C35.7728 38.2547 35.0719 39.3571 34.3494 40.6203C33.6286 42.0633 33.0865 43.5284 32.7261 45.1517C32.365 46.7962 32.0036 49.1622 31.8232 52.4105C31.6428 55.3377 31.6428 59.149 31.6428 63.5V64.2204C31.6428 71.8612 31.6428 84.2143 23.2011 88.2028C22.1182 88.7457 21.0353 89.1064 19.6118 89.2861C18.709 89.4686 17.6264 89.6479 16.5435 89.8289V103.644C31.6432 105.27 31.6432 117.62 31.6432 130.153V132.52C31.6432 136.149 31.6432 139.417 31.8236 141.964C32.0039 144.69 32.365 146.676 32.7264 148.32C33.0868 149.945 33.629 151.408 34.1697 152.672C34.8922 153.935 35.7735 155.218 36.8564 156.12C37.939 157.203 39.2022 158.306 40.4662 159.028C41.7086 159.751 43.154 160.312 44.5972 160.853C46.2205 161.213 48.0068 161.576 50.3522 161.936C52.6786 162.117 55.2047 162.297 58.2723 162.297H60.598V162.296ZM63.6458 29.9124V46.4341C63.6458 47.337 62.9229 48.0595 62.222 48.0595C59.6958 48.0595 57.5495 48.0595 55.9251 48.2398C54.4812 48.2398 53.3983 48.4195 52.8579 48.8014C52.337 48.9624 51.9748 49.1622 51.4344 49.5218C51.073 49.8843 50.7119 50.2451 50.5319 50.6051V50.7876C50.1712 51.1483 49.9901 51.8899 49.8094 52.611C49.629 53.5132 49.629 54.7977 49.629 56.0609C49.629 57.5038 49.629 59.6894 49.4487 62.4172L48.9076 72.7644C48.9076 75.13 48.5461 77.2961 48.3658 79.1213C48.0057 81.1266 47.6443 82.9302 47.1223 84.3943C46.5816 85.838 46.0391 87.2809 45.3187 88.5657C44.7762 89.8289 44.0547 90.9313 43.1529 92.0138C42.4304 92.9167 41.3669 93.8394 40.284 94.9219H40.104C39.3822 95.4627 38.6608 96.2046 37.9379 96.7475C38.4804 97.1082 39.2011 97.6483 39.7433 98.1897C41.0062 99.0933 41.8886 100.196 42.7904 101.279C43.8733 102.381 44.5958 103.644 45.3187 105.087C46.0391 106.552 46.7619 107.995 47.1223 109.64C47.6443 111.083 48.0057 112.908 48.3658 115.074C48.7261 117.079 48.9076 119.445 49.0883 121.992L49.4487 131.617C49.629 134.143 49.629 135.969 49.629 136.871C49.629 138.877 49.629 140.5 50.1712 141.964C50.7119 143.047 51.4344 143.95 53.0379 144.69C53.7597 144.872 54.8426 145.053 56.2866 145.233C57.7298 145.412 59.6958 145.593 62.222 145.593C62.9229 145.593 63.6458 146.135 63.6458 147.038V163.761C63.6458 164.664 62.9229 165.385 62.222 165.385H58.2713C55.0233 165.385 52.337 165.204 49.9897 164.844C47.644 164.664 45.4987 164.302 43.6933 163.761C42.07 163.2 40.4651 162.476 39.0208 161.756C37.3975 160.654 35.9535 159.571 34.7101 158.488V158.305C33.4468 157.023 32.3643 155.58 31.6425 154.115C30.7594 152.492 30.0387 150.847 29.6765 149.043C29.3161 147.218 28.9558 145.053 28.775 142.145C28.595 139.416 28.595 136.149 28.595 132.52V130.152C28.595 118.703 28.595 107.634 14.9196 106.732C14.2165 106.732 13.4961 106.011 13.4961 105.087V88.385C13.4961 87.6625 14.0365 86.9198 14.9196 86.9198C16.3628 86.7394 17.8061 86.5598 18.889 86.3798C20.1328 86.1973 21.0353 85.8376 21.9382 85.4769C28.5954 82.2084 28.5954 71.1192 28.5954 64.2204V63.5C28.5954 59.149 28.5954 55.3377 28.7754 52.0699C29.1365 48.8014 29.3168 46.2541 29.8583 44.4292C30.2197 42.4455 30.7601 40.8007 31.6432 39.1555C32.365 37.7126 33.4479 36.269 34.7108 35.1666C35.9542 33.902 37.3986 32.8208 39.0215 31.8967C40.6469 30.9953 42.6107 30.2727 44.7769 29.5311C45.8598 29.3508 47.123 29.0102 48.3661 28.8107C49.8097 28.6283 51.2537 28.4482 52.8582 28.4482H53.2186H62.2223C62.9229 28.4475 63.6458 29.1899 63.6458 29.9124Z" fill="#FF7705"/>
<path d="M8.8242 70.0361L9.52514 72.7639L6.65806 73.6653L5.93555 70.939L8.8242 70.0361Z" fill="#FF7705"/>
<path d="M7.56062 76.393L4.69213 77.2963L3.79102 74.5678L6.65774 73.666L7.56062 76.393Z" fill="#FF7705"/>
<path d="M5.03451 68.2109L5.93527 70.9387L2.88853 71.8607L2.16602 69.1329L5.03451 68.2109Z" fill="#FF7705"/>
<path d="M2.8883 71.8613L3.79083 74.5675L0.902881 75.4905L0 72.7642L2.8883 71.8613Z" fill="#FF7705"/>
</svg>
