<svg width="172" height="179" viewBox="0 0 172 179" fill="none" xmlns="http://www.w3.org/2000/svg">
<path d="M136.141 100.204H138.091C138.993 100.204 139.716 99.4732 139.716 98.5795V91.1695H148.605C149.458 97.2795 154.893 101.691 161.044 101.261C167.203 100.83 171.972 95.7114 171.972 89.5447C171.972 83.3779 167.203 78.2591 161.044 77.8285C154.894 77.3979 149.458 81.8098 148.605 87.9198H139.716V80.5098C139.716 79.6161 138.993 78.8848 138.091 78.8848H136.141C132.152 78.6573 128.642 76.163 127.115 72.4662C125.595 68.7695 126.318 64.5282 128.991 61.5545L130.381 60.1651C131.014 59.5313 131.014 58.4995 130.381 57.8657L125.181 52.7144L134.061 43.6794H148.605C149.458 49.7893 154.894 54.1931 161.044 53.7706C167.203 53.34 171.972 48.2212 171.972 42.0545C171.972 35.8794 167.203 30.7608 161.044 30.3384C154.894 29.9078 149.458 34.3197 148.605 40.4296H133.436C132.997 40.4296 132.574 40.6084 132.266 40.9252L122.816 50.5451L117.527 45.2395H117.535C116.901 44.6058 115.869 44.6058 115.236 45.2395L114.236 46.2389V46.2308C111.287 49.1556 106.867 50.0169 103.04 48.4002L102.414 48.1402H102.406C98.9045 46.6858 96.605 43.2734 96.5807 39.4708V37.5452C96.5888 37.1146 96.4182 36.6921 96.1095 36.3915C95.8088 36.0827 95.3863 35.9121 94.9557 35.9202H87.6109V23.3755C93.7208 22.5223 98.1327 17.0868 97.7021 10.928C97.2715 4.77751 92.1527 0 85.986 0C79.8193 0 74.7005 4.77751 74.2699 10.928C73.8393 17.0866 78.2512 22.5222 84.3611 23.3755V35.8148H76.9512C76.5206 35.8067 76.0981 35.9773 75.7975 36.2779C75.4887 36.5867 75.3181 37.001 75.3262 37.4398V39.3897C75.3018 43.184 73.0025 46.5965 69.5006 48.051L68.3712 48.506C64.8369 49.9847 60.7664 49.1804 58.0608 46.4748L56.6714 45.0854C56.0377 44.4517 55.0058 44.4517 54.372 45.0854L49.1558 50.5454L39.8202 41.0554H39.8121C39.5033 40.7386 39.089 40.5598 38.6421 40.5598H23.4728H23.4809C22.6278 34.4499 17.1923 30.038 11.0335 30.4686C4.87488 30.8911 0.105481 36.0099 0.105481 42.1847C0.105481 48.3514 4.87488 53.4703 11.0335 53.9008C17.1921 54.3233 22.6277 49.9195 23.4809 43.8096H38.0165L46.7915 52.7144L41.5915 57.89C40.9578 58.5238 40.9578 59.5556 41.5915 60.1894L42.9809 61.5788V61.5707C45.6541 64.5444 46.3771 68.7938 44.8578 72.4906C43.3303 76.1873 39.8203 78.6818 35.8311 78.9092H33.9867C33.0929 78.9092 32.3617 79.6323 32.3617 80.5342V87.9441H23.3675C22.5143 81.8342 17.0788 77.4223 10.9281 77.8529C4.76951 78.2753 0.000109099 83.3941 0.000109099 89.569C0.000109099 95.7357 4.76951 100.855 10.9281 101.285C17.0786 101.708 22.5142 97.3038 23.3675 91.1939H32.2479V98.6038H32.2561C32.2561 99.4975 32.9792 100.229 33.881 100.229H35.831C39.8204 100.448 43.3304 102.951 44.8577 106.647C46.3771 110.344 45.654 114.585 42.9809 117.559L41.5915 118.949C40.9578 119.582 40.9578 120.606 41.5915 121.24L46.7915 126.375L37.911 135.41H23.3673C22.5142 129.3 17.0787 124.896 10.928 125.319C4.7694 125.749 0 130.868 0 137.035C0 143.21 4.7694 148.328 10.928 148.751C17.0785 149.182 22.5141 144.77 23.3673 138.66H38.5366C38.9754 138.66 39.3979 138.481 39.7066 138.164L49.156 128.544L54.4454 133.85H54.4373C55.071 134.484 56.1029 134.484 56.7367 133.85L58.126 132.46V132.469C61.0673 129.706 65.3897 129.015 69.0459 130.714C72.7508 132.127 75.2372 135.645 75.3264 139.618V141.568C75.3183 141.999 75.4889 142.413 75.7977 142.722C76.0983 143.031 76.5208 143.193 76.9514 143.193H84.3614V155.633V155.625C78.2514 156.478 73.8396 161.913 74.2701 168.072C74.7007 174.231 79.8195 179 85.9862 179C92.153 179 97.2718 174.231 97.7024 168.072C98.133 161.913 93.7211 156.478 87.6111 155.625V143.275H95.0211C95.4517 143.283 95.8742 143.112 96.1748 142.812C96.4836 142.503 96.6542 142.088 96.646 141.65V139.7C96.8736 135.71 99.3679 132.2 103.065 130.673C106.761 129.154 111.003 129.877 113.976 132.55L115.366 133.939C116 134.573 117.031 134.573 117.665 133.939L122.817 128.544L132.152 138.034H132.16C132.469 138.351 132.883 138.53 133.33 138.53H148.5H148.491C149.345 144.64 154.78 149.051 160.939 148.621C167.097 148.198 171.867 143.08 171.867 136.905C171.867 130.738 167.097 125.619 160.939 125.189C154.78 124.766 149.345 129.17 148.491 135.28H134.062L125.181 126.375L130.381 121.199C131.015 120.566 131.015 119.534 130.381 118.9L128.992 117.511V117.519C126.318 114.545 125.595 110.296 127.115 106.599C128.642 102.902 132.152 100.408 136.141 100.18L136.141 100.204ZM160.215 81.0541C163.652 81.0541 166.747 83.1178 168.064 86.2946C169.38 89.4713 168.649 93.1194 166.219 95.5488C163.79 97.9782 160.142 98.7094 156.965 97.3932C153.788 96.077 151.724 92.9813 151.724 89.5446C151.724 87.2941 152.618 85.1327 154.211 83.5403C155.803 81.9479 157.964 81.0541 160.215 81.0541ZM160.215 33.6055C163.652 33.6055 166.747 35.6693 168.064 38.8461C169.38 42.0228 168.649 45.6709 166.219 48.1003C163.79 50.5297 160.142 51.2608 156.965 49.9447C153.788 48.6284 151.724 45.5328 151.724 42.0961C151.724 39.8455 152.618 37.6842 154.211 36.0918C155.803 34.4993 157.964 33.6055 160.215 33.6055ZM77.4941 11.7657C77.4778 8.32087 79.5334 5.21713 82.7021 3.88448C85.8789 2.56012 89.5353 3.27511 91.9726 5.69633C94.4101 8.12575 95.1494 11.7819 93.8332 14.9587C92.5251 18.1355 89.4214 20.2154 85.9846 20.2154C81.3128 20.2154 77.5184 16.4376 77.4941 11.7657ZM11.7562 50.547C8.31949 50.547 5.22386 48.4751 3.90765 45.3065C2.59141 42.1297 3.32265 38.4733 5.75201 36.0522C8.18142 33.6228 11.8295 32.8917 15.0063 34.2079C18.183 35.5241 20.2468 38.6197 20.2468 42.0565C20.2468 44.307 19.353 46.4683 17.7606 48.0607C16.1681 49.6532 14.0068 50.547 11.7562 50.547ZM11.7562 97.9955C8.31949 97.9955 5.21575 95.9237 3.90765 92.7388C2.59141 89.562 3.33078 85.9056 5.76825 83.4845C8.20578 81.0551 11.862 80.3402 15.0387 81.6645C18.2074 82.997 20.263 86.1088 20.2468 89.5458C20.2468 91.7963 19.353 93.9576 17.7606 95.5501C16.1681 97.1425 14.0068 98.0363 11.7563 98.0363L11.7562 97.9955ZM11.7562 145.444C8.31949 145.444 5.22386 143.372 3.90765 140.204C2.59141 137.027 3.32265 133.37 5.75201 130.949C8.18142 128.52 11.8295 127.789 15.0063 129.105C18.183 130.421 20.2468 133.517 20.2468 136.954C20.263 139.212 19.3693 141.382 17.7768 142.982C16.1843 144.583 14.0149 145.485 11.7563 145.485L11.7562 145.444ZM94.4771 167.325C94.4934 170.77 92.4377 173.874 89.269 175.207C86.0923 176.531 82.4359 175.816 79.9986 173.395C77.561 170.965 76.8218 167.309 78.138 164.132C79.4461 160.956 82.5498 158.876 85.9866 158.876C90.6584 158.876 94.4528 162.654 94.4771 167.325ZM160.215 128.544C163.652 128.544 166.747 130.616 168.064 133.785C169.38 136.961 168.649 140.618 166.219 143.039C163.79 145.468 160.142 146.2 156.965 144.883C153.788 143.567 151.724 140.471 151.724 137.035C151.724 134.784 152.618 132.623 154.211 131.03C155.803 129.438 157.964 128.544 160.215 128.544ZM126.7 119.875L126.936 120.11L116.446 130.494L116.316 130.259C112.408 126.7 106.802 125.725 101.919 127.748C97.0359 129.763 93.7616 134.427 93.5015 139.7V140.025H78.576V139.7C78.3242 134.427 75.0498 129.763 70.1667 127.748C65.2835 125.725 59.6692 126.7 55.7611 130.259L55.5255 130.494L45.0362 120.005L45.2718 119.769C48.8304 115.861 49.8055 110.247 47.7823 105.364C45.7673 100.48 41.1037 97.2062 35.8305 96.9543H35.5055V82.1344H35.8305C41.1037 81.8825 45.7672 78.6082 47.7823 73.7251C49.8054 68.8419 48.8304 63.2276 45.2718 59.3195L45.0362 59.0839L55.5255 48.5946L55.7611 48.8302C59.3849 52.4864 64.861 53.575 69.6059 51.5845L70.7515 51.1051C75.4964 49.147 78.5839 44.5157 78.5758 39.389V39.064H93.3956V39.389C93.3713 44.4995 96.4343 49.1308 101.155 51.1051L101.805 51.3651C106.777 53.4532 112.522 52.3645 116.381 48.5946L126.87 59.0839L126.635 59.3195C123.076 63.2276 122.101 68.8419 124.124 73.7251C126.139 78.6082 130.803 81.8825 136.076 82.1344H136.401V96.9543H136.076C130.77 97.198 126.082 100.497 124.068 105.42C122.053 110.336 123.077 115.983 126.7 119.875ZM85.9866 55.9154C77.0654 55.9154 68.5181 59.4578 62.2124 65.771C55.8993 72.0758 52.3569 80.6233 52.3569 89.5452C52.3569 98.467 55.8993 107.014 62.2124 113.319C68.5173 119.633 77.0647 123.175 85.9866 123.175C94.9085 123.175 103.455 119.633 109.761 113.319C116.074 107.015 119.616 98.467 119.616 89.5452C119.608 80.632 116.066 72.0767 109.761 65.771C103.456 59.4653 94.9004 55.9235 85.9866 55.9154ZM85.9866 119.875C77.9429 119.875 70.2243 116.682 64.5378 110.994C58.8514 105.307 55.6574 97.5882 55.6574 89.5456C55.6574 81.5029 58.8506 73.7833 64.5378 68.0968C70.2251 62.4104 77.944 59.2163 85.9866 59.2163C94.0293 59.2163 101.749 62.4095 107.435 68.0968C113.122 73.7841 116.316 81.5029 116.316 89.5456C116.316 97.5882 113.123 105.308 107.435 110.994C101.748 116.681 94.0293 119.875 85.9866 119.875ZM96.8171 70.4503L75.1562 70.4585C72.9624 70.4341 70.85 71.2953 69.3062 72.8471C67.7625 74.4071 66.9094 76.5195 66.9419 78.7133V100.374C66.9175 102.56 67.7788 104.664 69.3224 106.208C70.8662 107.752 72.9705 108.613 75.1562 108.588H96.8171C99.0027 108.613 101.107 107.752 102.651 106.208C104.195 104.664 105.056 102.56 105.031 100.374V78.7133C105.056 76.5276 104.194 74.4233 102.651 72.8795C101.107 71.3358 99.0027 70.4747 96.8171 70.499V70.4503ZM101.781 100.375C101.814 101.699 101.302 102.983 100.36 103.917C99.4251 104.86 98.1414 105.372 96.8171 105.339H75.1562C73.8318 105.372 72.5481 104.86 71.6138 103.917C70.6713 102.983 70.1594 101.699 70.1919 100.375V78.7141C70.1594 77.3897 70.6713 76.106 71.6138 75.1717C72.5481 74.2292 73.8319 73.7173 75.1562 73.7498H96.8171C98.1415 73.7173 99.4252 74.2292 100.36 75.1717C101.302 76.106 101.814 77.3898 101.781 78.7141V100.375ZM96.2971 79.3402C96.3052 79.7708 96.1346 80.1933 95.834 80.4939C95.5252 80.8027 95.1108 80.9733 94.6721 80.9651H77.3172C76.4234 80.9651 75.6922 80.2339 75.6922 79.3402C75.6922 78.4464 76.4234 77.7152 77.3172 77.7152H94.6557C95.1025 77.7071 95.5332 77.8858 95.85 78.2108C96.1588 78.5358 96.3213 78.9745 96.2969 79.4295L96.2971 79.3402ZM96.2971 85.8401C96.3052 86.2707 96.1346 86.6932 95.834 86.9938C95.5252 87.3026 95.1108 87.4732 94.6721 87.4651H77.3172C76.4234 87.4651 75.6922 86.7339 75.6922 85.8401C75.6922 84.9464 76.4234 84.2151 77.3172 84.2151H94.6557C95.1025 84.207 95.5332 84.3857 95.85 84.7107C96.1588 85.0357 96.3213 85.4745 96.2969 85.9295L96.2971 85.8401Z" fill="#94A3B8"/>
</svg>
