<svg width="172" height="179" viewBox="0 0 172 179" fill="none" xmlns="http://www.w3.org/2000/svg">
<path d="M169.071 93.951C168.983 93.8119 168.844 93.6656 168.676 93.4972C168.361 93.1533 167.908 92.7581 167.373 92.1068C166.832 91.4847 166.21 90.5992 165.559 89.3258C165.244 88.7038 164.966 88.0232 164.71 87.2842C164.453 86.545 164.256 85.7766 164.058 84.9862C163.663 83.3982 163.319 81.7809 162.924 80.3318C162.529 78.8827 162.046 77.6387 161.592 76.8118C161.475 76.6142 161.365 76.4166 161.248 76.241C162.017 75.8165 162.807 75.275 163.575 74.5358C164.541 73.5991 165.42 72.4063 165.932 70.928C166.188 70.1888 166.356 69.3692 166.356 68.5423C166.356 67.6934 166.217 66.8079 165.902 66.0175C165.763 65.6516 165.559 65.3076 165.361 64.9637C169.701 62.2925 175.438 56.3942 166.239 46.1992C159.367 38.6176 139.132 34.8196 135.781 34.6733C132.429 34.5562 125.901 33.7951 124.028 32.8291C122.184 31.8338 121.13 31.2703 120.252 32.4339C119.344 33.5975 122.352 37.0591 122.352 37.0591C119.256 36.7444 116.9 31.1826 114.178 31.1826C111.426 31.1826 112.421 34.0512 112.048 35.4125C111.682 36.7444 109.267 40.6669 109.406 43.499C109.523 46.3384 117.156 48.834 117.156 48.834C117.156 48.834 112.304 48.7462 111.25 49.4268C110.197 50.1367 111.082 53.7957 114.939 55.135C117.464 56.0132 119.908 56.3571 121.269 56.4669C120.018 58.3403 119.11 60.4407 118.32 62.541C117.5 64.6413 116.761 66.7709 115.736 68.7322C115.619 68.9883 115.48 69.2151 115.341 69.4713C115.202 69.6981 115.085 69.9543 114.917 70.1812C114.778 70.408 114.631 70.6349 114.463 70.891L113.98 71.6301C113.329 72.6254 112.648 73.6426 112.048 74.6964C111.734 75.238 111.455 75.7722 111.17 76.343C110.885 76.9138 110.629 77.5066 110.431 78.2164C110.343 78.5604 110.233 78.9556 110.233 79.4386C110.233 79.5776 110.233 79.6654 110.263 79.8338L110.292 80.0606C110.321 80.1484 110.35 80.2289 110.38 80.3167C110.438 80.4851 110.519 80.6607 110.665 80.829C110.782 80.9681 110.921 81.0852 111.06 81.2242C111.287 81.3925 111.543 81.5096 111.712 81.5901C111.909 81.6779 112.077 81.7292 112.253 81.7877C112.597 81.9048 112.934 81.956 113.248 82.0438C113.841 82.1609 114.471 82.2707 115.063 82.3878C115.349 82.4463 115.634 82.5049 115.883 82.5854C116.139 82.6439 116.366 82.7537 116.424 82.783L116.454 82.8122L116.593 82.9293C116.681 83.0172 116.761 83.0976 116.849 83.1855C116.937 83.2733 116.988 83.3831 117.076 83.4709C117.134 83.588 117.215 83.6685 117.273 83.7856C117.529 84.21 117.727 84.693 117.866 85.2053C118.005 85.7175 118.093 86.2591 118.152 86.8226C118.181 87.108 118.181 87.3934 118.181 87.6715V88.1837L118.21 88.696C118.298 90.0279 118.437 91.3085 118.605 92.6111C118.774 93.9138 119 95.1944 119.286 96.497L119.513 97.4923C119.601 97.8363 119.681 98.1436 119.798 98.4876C119.996 99.1389 120.223 99.8195 120.537 100.5C121.159 101.751 121.898 102.966 122.835 104.049C123.743 105.154 124.826 106.12 126.04 106.918C127.233 107.716 128.565 108.338 129.904 108.791C131.236 109.245 132.627 109.56 133.995 109.787C136.718 110.24 139.447 110.328 142.06 110.555C143.363 110.672 144.614 110.84 145.748 111.148C146.034 111.236 146.29 111.316 146.568 111.433C146.795 111.55 147.08 111.66 147.278 111.799C147.505 111.916 147.732 112.114 147.958 112.282C148.185 112.45 148.412 112.648 148.639 112.853C149.546 113.673 150.425 114.587 151.252 115.605C152.071 116.6 152.84 117.646 153.579 118.73C153.945 119.271 154.289 119.805 154.655 120.347C154.998 120.918 155.335 121.452 155.679 122.023C156.33 123.128 156.96 124.291 157.494 125.455C158.035 126.618 158.548 127.782 158.855 128.946C159.199 130.109 159.397 131.331 159.477 132.553C159.645 134.998 159.28 137.435 158.423 139.681C157.574 141.921 156.206 143.911 154.479 145.529C152.744 147.117 150.673 148.31 148.463 148.961C146.246 149.612 143.948 149.671 141.65 149.305C140.545 149.136 139.433 148.851 138.328 148.536C137.786 148.368 137.274 148.192 136.711 148.024C136.425 147.936 136.059 147.797 135.635 147.739C135.21 147.651 134.727 147.651 134.354 147.709L134.069 147.739L133.842 147.768L133.417 147.826C133.161 147.856 132.905 147.914 132.649 147.914C132.393 147.944 132.195 147.944 131.968 147.944C131.742 147.944 131.485 147.914 131.259 147.914C130.351 147.826 129.473 147.57 128.646 147.234C128.053 146.809 127.424 146.495 126.773 146.268C126.655 146.129 126.575 145.982 126.458 145.872C126.399 145.814 126.341 145.755 126.29 145.733L126.231 145.704C125.887 145.507 125.492 145.338 125.067 145.25C124.643 145.163 124.219 145.192 123.816 145.25C123.048 145.389 122.426 145.733 121.855 146.07C121.657 146.209 121.46 146.326 121.284 146.465L120.999 146.582L120.574 146.78C120.259 146.948 119.952 147.175 119.696 147.373C119.44 147.57 119.242 147.768 119.074 147.914C119.528 147.431 120.011 146.919 120.435 146.297C120.75 145.843 121.028 145.302 121.233 144.709C121.262 144.65 121.262 144.57 121.291 144.511C121.291 144.453 121.321 144.423 121.321 144.372V144.314C121.321 144.255 121.35 144.197 121.35 144.145C121.379 144.028 121.379 143.919 121.408 143.801V143.684V143.289V143.201C121.408 143.004 121.379 142.777 121.35 142.579C121.321 142.44 121.291 142.294 121.233 142.155C121.203 142.016 121.145 141.869 121.094 141.76C120.977 141.504 120.896 141.247 120.75 141.021C120.464 140.538 120.128 140.055 119.696 139.689C119.271 139.293 118.788 138.979 118.305 138.723C117.31 138.24 116.293 138.013 115.407 137.844C115.21 137.786 114.983 137.757 114.815 137.727C114.727 137.698 114.698 137.698 114.646 137.669L114.478 137.471L114.39 137.354L114.273 137.237L114.076 136.981C113.534 136.3 112.97 135.561 112.4 134.793C111.265 133.263 110.131 131.617 108.938 129.911C108.484 129.26 108.06 128.631 107.606 127.98C107.606 127.95 107.606 127.921 107.577 127.892C107.548 127.753 107.489 127.636 107.438 127.526C107.35 127.27 107.211 127.043 107.072 126.787C106.787 126.304 106.391 125.85 105.879 125.506C105.396 125.162 104.803 124.935 104.262 124.825C103.976 124.796 103.691 124.738 103.442 124.738C103.186 124.738 102.93 124.738 102.623 124.796C102.03 124.884 101.569 125.082 101.144 125.25C101.027 125.308 100.917 125.367 100.83 125.418C99.527 123.999 98.1584 122.469 96.6582 120.823C95.78 119.857 94.8726 118.861 93.9651 117.844C93.8773 117.5 93.848 117.105 93.9065 116.71C93.9651 116.168 94.1919 115.488 94.4993 114.551C94.6384 114.097 94.8433 113.556 94.9823 112.904C95.1214 112.253 95.2092 111.485 95.0994 110.636C94.9604 109.787 94.6164 108.96 94.1334 108.279C93.6504 107.599 93.0577 107.028 92.399 106.574C91.0671 105.638 89.6181 105.213 88.3374 104.869C85.7541 104.218 83.2879 103.618 81.0119 103.113C80.4191 102.996 79.7604 102.886 79.1092 102.945C78.7652 102.974 78.4286 103.032 78.1139 103.113C78.0554 103.142 77.9968 103.142 77.9456 103.171C75.9843 102.579 74.0011 101.979 72.0399 101.356C69.3176 100.537 66.5075 102.41 66.3025 105.191C65.9878 105.191 65.6805 105.221 65.3073 105.279C65.1097 105.308 64.9121 105.338 64.6852 105.418L64.3413 105.535C64.2242 105.594 64.0851 105.652 63.9754 105.704C63.7485 105.791 63.4045 106.047 63.207 106.245C63.0679 106.384 62.9215 106.53 62.7825 106.699C62.241 107.35 61.758 108.228 61.7067 109.253C61.6189 110.248 61.9336 111.185 62.3288 111.895C62.5556 112.29 62.7825 112.634 63.0679 112.971C62.6142 113 62.1312 113.058 61.6189 113.168C61.2237 113.256 60.7993 113.395 60.3675 113.593C59.9431 113.79 59.4893 114.105 59.1161 114.529C58.7502 114.954 58.4941 115.554 58.4062 116.088C58.3477 116.373 58.3477 116.6 58.3477 116.856C58.3477 117.083 58.377 117.339 58.4355 117.596C58.4648 117.852 58.5745 118.079 58.6331 118.305C58.7209 118.532 58.8599 118.759 58.977 118.957C59.0941 119.096 59.1746 119.242 59.2917 119.381C58.7502 119.52 58.216 119.725 57.6744 120.091C57.2792 120.377 56.8767 120.772 56.6206 121.255C56.4816 121.482 56.3937 121.738 56.3352 121.994C56.3059 122.133 56.2767 122.279 56.2474 122.418C56.2474 122.557 56.2181 122.704 56.2474 122.843C56.2767 123.436 56.5035 123.977 56.7889 124.372C57.0743 124.767 57.3817 125.082 57.6964 125.338C57.9818 125.565 58.2892 125.763 58.6038 125.931C58.4355 126.019 58.2599 126.099 58.1208 126.216C57.6379 126.531 57.1841 127.014 56.928 127.607C56.6718 128.178 56.6133 128.8 56.6719 129.312C56.7304 129.854 56.8402 130.337 57.0158 130.761C57.1036 130.988 57.1841 131.185 57.3012 131.383C57.4183 131.61 57.5281 131.837 57.6671 132.034C58.1794 132.773 58.8014 133.337 59.4235 133.791C59.3649 135.013 59.5625 136.235 60.3016 137.194C60.8724 137.962 61.6921 138.445 62.519 138.928C66.2367 141.167 75.4355 143.187 75.9771 142.733C76.5479 142.25 77.17 140.918 77.8213 139.074C78.0189 139.104 78.1872 139.104 78.3628 139.133C79.2703 140.209 80.0094 141.006 80.4924 141.548C80.6607 141.716 80.8071 141.892 80.9168 142.002C79.4971 143.282 78.0774 144.527 76.687 145.807L76.6577 145.836C76.204 146.231 76.0649 146.912 76.343 147.483C77.3968 149.495 78.4725 151.398 79.5777 153.271C80.6827 155.145 81.8463 156.989 83.0098 158.804C85.3663 162.412 87.7813 165.815 90.3646 168.969C91.6672 170.528 92.9771 172.035 94.3968 173.396C95.7873 174.758 97.2654 176.038 98.8536 177.085C99.0512 177.224 99.2488 177.341 99.4756 177.451C99.6732 177.568 99.9001 177.678 100.098 177.817C100.295 177.934 100.522 178.014 100.749 178.131C100.976 178.248 101.173 178.329 101.4 178.417C101.627 178.504 101.854 178.585 102.081 178.673C102.308 178.761 102.564 178.79 102.791 178.841L103.157 178.929C103.274 178.958 103.442 178.958 103.581 178.988C103.72 179.017 103.896 178.988 104.035 178.958L104.262 178.929L104.489 178.87C105.059 178.731 105.564 178.446 105.938 178.131C106.333 177.817 106.677 177.451 106.962 177.056C107.247 176.66 107.474 176.258 107.643 175.863C107.84 175.438 107.987 175.014 108.067 174.582C108.184 174.158 108.206 173.675 108.206 173.25C108.206 172.826 108.177 172.43 108.148 172.057C108.089 171.318 108.089 170.725 108.287 170.242C108.484 169.759 108.879 169.335 109.34 169.02C109.823 168.706 110.365 168.479 110.899 168.34C112.034 168.054 113.197 168.025 114.331 167.857C115.466 167.688 116.49 167.344 117.31 166.781C117.705 166.495 118.078 166.159 118.334 165.786C118.59 165.42 118.759 165.017 118.876 164.681C119.103 163.971 119.132 163.378 119.22 162.924C119.359 161.987 119.535 161.534 119.447 161.475C119.388 161.446 119.051 161.87 118.766 162.807C118.627 163.261 118.481 163.861 118.225 164.454C118.085 164.768 117.939 165.046 117.712 165.303C117.485 165.559 117.2 165.815 116.834 166.012C116.124 166.408 115.217 166.664 114.192 166.752C113.138 166.869 111.953 166.81 110.614 167.066C109.933 167.205 109.252 167.432 108.572 167.835C107.921 168.23 107.269 168.83 106.896 169.65C106.698 170.045 106.611 170.498 106.552 170.93C106.493 171.355 106.523 171.75 106.523 172.152C106.523 172.548 106.552 172.892 106.552 173.228C106.552 173.572 106.493 173.85 106.413 174.194C106.245 174.845 105.93 175.475 105.506 176.009C105.081 176.551 104.54 176.975 104.027 177.085L103.939 177.114H103.852C103.793 177.114 103.735 177.143 103.654 177.114C103.595 177.114 103.537 177.114 103.456 177.085L103.171 176.997C103.003 176.938 102.805 176.909 102.63 176.858C102.461 176.77 102.264 176.719 102.088 176.631C101.92 176.573 101.722 176.463 101.546 176.375C101.378 176.287 101.181 176.207 101.005 176.09C100.837 175.972 100.661 175.863 100.463 175.746C100.295 175.628 100.097 175.519 99.9218 175.402C98.5314 174.436 97.1701 173.184 95.8896 171.852C94.587 170.52 93.3648 169.042 92.1427 167.484C89.6984 164.388 87.4007 160.985 85.1611 157.406C84.0561 155.621 82.9437 153.777 81.868 151.903C80.9898 150.344 80.1117 148.749 79.2847 147.161C83.7122 143.297 88.1982 139.353 92.6257 135.525C94.9821 133.513 97.3385 131.493 99.7244 129.737C100.317 129.312 100.917 128.888 101.51 128.544C101.795 128.376 102.103 128.2 102.359 128.09C102.615 127.973 102.9 127.893 103.039 127.863C103.098 127.834 103.237 127.863 103.354 127.834H103.493C103.552 127.834 103.61 127.834 103.632 127.863C103.801 127.893 103.947 127.951 104.057 128.032C104.174 128.119 104.284 128.229 104.401 128.398C104.459 128.485 104.488 128.566 104.54 128.654C104.569 128.712 104.569 128.742 104.598 128.793C104.598 128.822 104.598 128.851 104.627 128.851V128.881L104.884 129.473C105.396 130.213 105.879 130.922 106.391 131.632C107.584 133.367 108.748 135.013 109.911 136.572C110.482 137.37 111.075 138.131 111.697 138.87L111.924 139.155L112.041 139.294L112.18 139.433L112.465 139.748L112.582 139.865L112.721 139.982C112.809 140.07 112.919 140.121 113.007 140.209C113.095 140.268 113.204 140.326 113.321 140.377L113.49 140.465C113.548 140.494 113.578 140.494 113.629 140.524C113.797 140.582 113.973 140.641 114.082 140.663C114.368 140.721 114.595 140.78 114.822 140.802C115.7 140.941 116.38 141.116 116.951 141.395C117.493 141.68 117.859 141.987 118.115 142.448C118.371 142.931 118.429 143.217 118.4 143.524C118.4 143.553 118.4 143.612 118.371 143.641C118.371 143.7 118.342 143.758 118.312 143.81C118.225 144.036 118.085 144.322 117.917 144.607C117.522 145.178 116.951 145.771 116.271 146.393C116.102 146.561 115.927 146.737 115.729 146.934C115.531 147.132 115.334 147.33 115.107 147.674C114.99 147.842 114.851 148.069 114.763 148.442C114.704 148.669 114.675 148.866 114.704 149.181C114.704 149.24 114.734 149.32 114.734 149.379L114.763 149.496C114.792 149.584 114.822 149.635 114.822 149.723C114.939 150.008 115.107 150.293 115.305 150.52C115.422 150.637 115.531 150.718 115.649 150.806C115.766 150.893 115.875 150.945 115.992 151.033C116.446 151.259 116.841 151.347 117.215 151.398C117.58 151.457 117.895 151.457 118.21 151.428C118.554 151.398 118.803 151.369 119.264 151.259C119.688 151.142 120.061 150.945 120.339 150.718C120.339 150.718 120.369 150.718 120.369 150.689C120.486 150.601 120.596 150.55 120.683 150.491C121.027 150.235 121.225 150.008 121.452 149.81C121.54 149.723 121.62 149.642 121.708 149.554C121.796 149.496 121.847 149.466 121.935 149.415L122.447 149.181C123.157 148.925 123.925 148.815 124.686 148.896C124.599 149.488 124.43 150.147 124.233 150.711C123.808 151.933 123.296 153.009 122.813 153.974C121.847 155.877 121.057 157.297 120.515 158.373C119.944 159.448 119.637 160.158 119.49 160.641C119.351 161.124 119.373 161.351 119.49 161.41C119.608 161.468 119.805 161.38 120.142 161.044C120.486 160.7 121.02 160.136 121.759 159.17C122.498 158.204 123.493 156.872 124.657 154.97C125.228 154.004 125.879 152.899 126.443 151.538C126.67 151.025 126.867 150.462 127.035 149.803C127.094 149.832 127.123 149.862 127.175 149.891C128.309 150.433 129.56 150.769 130.863 150.886C131.178 150.916 131.514 150.945 131.829 150.945C132.144 150.945 132.51 150.945 132.854 150.916C133.197 150.886 133.505 150.857 133.79 150.798C134.046 150.769 134.332 150.711 134.588 150.681C134.785 150.652 134.903 150.652 135.042 150.681C135.181 150.711 135.386 150.769 135.634 150.85C136.176 151.047 136.769 151.216 137.369 151.42C138.562 151.764 139.784 152.072 141.086 152.269C142.389 152.467 143.758 152.584 145.148 152.526C146.509 152.467 147.929 152.24 149.261 151.845C151.932 151.047 154.427 149.628 156.499 147.703C158.57 145.8 160.216 143.363 161.211 140.692C162.207 138.021 162.602 135.13 162.404 132.291C162.316 130.871 162.06 129.451 161.665 128.061C161.27 126.671 160.699 125.368 160.106 124.116C159.514 122.865 158.855 121.65 158.145 120.487C157.801 119.894 157.435 119.323 157.069 118.73C156.703 118.16 156.33 117.567 155.935 117.025C155.167 115.891 154.318 114.786 153.44 113.703C152.561 112.627 151.595 111.603 150.49 110.637C150.205 110.41 149.949 110.154 149.641 109.927C149.327 109.7 149.049 109.473 148.675 109.275C148.31 109.049 147.966 108.909 147.6 108.734C147.234 108.617 146.861 108.448 146.495 108.368C145.046 107.973 143.626 107.797 142.265 107.687C139.543 107.46 136.93 107.402 134.405 107.007C131.91 106.612 129.495 105.902 127.504 104.592C125.492 103.311 123.984 101.416 122.879 99.2567C122.425 98.2614 122.081 97.0393 121.803 95.8538C121.518 94.6316 121.291 93.4095 121.123 92.1653C120.954 90.9139 120.779 89.6699 120.698 88.4769L120.669 88.0232V87.5987C120.669 87.2548 120.64 86.9181 120.61 86.5449C120.552 85.835 120.413 85.1545 120.215 84.4446C120.018 83.764 119.732 83.0834 119.308 82.4321C119.22 82.2638 119.081 82.1175 118.993 81.9491C118.876 81.8101 118.766 81.6345 118.627 81.4954C118.488 81.3564 118.371 81.21 118.232 81.1002L117.976 80.888L117.917 80.8295L117.829 80.7709L117.661 80.6538C117.207 80.3684 116.841 80.2586 116.468 80.1708C116.124 80.083 115.788 80.0025 115.473 79.944C114.88 79.8269 114.251 79.7171 113.658 79.6C113.373 79.5415 113.087 79.4829 112.86 79.4317C112.743 79.4024 112.634 79.3732 112.546 79.3146H112.516C112.516 79.1756 112.546 78.9999 112.604 78.8023C112.721 78.3194 112.948 77.8071 113.175 77.2948C113.402 76.7825 113.687 76.2703 113.973 75.7653C114.544 74.7408 115.166 73.7748 115.788 72.7869L116.271 72.0478C116.439 71.7916 116.585 71.5355 116.754 71.2501C116.922 70.994 117.068 70.7086 117.207 70.4524C117.346 70.1963 117.493 69.9109 117.632 69.6547C118.708 67.496 119.447 65.2859 120.215 63.2148C120.984 61.1437 121.803 59.1826 122.886 57.4774C124.05 55.6917 125.184 53.9573 126.406 52.3692C127.628 50.7812 128.902 49.3614 130.351 48.1686C130.548 48.0295 130.717 47.8539 130.922 47.7149C134.669 51.2641 144.351 52.0545 144.351 52.0545C143.187 58.2457 149.378 71.8137 150.651 72.9771C150.82 73.1162 151.047 73.204 151.361 73.2625V73.2918C151.42 73.2918 151.449 73.3211 151.5 73.3211C151.559 73.3211 151.617 73.3211 151.639 73.2918V73.3211C152.064 73.2918 152.437 72.8966 153.286 71.4476C153.71 70.7378 154.281 69.7718 155.101 68.5204C155.496 67.8983 155.979 67.2178 156.55 66.5298C156.689 66.3615 156.835 66.1859 156.974 66.0176C157.062 65.9297 157.113 65.8493 157.201 65.7614C157.289 65.6736 157.37 65.6224 157.428 65.5346C157.516 65.4468 157.596 65.3955 157.655 65.337C157.743 65.2784 157.794 65.2199 157.882 65.1687C157.94 65.1394 158.021 65.0809 158.079 65.0516C158.138 65.0223 158.248 64.9638 158.365 64.9345C159.184 64.6198 160.267 64.5905 161.175 64.9638C161.629 65.1321 162.053 65.4175 162.426 65.7614C162.792 66.1273 163.107 66.5591 163.334 67.0128C163.758 67.9203 163.817 69.0253 163.531 70.0791C163.246 71.1329 162.682 72.1502 162.002 72.9771C161.658 73.3723 161.292 73.7748 160.897 74.1115C160.531 74.4554 160.128 74.7628 159.733 75.0482C158.965 75.619 158.204 76.0727 157.575 76.4679C156.323 77.2363 155.562 77.7486 155.643 77.9461C155.73 78.1437 156.609 78.0047 158.058 77.551C158.709 77.3534 159.507 77.0387 160.385 76.6435C160.385 76.7825 160.414 76.9582 160.414 77.1265C160.502 78.034 160.641 79.256 160.758 80.6757C160.875 82.1247 160.985 83.7712 161.27 85.5276C161.409 86.4058 161.585 87.2839 161.841 88.1401C162.097 89.0183 162.412 89.8745 162.807 90.6649C163.605 92.2237 164.512 93.358 165.39 94.0971C166.269 94.8362 167.037 95.2021 167.63 95.3778C167.915 95.4656 168.171 95.4949 168.369 95.4949C168.567 95.4949 168.735 95.4656 168.881 95.407C169.137 95.3192 169.247 95.1216 169.335 94.924C169.423 94.7264 169.423 94.4996 169.306 94.2727C169.269 94.2069 169.181 94.0607 169.071 93.951ZM112.1 79.5854C112.012 79.6732 112.041 79.6147 112.1 79.5854V79.5854ZM84.0787 107.944C84.1665 107.402 84.2177 106.868 84.1372 106.356C85.2422 106.722 86.3765 107.095 87.5182 107.461C88.7111 107.856 89.8454 108.28 90.6431 108.91C91.0383 109.224 91.3823 109.561 91.6384 109.934C91.8945 110.3 92.0336 110.673 92.0921 111.01C92.2092 111.72 91.9531 112.627 91.6677 113.564C91.5506 113.959 91.4408 114.362 91.353 114.786C91.3237 114.757 91.2944 114.698 91.2359 114.669C91.1774 114.611 91.1481 114.552 91.0969 114.53C89.9625 113.535 88.7697 112.488 87.5476 111.376L87.5183 111.347C87.4598 111.288 87.4012 111.259 87.3207 111.208C87.2037 111.149 87.0939 111.091 86.9768 111.01C86.9475 110.981 86.9183 110.951 86.889 110.922C86.8597 110.893 86.8304 110.893 86.8012 110.922C86.4353 110.725 86.0913 110.527 85.7254 110.329C85.4693 110.19 85.1839 110.015 84.9277 109.876C84.6716 109.737 84.3349 109.561 84.0203 109.422C83.9617 109.393 83.9324 109.393 83.9032 109.363C83.969 108.712 84.0567 108.229 84.0787 107.944ZM97.9613 126.993C97.8735 127.051 97.8222 127.081 97.7344 127.132C97.3905 127.359 97.0245 127.586 96.6806 127.813C94.0094 129.657 91.858 131.501 89.9845 133.148C86.9183 135.87 84.6495 138.175 82.9153 140.019C82.2932 140.59 81.6346 141.154 81.0126 141.724C80.8955 141.556 80.7565 141.3 80.5882 141.015C80.193 140.363 79.6222 139.456 78.8538 138.373C78.7952 138.285 78.7147 138.234 78.6269 138.234H78.5976C77.1194 137.977 75.3045 137.612 73.2042 137.129C71.1039 136.646 68.7474 136.024 66.2226 135.116C64.9712 134.662 63.6685 134.121 62.4465 133.47C61.8244 133.126 61.2244 132.76 60.6608 132.335C60.09 131.911 59.607 131.428 59.2704 130.886C59.1826 130.747 59.1313 130.601 59.0435 130.491C58.985 130.352 58.9045 130.176 58.8459 130.008C58.7289 129.693 58.6776 129.357 58.6484 129.071C58.6484 128.786 58.6776 128.53 58.7654 128.361C58.8533 128.193 58.9923 128.018 59.2192 127.878C59.6729 127.593 60.3828 127.454 61.1511 127.425C61.8024 127.395 62.5122 127.454 63.1928 127.593C63.4196 127.959 63.9319 128.274 64.9271 128.501C66.8298 128.954 69.5523 128.866 69.7498 128.047C69.9472 127.227 67.5104 125.946 65.6078 125.522C64.8101 125.354 64.3051 125.324 63.9026 125.463C62.7683 125.149 61.6047 124.783 60.5509 124.271C60.0386 124.014 59.5263 123.729 59.1604 123.422C58.9628 123.253 58.8165 123.107 58.736 122.968C58.6481 122.829 58.6189 122.741 58.6189 122.653V122.595C58.6189 122.565 58.6189 122.565 58.6481 122.507C58.6774 122.448 58.6774 122.39 58.736 122.339C58.7945 122.221 58.875 122.141 59.0214 122.053C59.3068 121.856 59.819 121.709 60.3825 121.629C61.3485 121.512 62.4536 121.57 63.5367 121.717C63.8806 121.973 64.4148 122.17 65.2418 122.339C66.3761 122.565 67.7959 122.624 68.8716 122.456C69.9766 122.287 70.7743 121.943 70.8035 121.519C70.8327 121.094 70.0936 120.67 69.1276 120.268C68.1324 119.872 66.9102 119.528 65.8637 119.302C65.2124 119.163 64.7294 119.133 64.3562 119.133C63.3024 118.877 62.2559 118.423 61.6339 117.853C61.4656 117.714 61.3485 117.538 61.2387 117.399C61.2094 117.311 61.1509 117.26 61.1216 117.172C61.1216 117.084 61.0631 117.033 61.0631 116.945C61.0631 116.857 61.0338 116.777 61.0338 116.689C61.0338 116.601 61.0338 116.491 61.0631 116.462C61.0923 116.345 61.1216 116.294 61.1801 116.206C61.2387 116.147 61.3485 116.038 61.5241 115.979C61.6924 115.891 61.9193 115.84 62.1754 115.782C62.6877 115.664 63.2804 115.643 63.8806 115.643C64.9563 115.643 66.098 115.782 67.2029 116.008C67.4883 116.147 67.8835 116.294 68.3372 116.433C70.496 117.055 73.6428 117.231 73.8697 116.404C74.0965 115.584 71.3449 114.106 69.1861 113.476C68.7909 113.359 68.447 113.308 68.1615 113.249C68.1323 113.249 68.0737 113.22 68.0444 113.191C67.9274 113.132 67.8176 113.074 67.7005 113.023C67.4736 112.906 67.2468 112.737 67.0199 112.598C66.5662 112.283 66.1417 111.947 65.7685 111.544C65.4026 111.178 65.0879 110.776 64.8903 110.381C64.6927 109.986 64.6049 109.642 64.6342 109.356C64.6635 109.071 64.7732 108.785 65.0586 108.478C65.1172 108.39 65.1977 108.339 65.2855 108.251V108.222H65.3148C65.344 108.222 65.344 108.193 65.3733 108.193C65.4026 108.193 65.4611 108.163 65.4904 108.163C65.549 108.134 65.688 108.134 65.7758 108.105C66.2295 108.046 66.8004 108.046 67.3346 108.076C67.9054 108.105 68.4982 108.193 69.069 108.273C71.4254 108.639 73.811 109.239 76.109 109.89C77.2726 110.234 78.407 110.571 79.5119 110.966C80.617 111.332 81.7293 111.764 82.7172 112.188C83.1709 112.386 83.6832 112.701 84.1955 112.986C84.6492 113.242 85.1322 113.498 85.5859 113.754C86.7495 114.779 87.8839 115.767 88.9669 116.704C90.9282 118.943 92.7723 120.904 94.4702 122.748C95.8021 124.168 97.0535 125.5 98.2463 126.781C98.1292 126.847 98.0491 126.905 97.9613 126.993Z" fill="#00CA72" fill-opacity="0.9"/>
<path d="M65.2336 91.1407C66.3386 91.17 67.4217 91.2798 68.3291 91.5652C68.7828 91.7042 69.2072 91.9091 69.5512 92.136C69.8951 92.3629 70.2318 92.7068 70.4879 93.0142C71.0294 93.6362 71.3954 94.3461 71.5124 95.0266C71.6003 95.7365 71.571 96.4464 71.5124 97.0391C71.4246 98.2905 71.2856 99.2565 71.1978 99.9077C71.1099 100.559 71.11 100.903 71.1685 100.932C71.227 100.932 71.3368 100.618 71.5124 99.9663C71.6808 99.3149 71.9076 98.3782 72.1052 97.1269C72.193 96.5048 72.3028 95.795 72.2443 94.9387C72.1857 94.0605 71.7613 93.2043 71.1685 92.4433C70.8538 92.0481 70.5465 91.7041 70.0927 91.3675C69.639 91.0528 69.156 90.7747 68.6437 90.5991C67.5899 90.2039 66.4555 90.0575 65.2627 89.977C62.8771 89.838 60.2938 90.0649 57.5421 90.5479C56.1224 90.804 54.7319 91.1992 53.3122 91.6236C51.8925 92.0481 50.4728 92.5311 48.9945 92.8458C47.5455 93.1604 46.0161 93.2702 44.6256 92.875C43.9157 92.7067 43.2644 92.3335 42.6132 91.9676C42.2985 91.7407 41.9618 91.4846 41.6472 91.2577C41.4789 91.1406 41.3032 91.0309 41.1642 90.8918L40.7104 90.4674C39.4883 89.3623 38.3833 88.0817 37.5344 86.6034C36.6855 85.1251 36.0049 83.5079 35.5439 81.7808C34.6364 78.3192 34.5193 74.5139 34.9218 70.6572C35.317 66.7932 36.2025 62.8781 37.388 58.9628C37.9808 57.0015 38.6394 55.0477 39.3786 53.0863C39.5469 52.6034 39.7445 52.0911 39.9201 51.6081C40.1177 51.1251 40.286 50.6421 40.4909 50.1591C40.8568 49.1931 41.2886 48.2564 41.7423 47.3197C43.5279 43.5728 45.8332 40.0528 48.7531 37.1328C50.2314 35.6838 51.8194 34.3811 53.5757 33.3275C55.3321 32.2739 57.2055 31.4833 59.1376 31.0882C60.1036 30.8906 61.0989 30.7735 62.0649 30.7735C63.0309 30.7735 63.9968 30.8906 64.9629 31.1174C66.8364 31.5419 68.6219 32.4201 70.0416 33.6423C70.7515 34.2643 71.3443 34.9742 71.8273 35.7426C71.8858 35.8304 71.9443 35.9402 72.0248 36.0573L72.2224 36.4012L72.6176 37.0818C72.8738 37.5355 73.1299 37.9893 73.386 38.443C74.3813 40.2872 75.2887 42.1314 76.1377 44.0341C76.5622 44.9708 76.9574 45.9075 77.3599 46.8735C77.5575 47.3565 77.7258 47.8102 77.9307 48.2932C78.1283 48.8055 78.3259 49.2885 78.5527 49.8007C79.4016 51.8132 80.5944 53.6866 81.9337 55.3626C83.2949 57.0385 84.7731 58.4581 86.3026 59.7609C87.071 60.3829 87.8321 61.0123 88.6298 61.5465C89.025 61.8319 89.3982 62.1173 89.7934 62.3662C90.1886 62.6223 90.591 62.8784 90.9862 63.1346C91.7546 63.6468 92.545 64.1006 93.3427 64.5543C94.1111 65.0373 94.9014 65.4325 95.6698 65.8349C96.065 66.0325 96.4383 66.2594 96.8334 66.4277C97.2286 66.6253 97.6018 66.7936 97.9677 66.9985C98.7361 67.3644 99.4753 67.7377 100.266 68.0743C101.824 68.7256 103.215 69.2086 104.152 69.9478C104.605 70.3137 104.971 70.7162 105.227 71.1699C105.513 71.6822 105.74 72.2457 105.879 72.8457C106.193 74.0093 106.245 75.2608 106.164 76.5048C106.076 77.7269 105.879 78.949 105.623 80.1346C105.564 80.3614 105.535 80.5883 105.484 80.8151C105.198 80.3907 104.459 79.7613 102.929 78.744C101.737 77.9464 100.031 76.8999 97.675 75.4801C95.3478 74.0604 92.3694 72.2749 88.6517 69.9477C84.9341 67.6205 80.9603 65.008 77.4695 62.0001C75.7351 60.4926 74.1177 58.8752 72.7275 57.1994C72.3835 56.775 72.0469 56.3505 71.7322 55.9188C71.5639 55.6919 71.4175 55.4943 71.2492 55.2675C71.1102 55.0406 70.9638 54.843 70.8248 54.6161C70.6857 54.3893 70.5394 54.1917 70.4003 53.9648C70.2613 53.738 70.1149 53.5111 69.9759 53.2842C69.6905 52.8305 69.4343 52.406 69.1562 51.9523C68.0805 50.196 67.0559 48.5713 66.09 47.1297C65.124 45.6807 64.2165 44.4585 63.3969 43.4707C63.2286 43.2438 63.0529 43.0462 62.8846 42.8779C62.7675 42.651 62.6285 42.4242 62.5187 42.2266C62.1748 41.6558 61.8674 41.2313 61.6112 40.9239C61.3551 40.58 61.099 40.3531 60.9014 40.2141C60.5062 39.8994 60.2501 39.8701 60.0818 39.9872C59.9134 40.1043 59.7964 40.3312 59.8842 40.8069C59.9134 41.0337 60.0013 41.3484 60.111 41.7436C60.2281 42.1095 60.3672 42.5925 60.5647 43.1633C60.9306 44.2976 61.4722 45.8856 61.9845 48.0738C62.3504 49.6911 62.665 51.7036 62.7821 54.0892C62.3284 53.8624 61.7576 53.6355 61.0477 53.4379C60.2501 53.211 59.2621 53.0427 58.0693 53.0427C56.8765 53.0134 55.486 53.211 53.9785 53.7233C52.4709 54.2648 50.8244 55.143 49.3241 56.5919C49.1265 56.7602 48.9582 56.9578 48.7826 57.1627C48.6142 57.3603 48.4167 57.5579 48.241 57.7848C47.8971 58.2385 47.5604 58.663 47.2458 59.1752C46.6237 60.1705 46.1114 61.3048 45.7675 62.5562C45.2845 64.2614 45.1747 66.1055 45.4235 67.9205C45.6797 69.7354 46.331 71.5503 47.3554 73.1457C48.38 74.7337 49.7119 76.1241 51.3 77.1194C52.3245 77.7708 53.4588 78.283 54.5931 78.6489C52.6905 81.064 50.7878 82.908 49.3387 84.2108C47.7506 85.6598 46.7262 86.4502 46.8432 86.6551C46.9603 86.8234 48.1752 86.3697 50.0779 85.1769C51.9514 83.984 54.4468 82.0227 56.8619 79.3004C56.9497 79.2126 57.0009 79.1321 57.0887 79.0443C57.3449 78.9565 57.5717 78.8174 57.74 78.5906C58.4792 77.5953 59.1305 76.6 59.7525 75.5827C61.0844 73.6214 62.2773 71.4407 63.2433 69.1136C64.8899 65.1984 65.7973 60.8807 65.9144 56.8777C66.0023 53.7236 65.6583 51.0891 65.1753 48.9594C65.8559 50.2108 66.5658 51.6013 67.3341 53.0503C67.5609 53.504 67.8171 53.9577 68.0732 54.4407C68.1903 54.6676 68.3293 54.9237 68.4391 55.1506C68.5782 55.4067 68.7245 55.6336 68.8636 55.8897C69.0026 56.1459 69.149 56.3727 69.288 56.6288C69.4563 56.8557 69.6027 57.1118 69.771 57.3387C70.0857 57.8217 70.4223 58.3047 70.7663 58.7877C72.1567 60.6904 73.8325 62.4761 75.6181 64.1227C79.1968 67.4451 83.2801 70.1968 87.0564 72.5532C90.8325 74.9096 93.8988 76.6441 96.3358 77.9467C98.7801 79.2493 100.595 80.1054 101.956 80.669C103.969 81.4886 104.905 81.6935 105.359 81.5764C105.191 82.2863 105.015 82.9669 104.876 83.6181C104.591 84.7231 104.305 85.8063 103.998 86.7722C103.347 88.7628 102.549 90.4607 101.502 91.7998C100.478 93.161 99.285 94.1854 98.0409 94.8076C97.4188 95.1223 96.8188 95.3199 96.1967 95.4589C95.5747 95.598 94.916 95.6565 94.294 95.6858C93.672 95.7151 93.0134 95.7443 92.3914 95.8029C92.223 95.8029 92.0767 95.8322 91.9376 95.8322C91.7986 95.8614 91.6522 95.8614 91.4546 95.8907C91.0887 95.9492 90.7741 96.0297 90.4594 96.1468C89.2372 96.6006 88.3883 97.2519 87.7077 97.8812C87.0271 98.5033 86.5148 99.1326 86.0903 99.6961C85.8928 99.9815 85.7244 100.238 85.5488 100.494C85.3805 100.75 85.2634 100.977 85.1244 101.204C84.6414 102.082 84.3852 102.711 84.2755 103.106C84.1584 103.502 84.1876 103.699 84.2755 103.728C84.3633 103.787 84.5316 103.699 84.817 103.384C85.1024 103.099 85.4976 102.587 86.0977 101.855C86.2367 101.687 86.4124 101.489 86.6099 101.262C86.8075 101.065 86.9758 100.838 87.2027 100.611C87.6272 100.157 88.1687 99.6449 88.7908 99.1619C89.4128 98.6789 90.1812 98.1959 91.0301 97.969C91.2277 97.9104 91.4545 97.8812 91.6521 97.8519C91.7399 97.8519 91.879 97.8226 92.018 97.8226H92.4425H94.3159C94.9965 97.8226 95.7356 97.7934 96.5553 97.6543C97.3529 97.5153 98.2018 97.2591 99.0215 96.8859C100.639 96.1468 102.198 94.8954 103.449 93.3072C104.752 91.7192 105.718 89.7286 106.486 87.5698C106.852 86.4941 107.196 85.3816 107.511 84.218C107.825 83.0545 108.103 81.9201 108.418 80.6394C108.703 79.388 108.96 78.0561 109.069 76.6072C109.186 75.1582 109.157 73.5994 108.755 72.0114C108.557 71.2138 108.242 70.4234 107.847 69.6258C107.393 68.8062 106.742 68.0377 106.003 67.467C105.264 66.8962 104.474 66.501 103.705 66.1351C102.937 65.7912 102.198 65.4838 101.488 65.1984C100.807 64.913 100.068 64.5178 99.3581 64.1738C98.9922 64.0055 98.619 63.8079 98.2531 63.6323C97.8872 63.464 97.514 63.2371 97.148 63.0395C96.4089 62.6443 95.6405 62.2418 94.9306 61.7881C94.1915 61.3344 93.4231 60.9099 92.6913 60.4269C92.3254 60.2001 91.9522 59.944 91.5863 59.6878C91.2204 59.4317 90.8472 59.1755 90.4813 58.9194C89.7421 58.4071 89.0322 57.8144 88.3225 57.2436C86.932 56.0507 85.5708 54.7774 84.3779 53.299C83.1851 51.8208 82.1605 50.2035 81.3995 48.4178C81.2019 47.964 81.0336 47.5103 80.8287 47.0566C80.6311 46.5736 80.4335 46.0613 80.2359 45.5783C79.8408 44.5831 79.4163 43.617 78.9845 42.6511C78.1064 40.6898 77.1696 38.7652 76.1159 36.8625C75.8598 36.3795 75.6036 35.9258 75.3182 35.4428L74.9231 34.7329L74.7255 34.389C74.6669 34.2719 74.5864 34.1621 74.4986 34.0231C73.8473 32.9693 73.0496 32.0325 72.1422 31.2421C70.298 29.6541 68.0806 28.6002 65.7534 28.0661C64.5898 27.8099 63.397 27.6709 62.2041 27.6709C61.0113 27.6709 59.8185 27.8392 58.6841 28.0661C56.3862 28.5784 54.1982 29.5151 52.2442 30.708C50.2829 31.9009 48.4973 33.3792 46.9092 34.9965C43.7331 38.2312 41.2888 42.0658 39.4446 46.0395C38.9909 47.0348 38.5664 48.052 38.1639 49.0473C37.9663 49.5596 37.798 50.0719 37.5931 50.5768C37.4248 51.0891 37.2492 51.5721 37.0516 52.0551C36.3417 54.0456 35.6904 56.0873 35.0903 58.1C33.9267 62.1322 33.0778 66.2157 32.7046 70.2774C32.3387 74.339 32.5363 78.3931 33.5828 82.1986C34.1243 84.1013 34.8854 85.8871 35.8808 87.5336C36.8761 89.1802 38.1493 90.5999 39.5106 91.7927L40.0228 92.2465C40.1912 92.3855 40.3887 92.5319 40.5644 92.6416C40.9303 92.8978 41.2742 93.1832 41.6694 93.4101C41.867 93.5272 42.0646 93.6369 42.2915 93.754L42.6061 93.9223C42.7232 93.9809 42.833 94.0101 42.9208 94.0614C43.1477 94.1492 43.3453 94.2297 43.5721 94.3175C43.799 94.4053 44.0259 94.4346 44.2527 94.5151C44.7065 94.6541 45.1602 94.6834 45.6139 94.742C45.8407 94.7712 46.0676 94.7712 46.2945 94.7712C46.5213 94.7712 46.7482 94.8005 46.9458 94.7712C47.3702 94.742 47.824 94.7127 48.2265 94.6322C48.4241 94.6029 48.6509 94.5736 48.8485 94.5151C49.0461 94.4566 49.2437 94.4273 49.4413 94.376C51.0293 94.0101 52.4783 93.4686 53.8688 92.9856C55.2592 92.5026 56.5911 92.0781 57.8718 91.822C60.4916 91.3976 62.9869 91.0822 65.2336 91.1407Z" fill="#00CA72" fill-opacity="0.9"/>
<path d="M125.352 71.9231C125.865 72.0914 126.428 71.9817 126.86 71.6963C127.314 71.4109 127.679 71.0157 128.023 70.6205C128.419 70.1668 128.792 69.6838 129.048 69.113C129.275 68.5421 129.363 67.8908 129.107 67.3566C128.741 66.5589 127.855 66.193 127.035 65.9076L126.75 65.7686C125.813 66.0832 125.016 66.7638 124.533 67.6127C124.079 68.4616 123.94 69.5154 124.189 70.4814C124.386 71.0668 124.76 71.6963 125.352 71.9231Z" fill="#00CA72" fill-opacity="0.9"/>
<path d="M127.707 63.8581C128.417 63.741 129.215 63.6605 129.947 63.6605C130.686 63.6605 131.454 63.719 132.106 63.8288C132.757 63.9459 133.328 64.1142 133.781 64.224C134.235 64.3411 134.55 64.3923 134.718 64.2533C134.857 64.1142 134.806 63.741 134.521 63.2873C134.235 62.8335 133.701 62.2627 132.933 61.809C132.193 61.3553 131.227 60.9894 130.239 60.8138C129.215 60.6454 128.198 60.6454 127.29 60.7845C126.383 60.9235 125.702 61.1284 125.19 61.3553C124.678 61.5822 124.341 61.809 124.114 62.0359C123.66 62.4896 123.69 62.8848 123.829 63.2873C123.968 63.6825 124.224 63.9972 124.795 64.085C125.38 64.2313 126.258 64.0849 127.707 63.8581Z" fill="#00CA72" fill-opacity="0.9"/>
<path d="M27.3412 19.3791C27.9121 20.4329 28.7317 21.7062 29.8953 23.243C32.2225 26.2801 35.4278 29.4561 38.2379 31.5857C41.0189 33.7444 43.2874 34.9667 43.5435 34.6519C43.8289 34.308 42.036 32.4932 39.7088 29.9975C37.3524 27.5313 34.5422 24.2893 32.354 21.3988C30.1658 18.5302 29.0022 16.8031 28.1826 15.8956C27.3849 14.9881 26.9019 14.9003 26.536 15.0979C26.1701 15.2955 25.9432 15.7199 26.2799 16.9421C26.4555 17.5348 26.7704 18.3545 27.3412 19.3791Z" fill="#00CA72" fill-opacity="0.9"/>
<path d="M31.6499 31.3596C29.718 29.8521 29.008 30.1668 28.4739 30.8473C27.9616 31.5279 27.8226 32.2963 29.7546 33.7746C31.6864 35.2821 34.7235 36.753 35.2359 36.0726C35.7994 35.4213 33.582 32.8599 31.6499 31.3596Z" fill="#00CA72" fill-opacity="0.9"/>
<path d="M19.135 36.9504C24.5871 39.6215 32.3075 42.5999 32.6736 41.8316C33.0395 41.0632 25.9483 36.8333 20.4962 34.1988C15.0441 31.5277 13.8807 31.7546 13.5146 32.523C13.1414 33.2621 13.683 34.2792 19.135 36.9504Z" fill="#00CA72" fill-opacity="0.9"/>
<path d="M31.1671 46.2872C31.533 45.5188 28.7229 43.4186 26.4251 42.3427C24.1271 41.2669 23.4978 41.7207 23.1319 42.4817C22.766 43.2501 22.8172 44.0405 25.1225 45.1237C27.391 46.2287 30.8011 47.0555 31.1671 46.2872Z" fill="#00CA72" fill-opacity="0.9"/>
<path d="M26.858 49.9249C24.7284 49.0467 22.0573 47.993 19.7593 47.1439C17.4613 46.295 16.1295 45.8633 15.2733 45.812C14.4244 45.7535 14.0805 46.0096 13.9122 46.4048C13.7438 46.8 13.7731 47.2244 14.3952 47.7953C15.0465 48.3661 16.327 49.1272 18.6837 50.0127C21.0401 50.8908 23.9381 51.6593 26.2653 52.0032C28.5925 52.3691 30.3269 52.3691 30.4073 51.9447C30.5171 51.5422 28.9582 50.803 26.858 49.9249Z" fill="#00CA72" fill-opacity="0.9"/>
<path d="M27.3132 57.0165C27.6571 56.2481 24.847 54.2355 22.5711 53.2111C20.3026 52.1866 19.6731 52.6696 19.3072 53.438C18.9633 54.2064 19.0218 54.9968 21.2978 56.0213C23.5957 57.0458 26.9692 57.8142 27.3132 57.0165Z" fill="#00CA72" fill-opacity="0.9"/>
<path d="M4.48754 58.0408C5.42426 58.5237 7.1587 59.036 10.1957 59.5703C13.2328 60.1118 16.8918 60.5362 19.7606 60.646C22.6586 60.7851 24.7882 60.646 24.8101 60.2216C24.8686 59.7971 22.8196 59.1678 20.068 58.4872C17.2871 57.8066 13.7379 57.0675 10.73 56.5259C7.72223 55.9843 5.92934 55.7867 4.91206 55.8745C3.85825 55.9624 3.55089 56.2697 3.46307 56.6942C3.38257 57.1333 3.55081 57.5578 4.48754 58.0408Z" fill="#00CA72" fill-opacity="0.9"/>
<path d="M23.3356 65.3661C22.172 65.4247 22.0036 66.1052 22.0549 66.9542C22.0842 67.8031 22.311 68.4837 23.4746 68.4324C24.6382 68.3739 26.1969 67.6348 26.1677 66.7858C26.1457 65.9296 24.5284 65.3076 23.3356 65.3661Z" fill="#00CA72" fill-opacity="0.9"/>
<path d="M15.8136 69.9921C15.2208 70.3068 15.1037 70.7019 15.133 71.1264C15.1623 71.5508 15.3306 71.9241 15.9307 72.1802C16.5235 72.4363 17.5773 72.5461 19.3628 72.5754C21.1484 72.6047 23.278 72.5461 25.0124 72.4583C26.7175 72.3705 28.0202 72.2022 28.0787 71.7777C28.1372 71.3533 26.9736 70.7825 25.2393 70.2995C23.5341 69.8165 21.2947 69.5018 19.3921 69.4798C17.5186 69.4506 16.4358 69.7067 15.8136 69.9921Z" fill="#00CA72" fill-opacity="0.9"/>
<path d="M23.8507 74.9905C21.2966 75.0783 20.9234 75.8101 20.9821 76.6371C21.0406 77.486 21.4358 78.1446 23.9313 78.0568C26.4267 77.969 29.8077 77.3469 29.8369 76.498C29.8662 75.6418 26.4048 74.9027 23.8507 74.9905Z" fill="#00CA72" fill-opacity="0.9"/>
<path d="M9.59473 85.315C8.51896 85.6004 7.75055 85.8858 7.20908 86.1346C6.13331 86.7055 5.98696 87.1299 6.10405 87.5251C6.22114 87.9203 6.58704 88.235 7.72136 88.235C8.29218 88.2642 9.08253 88.1764 10.1364 88.0666C11.1902 87.9496 12.5221 87.7812 14.198 87.5837C17.579 87.1885 21.604 86.9031 24.8167 86.786C28.022 86.6177 30.4078 86.5591 30.4371 86.1054C30.4956 85.7102 28.1685 85.0004 24.9046 84.5979C21.6407 84.1734 17.4108 84.1149 13.8616 84.51C12.0393 84.7515 10.6485 85.0369 9.59473 85.315Z" fill="#00CA72" fill-opacity="0.9"/>
<path d="M52.1487 110.606C51.8926 109.354 51.5559 107.935 50.6997 106.493C50.2753 105.783 49.6752 105.044 48.9141 104.481C48.1457 103.888 47.2382 103.456 46.3016 103.2C44.4281 102.688 42.4668 102.746 40.5641 102.746C32.8727 102.863 23.1323 103.032 10.7577 103.339C9.98924 103.368 9.19889 103.368 8.43046 103.397H7.80842C7.55228 103.427 7.32543 103.427 7.06929 103.456L6.35942 103.595L5.64956 103.793C3.77611 104.385 2.12954 105.725 1.16359 107.481C0.680602 108.359 0.36592 109.325 0.256136 110.321C0.226863 110.577 0.226863 110.833 0.197591 111.06V111.682V112.904C0.168318 114.521 0.168318 116.168 0.139046 117.814C0.0805005 124.401 0 131.067 0 137.742V140.238C0 141.086 0.029273 141.972 0.139046 142.879C0.226863 143.765 0.431771 144.702 0.826955 145.609C1.02455 146.063 1.28069 146.517 1.56609 146.941C1.88077 147.365 2.21741 147.739 2.6199 148.075C3.38831 148.756 4.29575 149.21 5.20319 149.495C6.11065 149.78 6.98881 149.949 7.87435 150.037C8.75252 150.124 9.57948 150.154 10.4284 150.154C11.2261 150.154 12.0457 150.124 12.8435 150.124C19.2029 150.007 25.3356 149.898 31.0657 149.81C32.5147 149.78 33.9051 149.751 35.2956 149.722C36.686 149.693 38.0179 149.663 39.3864 149.605C40.7476 149.546 42.1087 149.407 43.4186 149.093C44.7505 148.778 46.0019 148.273 47.1071 147.534C48.2121 146.795 49.1488 145.829 49.749 144.724C50.3418 143.619 50.6565 142.455 50.8248 141.372C50.9931 140.296 51.0516 139.242 51.0809 138.276C51.1102 137.31 51.1687 136.374 51.198 135.495C51.3371 131.946 51.4249 129.136 51.4541 127.204C51.4834 125.272 51.4541 124.225 51.3371 124.196C51.22 124.167 51.0517 125.221 50.8248 127.145C50.5979 129.077 50.3125 131.887 49.9759 135.407C49.8881 136.286 49.8076 137.222 49.7197 138.188C49.6319 139.154 49.5514 140.15 49.3538 141.138C49.1563 142.133 48.8709 143.099 48.3293 143.948C47.817 144.797 47.0486 145.536 46.1411 146.107C45.2337 146.677 44.1287 147.073 42.987 147.329C41.8234 147.585 40.5719 147.673 39.2985 147.695C37.9959 147.724 36.6274 147.695 35.2369 147.695C33.8464 147.695 32.4268 147.695 31.0071 147.665C25.2696 147.636 19.115 147.636 12.7556 147.607H10.3699C9.60153 147.607 8.84044 147.577 8.10139 147.49C6.62313 147.321 5.262 146.919 4.3545 146.099C4.12765 145.902 3.93005 145.675 3.76172 145.419C3.59341 145.162 3.44704 144.877 3.30799 144.599C3.05186 144.006 2.91281 143.318 2.825 142.587C2.73719 141.847 2.73719 141.079 2.73719 140.259C2.73719 139.44 2.76646 138.613 2.76646 137.793C2.88355 131.178 2.96405 124.481 3.08114 117.925C3.11041 116.279 3.13968 114.632 3.16896 113.015C3.16896 112.62 3.16896 112.195 3.19823 111.793V111.2C3.19823 111.061 3.2275 110.885 3.2275 110.746C3.31532 110.153 3.48364 109.553 3.79832 109.012C4.3911 107.936 5.38636 107.138 6.55004 106.772L6.97448 106.655L7.42821 106.568L7.85266 106.538H7.9917H8.41615C9.22846 106.436 10.0262 106.436 10.7872 106.407C23.1622 106.121 32.9538 105.836 40.6237 105.587C42.5556 105.499 44.2315 105.47 45.5926 105.814C46.9538 106.158 47.8611 106.838 48.5198 107.855C49.1712 108.851 49.5444 110.014 49.8225 111.119C50.1079 112.254 50.2762 113.308 50.3933 114.273C50.6201 116.235 50.6787 117.823 50.7372 119.125C50.7958 120.428 50.8251 121.423 50.8543 122.162C50.9422 123.67 51.1105 124.153 51.3373 124.153C51.5349 124.153 51.7911 123.699 52.0472 122.221C52.1862 121.482 52.3326 120.487 52.4424 119.155C52.5595 117.823 52.64 116.147 52.5595 114.047C52.5156 112.993 52.4048 111.857 52.1487 110.606Z" fill="#00CA72" fill-opacity="0.9"/>
<path d="M20.6067 128.836C20.636 129.034 20.6945 129.202 20.7238 129.378L20.7823 129.663L20.8116 129.802C20.8409 129.89 20.8702 129.971 20.8702 130.058C21.0678 130.71 21.5507 131.251 22.1508 131.566C22.7216 131.881 23.4022 131.932 23.995 131.764C24.1341 131.734 24.2804 131.676 24.4195 131.624L24.6756 131.507C24.8439 131.42 24.9903 131.339 25.1293 131.251C26.3514 130.6 27.3979 129.949 28.3346 129.349C29.2713 128.778 30.091 128.273 30.8008 127.9C31.1447 127.702 31.4814 127.534 31.7375 127.387C32.0229 127.248 32.3083 127.073 32.4767 126.934C32.8718 126.619 32.9889 126.341 32.9011 126.282C33.0401 126.421 33.2963 126.538 33.6988 126.224C33.8964 126.055 34.1525 125.77 34.1818 125.17C34.211 124.885 34.1232 124.489 33.9256 124.175C33.728 123.86 33.4719 123.604 33.245 123.436C31.7668 122.184 29.1031 120.259 24.2437 117.193C23.929 116.996 23.6509 116.798 23.3363 116.6C23.168 116.483 23.0216 116.403 22.8533 116.286C22.7362 116.198 22.5679 116.117 22.341 116.03C22.1141 115.942 21.7702 115.861 21.3165 115.912C20.8335 115.971 20.409 116.227 20.1236 116.593C19.8382 116.959 19.7577 117.274 19.6991 117.501C19.6406 117.727 19.6406 117.925 19.6406 118.042V118.327C19.6113 118.723 19.6113 119.096 19.6113 119.491C19.6113 121.05 19.6699 122.667 19.8382 124.233C20.0431 125.799 20.2993 127.358 20.6067 128.836Z" fill="#00CA72" fill-opacity="0.9"/>
<path d="M40.9681 137.977C39.3728 137.75 36.5919 137.662 31.7985 137.662C26.9978 137.691 21.3264 137.75 16.8402 137.86C16.4963 137.86 16.1889 137.889 15.8449 137.889C15.6766 136.382 15.1936 134.962 14.5643 134.94C13.913 134.911 13.2836 136.447 13.0055 138.006C10.5905 138.123 9.06097 138.292 9.06097 138.599C9.0317 138.884 10.51 139.25 12.8663 139.594C12.837 141.329 13.4884 141.636 14.3153 141.665C15.0837 141.695 15.735 141.468 15.9034 139.96C16.1888 139.989 16.4742 140.019 16.7815 140.048C21.2675 140.502 26.9684 140.787 31.8275 140.758C36.6794 140.729 39.4603 140.472 41.0558 140.165C42.6438 139.85 42.9876 139.455 42.9876 139.031C42.9218 138.599 42.5561 138.204 40.9681 137.977Z" fill="#00CA72" fill-opacity="0.9"/>
<path d="M93.9592 21.5971C93.7324 21.8532 93.6445 22.2484 93.6445 22.7899C93.6445 23.1339 93.7836 23.412 94.0397 23.5876C94.2959 23.7559 94.691 23.873 95.2326 23.873C95.7741 23.873 96.14 23.7559 96.3376 23.5071C96.5352 23.251 96.6523 22.8265 96.6523 22.1752C96.6523 21.9191 96.484 21.6922 96.14 21.4946C95.7961 21.297 95.4009 21.2092 94.9472 21.2092C94.5008 21.1946 94.1568 21.3117 93.9592 21.5971Z" fill="#00CA72" fill-opacity="0.9"/>
<path d="M85.2706 11.8855C85.6365 11.8855 85.9219 11.8269 86.1781 11.6879C86.4342 11.5489 86.544 11.4025 86.544 11.2342C86.544 10.7512 86.4269 10.3853 86.2293 10.1584C86.039 9.92422 85.7243 9.81445 85.2706 9.81445C85.0145 9.81445 84.7583 9.90227 84.5607 10.0706C84.3339 10.2389 84.2168 10.3853 84.2168 10.5536C84.2168 11.0073 84.3046 11.3513 84.4729 11.5781C84.6778 11.7757 84.934 11.8855 85.2706 11.8855Z" fill="#00CA72" fill-opacity="0.9"/>
<path d="M89.3328 34.0236C98.7292 34.7042 106.874 27.6348 107.555 18.2675C108.236 8.87109 101.166 0.72592 91.799 0.045298C82.4025 -0.635287 74.2573 6.43412 73.5767 15.8013C72.8961 25.1978 79.9361 33.343 89.3328 34.0236ZM99.5488 22.1609C99.5488 23.4416 99.1244 24.4881 98.2462 25.3662C97.3973 26.2151 96.2849 26.6469 94.9531 26.6469C93.7602 26.6469 92.7649 26.3029 91.9747 25.5931C91.1258 24.8539 90.694 23.9172 90.694 22.7537C90.694 21.5316 91.0599 20.5143 91.799 19.6874C92.5967 18.8092 93.6432 18.3555 94.9239 18.3555C96.0875 18.3555 97.1413 18.6702 98.0194 19.2922C99.044 20.0606 99.5488 21.0267 99.5488 22.1609ZM91.4623 10.1518C92.2307 8.33688 93.0211 7.42948 93.8187 7.42948C94.2139 7.42948 94.5578 7.56852 94.8725 7.82466C95.1872 8.11006 95.3263 8.41744 95.3263 8.81993C95.3263 9.07607 95.2384 9.36147 95.0409 9.63956C94.7555 10.0933 94.4481 10.6641 94.1334 11.3959C93.6504 12.4497 93.3943 13.0425 93.3138 13.2108C92.7722 14.2646 92.0111 15.8527 90.9866 17.9823C90.9573 18.0701 90.0791 19.8557 88.3154 23.3173C88.0593 23.9101 87.6641 24.7663 87.1226 25.9006C86.8079 26.4714 86.3834 26.7495 85.8199 26.7495C85.454 26.7495 85.1101 26.6324 84.7954 26.3543C84.4807 26.0982 84.3417 25.7615 84.3417 25.3591C84.3417 24.9346 84.9344 23.5442 86.1273 21.1584L88.3155 16.8699C89.018 15.4356 90.0718 13.1888 91.4623 10.1518ZM82.6878 8.08069C83.566 7.37082 84.4442 7.00492 85.3298 7.00492C86.6324 7.00492 87.657 7.42937 88.4253 8.25632C89.1351 9.054 89.501 10.0419 89.501 11.2347C89.501 12.3105 89.0473 13.1666 88.1106 13.818C87.2909 14.3888 86.3542 14.6669 85.2712 14.6669C84.0198 14.6669 83.0319 14.2425 82.2928 13.3862C81.6122 12.6178 81.2975 11.6518 81.2975 10.4882C81.2975 9.64663 81.7804 8.81991 82.6878 8.08069Z" fill="#00CA72" fill-opacity="0.9"/>
<path d="M126.831 92.8088C127.146 93.1527 127.57 93.4894 128.024 93.7455C128.507 94.0016 129.019 94.1407 129.554 94.1992C130.095 94.2578 130.629 94.1992 131.083 94.0602C131.566 93.9431 131.99 93.7455 132.386 93.5479C133.154 93.1235 133.776 92.6112 134.347 92.0696C134.888 91.5574 135.371 91.0158 135.825 90.4523C136.733 89.318 137.384 88.0667 137.728 86.8445C138.043 85.6223 138.043 84.4294 137.816 83.4415C137.699 82.9293 137.53 82.4755 137.303 82.0804C137.077 81.6559 136.82 81.312 136.564 81.0266C136.023 80.4557 135.459 80.0898 134.947 79.8922C133.922 79.4678 133.191 79.6068 132.817 79.7751C132.73 79.8337 132.649 79.863 132.591 79.9142C132.247 79.9142 131.822 79.9435 131.368 80.0313C130.571 80.1703 129.634 80.5143 128.697 81.1363C127.761 81.7291 126.824 82.6951 126.143 83.9173C125.492 85.1394 125.089 86.6103 125.119 88.2058C125.148 89.0034 125.258 89.7938 125.514 90.5622C125.777 91.3379 126.18 92.0989 126.831 92.8088ZM128.083 84.8393C128.448 83.8733 129.049 83.083 129.729 82.4829C130.38 81.8609 131.09 81.4291 131.72 81.151C132.034 81.012 132.342 80.8949 132.598 80.7851C132.656 80.8436 132.715 80.9022 132.766 80.9534C133.022 81.151 133.388 81.3486 133.842 81.773C134.069 81.9706 134.325 82.256 134.552 82.6219C134.669 82.7903 134.749 82.9878 134.837 83.2147C134.925 83.4416 134.976 83.6977 135.006 83.9831C135.093 84.554 135.035 85.2638 134.808 86.0248C134.581 86.7932 134.127 87.6421 133.417 88.5497C133.074 89.0034 132.649 89.4571 132.225 89.8816C131.8 90.2767 131.376 90.65 130.944 90.9061C130.52 91.1622 130.124 91.272 129.81 91.272C129.641 91.272 129.495 91.2427 129.356 91.1549C129.217 91.0964 129.041 90.9866 128.873 90.8402C128.558 90.5256 128.28 90.1011 128.053 89.5888C127.856 89.0766 127.709 88.535 127.658 87.9715C127.512 86.9104 127.68 85.776 128.083 84.8393Z" fill="#00CA72" fill-opacity="0.9"/>
<path d="M99.2718 139.221C100.977 137.033 101.767 135.159 101.431 134.932C101.065 134.676 99.6742 136.037 97.6837 137.743C96.6884 138.592 95.5541 139.528 94.3905 140.414C93.1977 141.321 91.9755 142.17 90.8119 142.909C88.4847 144.417 87.1234 145.207 86.4136 145.858C85.7037 146.48 85.6452 146.934 85.7915 147.307C85.9599 147.703 86.3038 147.959 87.2991 147.82C88.2944 147.651 89.9702 147.11 92.4657 145.463C93.7171 144.644 95.0197 143.648 96.1833 142.565C97.3689 141.497 98.4156 140.304 99.2718 139.221Z" fill="#00CA72" fill-opacity="0.9"/>
<path d="M101.795 142.8C100.543 143.876 98.9844 145.215 97.6526 146.349C96.3207 147.484 95.6109 148.164 95.2962 148.735C94.9815 149.276 95.0693 149.701 95.2962 150.037C95.523 150.381 95.867 150.63 96.5183 150.52C97.1696 150.381 98.1942 149.898 99.6432 148.676C101.092 147.454 102.57 145.727 103.449 144.22C104.356 142.712 104.751 141.439 104.415 141.212C104.063 140.926 103.068 141.724 101.795 142.8Z" fill="#00CA72" fill-opacity="0.9"/>
</svg>
