<svg width="97" height="70" viewBox="0 0 97 70" fill="none" xmlns="http://www.w3.org/2000/svg">
<g clip-path="url(#clip0_302_557)">
<path d="M28.4585 25.9943C28.4585 29.4122 25.3686 31.9144 21.8734 31.9144C20.1166 31.9144 18.2635 31.3704 16.8611 30.3938C15.4636 29.4205 14.5469 28.0466 14.5469 26.3692C14.5469 24.5862 15.0801 22.628 16.2566 21.1262C17.4209 19.6394 19.2341 18.5732 21.8734 18.5732C25.9794 18.5732 28.4585 22.4173 28.4585 25.9943Z" fill="#F9F8F6" stroke="#171417" stroke-width="0.914375"/>
<path d="M20.4132 24.6234C20.9788 24.6234 21.4373 24.1648 21.4373 23.5993C21.4373 23.0333 20.9788 22.5752 20.4132 22.5752C19.8476 22.5752 19.3892 23.0333 19.3892 23.5993C19.3892 24.1648 19.8476 24.6234 20.4132 24.6234Z" fill="#171417"/>
<path d="M25.1681 24.6234C25.7337 24.6234 26.1922 24.1648 26.1922 23.5993C26.1922 23.0333 25.7337 22.5752 25.1681 22.5752C24.6026 22.5752 24.144 23.0333 24.144 23.5993C24.144 24.1648 24.6026 24.6234 25.1681 24.6234Z" fill="#171417"/>
<path d="M18.6519 34.082C18.6519 37.5032 24.0691 37.7885 24.3542 34.082" stroke="#171417" stroke-width="0.914375" stroke-linecap="round" stroke-linejoin="round"/>
<path d="M28.4181 50.8127C29.3488 50.3364 31.0555 49.2071 30.437 48.4989C29.6638 47.6133 23.7889 50.7999 21.2698 49.9857C18.2003 48.994 14.0744 44.0592 15.9399 38.9414" stroke="#171417" stroke-width="0.914375" stroke-linecap="round" stroke-linejoin="round"/>
<path d="M18.7039 34.232C12.5473 30.3359 3.90677 39.551 7.73138 48.862C12.9493 61.5654 28.6426 61.2646 33.8374 57.646C39.032 54.0278 35.5436 49.087 30.4611 51.0465" stroke="#171417" stroke-width="0.914375" stroke-linecap="round" stroke-linejoin="round"/>
<path d="M28.6333 39.9482C29.0143 41.3957 29.822 44.703 30.0049 46.3489" stroke="#171417" stroke-width="0.914375" stroke-linecap="round" stroke-linejoin="round"/>
<path d="M33.5796 15.3788L33.5504 14.9226C33.3506 14.9354 33.1823 15.0766 33.1352 15.2709L33.5796 15.3788ZM32.0924 15.3359L32.5125 15.1557C32.4485 15.0067 32.3105 14.9024 32.1491 14.8823L32.0924 15.3359ZM33.0493 17.5678L32.6291 17.748C32.7064 17.929 32.8911 18.0401 33.0872 18.0237C33.2838 18.0072 33.447 17.8668 33.4937 17.6753L33.0493 17.5678ZM38.5721 10.9226C38.6192 11.8887 38.1332 12.8286 37.2303 13.5697C36.3273 14.3104 35.0312 14.827 33.5504 14.9226L33.6089 15.8351C35.2593 15.7286 36.7434 15.1516 37.81 14.2766C38.8766 13.4015 39.5496 12.2032 39.4856 10.8783L38.5721 10.9226ZM33.0648 7.43209C34.5754 7.35889 35.9465 7.73946 36.9404 8.39127C37.9348 9.0434 38.5246 9.94337 38.5721 10.9226L39.4856 10.8783C39.4202 9.53492 38.6137 8.39502 37.4419 7.62662C36.2693 6.85786 34.7034 6.43725 33.0205 6.51881L33.0648 7.43209ZM27.921 11.4388C27.8735 10.4598 28.3734 9.50694 29.3002 8.76168C30.2266 8.01674 31.5543 7.50533 33.0648 7.43209L33.0205 6.51881C31.3376 6.60037 29.8198 7.17053 28.7272 8.04911C27.6351 8.92727 26.9425 10.1399 27.0076 11.4831L27.921 11.4388ZM32.1491 14.8823C29.6938 14.576 28.0017 13.1034 27.921 11.4388L27.0076 11.4831C27.1193 13.7864 29.3661 15.4566 32.0362 15.7898L32.1491 14.8823ZM33.4694 17.3877L32.5125 15.1557L31.6722 15.516L32.6291 17.748L33.4694 17.3877ZM33.1352 15.2709L32.6049 17.4604L33.4937 17.6753L34.024 15.4863L33.1352 15.2709Z" fill="#2545FF"/>
<path d="M68.6292 17.0522L68.4985 16.6142C68.3403 16.6613 68.2196 16.7907 68.1835 16.9516L68.6292 17.0522ZM66.8887 17.3457L67.2526 17.0687C67.1612 16.9489 67.0172 16.8817 66.8668 16.889L66.8887 17.3457ZM68.1816 19.0419L67.8177 19.3189C67.9256 19.4602 68.1053 19.5265 68.279 19.4885C68.4528 19.4506 68.5885 19.3153 68.6274 19.142L68.1816 19.0419ZM71.8163 13.0166C71.8012 14.5843 70.5037 16.0153 68.4985 16.6142L68.76 17.4902C70.9961 16.8227 72.7101 15.1338 72.7302 13.0253L71.8163 13.0166ZM66.522 9.03385C68.0303 9.04834 69.374 9.52528 70.3277 10.2631C71.2814 11.0009 71.8259 11.9788 71.8163 13.0166L72.7302 13.0253C72.7439 11.6395 72.0133 10.4108 70.8873 9.53982C69.7612 8.66911 68.22 8.13575 66.5312 8.11952L66.522 9.03385ZM61.1528 12.9142C61.1629 11.8764 61.7257 10.909 62.6936 10.1898C63.6619 9.47038 65.0142 9.01936 66.522 9.03385L66.5312 8.11952C64.8419 8.10329 63.2906 8.60693 62.1481 9.45584C61.0056 10.305 60.2517 11.5193 60.2385 12.9055L61.1528 12.9142ZM66.4466 16.8972C64.9388 16.8826 63.5951 16.4057 62.641 15.6678C61.6873 14.9304 61.1428 13.952 61.1528 12.9142L60.2385 12.9055C60.2252 14.2912 60.9553 15.5202 62.0814 16.3911C63.2074 17.2616 64.7486 17.7951 66.4379 17.8116L66.4466 16.8972ZM66.8668 16.889C66.7282 16.8958 66.5879 16.8986 66.4466 16.8972L66.4379 17.8116C66.597 17.813 66.7548 17.8098 66.9111 17.8024L66.8668 16.889ZM68.5451 18.7644L67.2526 17.0687L66.5252 17.6228L67.8177 19.3189L68.5451 18.7644ZM68.1835 16.9516L67.7354 18.9413L68.6274 19.142L69.0754 17.1523L68.1835 16.9516Z" fill="#2545FF"/>
<path d="M42.2918 22.6215L42.748 22.6439C42.7572 22.4601 42.6548 22.2886 42.4883 22.2091L42.2918 22.6215ZM42.1546 25.4263L41.6979 25.4039C41.6883 25.6005 41.8053 25.7811 41.9891 25.8524C42.1724 25.9237 42.3809 25.8693 42.5066 25.7175L42.1546 25.4263ZM43.9687 23.2345L44.0858 22.7929C43.9134 22.7472 43.7301 22.8057 43.6167 22.9433L43.9687 23.2345ZM53.07 18.9068C52.9099 20.2299 52.0244 21.3788 50.6423 22.1492C49.2611 22.9191 47.4141 23.2894 45.4317 23.0503L45.322 23.9578C47.4754 24.2179 49.5203 23.8216 51.0876 22.9474C52.6548 22.0742 53.774 20.7017 53.9775 19.0165L53.07 18.9068ZM46.6378 13.0644C48.6202 13.304 50.3259 14.1036 51.484 15.1803C52.6425 16.2574 53.2295 17.5842 53.07 18.9068L53.9775 19.0165C54.1814 17.3318 53.4206 15.7321 52.1067 14.5105C50.7922 13.2889 48.9009 12.417 46.7471 12.1569L46.6378 13.0644ZM38.9995 17.2074C39.1591 15.8848 40.0451 14.7359 41.4268 13.9655C42.8079 13.1956 44.655 12.8253 46.6378 13.0644L46.7471 12.1569C44.5937 11.8967 42.5492 12.2931 40.9815 13.1673C39.4147 14.0405 38.295 15.413 38.0916 17.0982L38.9995 17.2074ZM42.4883 22.2091C40.127 21.0821 38.7673 19.1299 38.9995 17.2074L38.0916 17.0982C37.7944 19.5578 39.5358 21.8127 42.0947 23.0343L42.4883 22.2091ZM42.6109 25.4482L42.748 22.6439L41.835 22.5995L41.6979 25.4039L42.6109 25.4482ZM43.6167 22.9433L41.8021 25.1346L42.5066 25.7175L44.3208 23.5262L43.6167 22.9433ZM45.4317 23.0503C44.9672 22.9941 44.5173 22.9072 44.0858 22.7929L43.8517 23.6766C44.324 23.8019 44.8154 23.8965 45.322 23.9578L45.4317 23.0503Z" fill="#171417"/>
<path d="M48.0968 16.4805L42.0459 16.6131" stroke="#171417" stroke-width="0.914375" stroke-linecap="round" stroke-linejoin="round"/>
<path d="M50.1713 19.4788L41.9419 18.5645" stroke="#171417" stroke-width="0.914375" stroke-linecap="round" stroke-linejoin="round"/>
<path d="M34.7045 9.82031L30.0859 10.3119" stroke="#2545FF" stroke-width="0.914375" stroke-linecap="round" stroke-linejoin="round"/>
<path d="M67.9342 11.4971L63.3115 11.9465" stroke="#2545FF" stroke-width="0.914375" stroke-linecap="round" stroke-linejoin="round"/>
<path d="M36.4836 11.9788L30.1318 11.8105" stroke="#2545FF" stroke-width="0.914375" stroke-linecap="round" stroke-linejoin="round"/>
<path d="M69.8092 13.4082L63.4575 13.586" stroke="#2545FF" stroke-width="0.914375" stroke-linecap="round" stroke-linejoin="round"/>
<path d="M69.8848 26.0887C69.8848 29.6081 73.0375 32.1766 76.594 32.1766C78.3825 32.1766 80.2693 31.6179 81.6976 30.6148C83.1208 29.6149 84.0576 28.2013 84.0576 26.4736C84.0576 24.6407 83.514 22.6277 82.3148 21.0838C81.1279 19.5554 79.2809 18.4609 76.594 18.4609C74.4896 18.4609 72.8231 19.4457 71.6715 20.895C70.5134 22.353 69.8848 24.2727 69.8848 26.0887Z" fill="#F9F8F6" stroke="#171417" stroke-width="0.914375"/>
<path d="M73.5415 26.2324H77.6562C77.6562 26.9941 77.2447 28.5184 75.5988 28.5184C73.953 28.5184 73.5415 26.9941 73.5415 26.2324Z" stroke="#171417" stroke-width="0.914375" stroke-linecap="round" stroke-linejoin="round"/>
<path d="M78.1188 24.6234C77.5533 24.6234 77.0947 24.1648 77.0947 23.5993C77.0947 23.0333 77.5533 22.5752 78.1188 22.5752C78.6844 22.5752 79.1429 23.0333 79.1429 23.5993C79.1429 24.1648 78.6844 24.6234 78.1188 24.6234Z" fill="#171417"/>
<path d="M73.3644 24.6234C72.7984 24.6234 72.3403 24.1648 72.3403 23.5993C72.3403 23.0333 72.7984 22.5752 73.3644 22.5752C73.93 22.5752 74.3885 23.0333 74.3885 23.5993C74.3885 24.1648 73.93 24.6234 73.3644 24.6234Z" fill="#171417"/>
<path d="M79.9429 33.8281C79.9429 37.2493 74.4635 37.7897 74.1782 34.0832" stroke="#171417" stroke-width="0.914375" stroke-linecap="round" stroke-linejoin="round"/>
<path d="M54.1511 42.2883C53.2207 41.8124 53.0849 39.6636 53.8274 39.0862C55.8847 37.486 56.8549 44.3439 64.1699 45.7154C67.3405 46.3098 77.8855 46.4012 80.1714 39.0862" stroke="#171417" stroke-width="0.914375" stroke-linecap="round" stroke-linejoin="round"/>
<path d="M52.6868 42.2641C48.1675 39.7716 42.9098 44.3434 48.1675 48.9149C57.0067 54.6297 75.3701 61.2594 85.6569 48.9149C88.8572 45.0745 91.1436 35.6569 79.942 33.8281" stroke="#171417" stroke-width="0.914375" stroke-linecap="round" stroke-linejoin="round"/>
<path d="M70.3418 39.3145C69.9609 40.7624 69.1531 44.0692 68.9702 45.7151" stroke="#171417" stroke-width="0.914375" stroke-linecap="round" stroke-linejoin="round"/>
<path d="M24.5186 34.0049C32.5192 34.0049 34.348 38.8054 38.4627 38.5768C42.5774 38.3482 45.0919 35.3764 46.2349 36.0622C47.1493 36.6109 46.3112 37.6624 45.7777 38.1196" stroke="#171417" stroke-width="0.914375" stroke-linecap="round" stroke-linejoin="round"/>
<path d="M41.0637 36.0508L38.231 32.6342L43.1146 33.341L44.4844 28.1684L48.8542 31.5415L52.7403 27.1982L54.7976 32.4559L59.8184 30.2276L59.1409 36.342L63.9414 36.7992L59.8184 40.2281" stroke="#2545FF" stroke-width="0.914375" stroke-linecap="round" stroke-linejoin="round"/>
<path d="M74.2281 33.8281C67.6446 35.474 64.6272 40.9145 63.9414 43.4291" stroke="#171417" stroke-width="0.914375" stroke-linecap="round" stroke-linejoin="round"/>
<path d="M23.7088 26.2324C22.4286 27.1468 20.7371 26.6133 20.0513 26.2324" stroke="#171417" stroke-width="0.914375" stroke-linecap="round" stroke-linejoin="round"/>
<path d="M32.0625 45.6636C35.5956 48.0012 40.8213 47.9637 44.5108 47.0868M51.8258 40.229C50.2257 37.4859 47.9882 38.425 46.0067 39.4916" stroke="#171417" stroke-width="0.914375" stroke-linecap="round" stroke-linejoin="round"/>
<path d="M40.3961 48.8633L38.5674 51.835L42.9107 51.6576L43.3679 58.0582L48.6255 53.538L52.0544 60.1156L54.1118 55.3151L57.7693 59.4298L57.9979 55.5437" stroke="#2545FF" stroke-width="0.914375" stroke-linecap="round" stroke-linejoin="round"/>
</g>
<defs>
<clipPath id="clip0_302_557">
<rect width="97" height="70" fill="white"/>
</clipPath>
</defs>
</svg>
