<svg width="182" height="46" viewBox="0 0 182 46" fill="none" xmlns="http://www.w3.org/2000/svg">
<path d="M58.274 14.9491H64.8095C68.4297 14.9491 70.3093 16.4361 70.3093 19.2282V19.3673C70.3609 20.1855 70.1176 20.9951 69.6237 21.6489C69.1299 22.3026 68.4182 22.7571 67.6181 22.9297C68.5763 23.0142 69.4624 23.4739 70.0843 24.209C70.7061 24.9441 71.0133 25.8952 70.9393 26.8559V26.9522C70.9393 30.0011 68.9423 31.6058 65.1086 31.6058H58.274V14.9491ZM64.2008 21.785C66.0163 21.785 66.7318 21.1325 66.7318 19.6455V19.5492C66.7318 18.1584 65.9415 17.5273 64.1795 17.5273H61.9476V21.8064L64.2008 21.785ZM64.5212 28.9848C66.3794 28.9848 67.223 28.1396 67.223 26.6312V26.5349C67.223 24.9944 66.3794 24.2135 64.3397 24.2135H61.9476V28.9955L64.5212 28.9848ZM71.9218 28.2145C71.9218 25.3689 74.5168 24.2991 78.2438 24.2991H79.6107V23.8177C79.6107 22.3734 79.1729 21.5818 77.6351 21.5818C77.3862 21.5522 77.1339 21.5739 76.8936 21.6457C76.6534 21.7174 76.4304 21.8377 76.2383 21.9991C76.0462 22.1604 75.8892 22.3594 75.7768 22.5839C75.6644 22.8083 75.599 23.0534 75.5847 23.3042H72.381C72.5946 20.4157 74.8692 19.132 77.8487 19.132C80.8281 19.132 82.9319 20.3408 82.9319 23.6465V31.5844H79.6535V30.1187C79.242 30.6995 78.6873 31.1634 78.0434 31.4653C77.3996 31.7672 76.6886 31.8967 75.9798 31.8411C73.78 31.8411 71.9218 30.7713 71.9218 28.2145ZM79.6107 27.3266V26.2568H78.3079C76.3536 26.2568 75.2216 26.6847 75.2216 27.9792C75.2216 28.8671 75.7556 29.4448 76.9837 29.4448C78.4681 29.4876 79.6107 28.6745 79.6107 27.3266ZM84.3522 27.7652H87.4919C87.6307 28.835 88.1647 29.4876 89.6277 29.4876C90.9305 29.4876 91.5393 29.0062 91.5393 28.161C91.5393 27.3159 90.8131 26.9735 89.0724 26.7275C85.8687 26.2354 84.5872 25.3047 84.5872 22.9297C84.5872 20.5548 86.9152 19.132 89.3928 19.132C92.0946 19.132 94.1129 20.1162 94.4119 22.9083H91.3257C91.1441 21.9027 90.5781 21.4427 89.4248 21.4427C88.2715 21.4427 87.7055 21.9562 87.7055 22.6944C87.7055 23.4325 88.2821 23.7642 90.0442 24.0209C93.0877 24.4595 94.7643 25.2298 94.7643 27.8401C94.7643 30.4504 92.8635 31.8411 89.6491 31.8411C86.4347 31.8411 84.4697 30.3969 84.3522 27.7652ZM95.6293 25.647V25.4651C95.5889 24.6291 95.7222 23.7937 96.0208 23.012C96.3194 22.2302 96.7769 21.5191 97.3642 20.9238C97.9515 20.3284 98.6558 19.8617 99.4326 19.5532C100.209 19.2448 101.042 19.1013 101.877 19.132C105.016 19.132 107.803 20.972 107.803 25.3261V26.2568H99.0787C99.1641 28.2787 100.264 29.4662 102.09 29.4662C103.649 29.4662 104.418 28.7922 104.632 27.7652H107.836C107.44 30.3969 105.347 31.8625 102.026 31.8625C98.2991 31.8411 95.6293 29.5411 95.6293 25.647ZM104.525 24.1814C104.418 22.3413 103.478 21.5069 101.877 21.5069C101.155 21.5035 100.461 21.7802 99.9393 22.279C99.4175 22.7777 99.1091 23.4596 99.0787 24.1814H104.525ZM108.69 25.647V25.4651C108.649 24.6272 108.783 23.79 109.083 23.0067C109.383 22.2235 109.842 21.5113 110.432 20.9156C111.022 20.3199 111.728 19.8537 112.508 19.5466C113.287 19.2395 114.122 19.0983 114.958 19.132C117.778 19.132 120.373 20.3622 120.682 23.8604H117.479C117.457 23.5602 117.376 23.2673 117.24 22.9991C117.103 22.731 116.914 22.493 116.684 22.2994C116.454 22.1058 116.187 21.9605 115.9 21.8722C115.613 21.7838 115.311 21.7542 115.012 21.785C113.271 21.785 112.107 23.0902 112.107 25.4223V25.6042C112.107 28.054 113.175 29.3057 115.087 29.3057C115.412 29.3244 115.738 29.2782 116.045 29.1696C116.352 29.061 116.635 28.8923 116.876 28.6733C117.118 28.4542 117.313 28.1893 117.451 27.8938C117.59 27.5983 117.668 27.2782 117.682 26.9522H120.725C120.544 29.8406 118.451 31.8411 114.916 31.8411C111.381 31.8411 108.69 29.6266 108.69 25.647ZM121.505 28.2145C121.505 25.3689 124.1 24.2991 127.816 24.2991H129.194V23.8177C129.194 22.3734 128.745 21.5818 127.218 21.5818C126.967 21.549 126.713 21.5684 126.47 21.6387C126.227 21.709 126.002 21.8287 125.807 21.9904C125.613 22.1521 125.454 22.3522 125.34 22.5782C125.226 22.8043 125.16 23.0514 125.146 23.3042H121.943C122.156 20.4157 124.431 19.132 127.4 19.132C130.368 19.132 132.493 20.3408 132.493 23.6465V31.5844H129.215V30.1187C128.804 30.6995 128.249 31.1634 127.605 31.4653C126.961 31.7672 126.25 31.8967 125.541 31.8411C123.406 31.8411 121.505 30.7713 121.505 28.2145ZM129.194 27.3266V26.2568H127.912C125.958 26.2568 124.815 26.6847 124.815 27.9792C124.815 28.8671 125.36 29.4448 126.588 29.4448C128.094 29.4876 129.236 28.6745 129.236 27.3266H129.194ZM134.864 19.3673H138.228V21.2288C138.595 20.5674 139.135 20.0187 139.79 19.6417C140.444 19.2647 141.189 19.0737 141.944 19.0892C142.665 19.0314 143.385 19.2085 143.997 19.5941C144.609 19.9797 145.08 20.553 145.34 21.2288C145.789 20.5577 146.398 20.0102 147.113 19.6364C147.828 19.2625 148.624 19.0744 149.43 19.0892C151.684 19.0892 153.424 20.512 153.424 23.7428V31.5416H150.082V24.16C150.082 22.5981 149.388 21.9027 148.17 21.9027C147.847 21.8886 147.523 21.9447 147.223 22.067C146.923 22.1894 146.653 22.3753 146.431 22.6119C146.209 22.8485 146.04 23.1303 145.937 23.4381C145.833 23.7459 145.798 24.0724 145.832 24.3953V31.5844H142.478V24.16C142.478 22.5981 141.763 21.9027 140.578 21.9027C140.253 21.887 139.929 21.9419 139.627 22.0636C139.325 22.1853 139.054 22.3709 138.831 22.6077C138.607 22.8445 138.438 23.1269 138.334 23.4354C138.23 23.744 138.194 24.0715 138.228 24.3953V31.5844H134.864V19.3673ZM155.731 19.3673H159.106V21.2822C159.508 20.6125 160.076 20.0584 160.756 19.6741C161.435 19.2898 162.202 19.0882 162.982 19.0892C165.962 19.0892 168.322 21.3036 168.322 25.3261V25.5186C168.322 29.541 166.047 31.7983 162.982 31.7983C162.203 31.8304 161.429 31.6479 160.746 31.2707C160.062 30.8935 159.495 30.336 159.106 29.6587V35.7352H155.731V19.3673ZM164.862 25.3475C164.862 22.8869 163.655 21.6781 161.957 21.6781C160.259 21.6781 158.988 22.9083 158.988 25.3475V25.54C158.988 27.9792 160.152 29.1666 161.989 29.1666C163.826 29.1666 164.862 27.9257 164.862 25.5828V25.3475Z" fill="#1D2D35"/>
<path fill-rule="evenodd" clip-rule="evenodd" d="M19.8528 11.1811C22.9841 7.78917 27.0509 5.66113 32.3727 5.66113C40.8859 5.66113 45.6692 11.3222 48.3112 17.021C50.6334 22.0302 51.4779 27.4189 51.8526 29.8099C51.9015 30.1221 51.9424 30.3831 51.9776 30.5855C52.0309 30.8928 52.0027 31.2087 51.8957 31.5016C50.9349 34.1324 48.5136 36.0525 45.7289 37.3327C42.8968 38.6347 39.4109 39.4101 35.8354 39.589C28.8014 39.9409 20.6986 37.9892 16.5308 32.1883C15.8138 31.1903 16.1912 30.8063 16.3318 30.4675L16.3359 30.4578C16.3383 30.4521 16.3416 30.4441 16.3458 30.434C16.3543 30.4137 16.3665 30.3847 16.3822 30.3476C16.4137 30.2734 16.4594 30.1666 16.5181 30.032C16.6354 29.7629 16.805 29.3815 17.0171 28.9259C17.4397 28.0183 18.0388 26.7992 18.7354 25.5796C19.4223 24.3769 20.2481 23.0952 21.1357 22.1106C21.5791 21.6188 22.0917 21.1401 22.6658 20.788C23.2363 20.4381 23.9976 20.1354 24.8708 20.2259C27.0727 20.4541 28.4993 22.151 29.3179 23.1248L29.3357 23.1459C29.4015 23.2242 29.4641 23.2988 29.5237 23.37C29.8986 23.8175 30.1585 24.1277 30.4102 24.3584C30.4612 24.307 30.5179 24.2469 30.5803 24.1772C30.9845 23.7258 31.4643 23.0546 31.9766 22.2395C32.9931 20.622 33.9966 18.6655 34.6065 17.3599C35.0223 16.4701 36.0794 16.0863 36.9677 16.5028C37.856 16.9192 38.2391 17.9782 37.8234 18.8681C37.1741 20.2579 36.1014 22.3543 34.9822 24.1352C34.4265 25.0193 33.8234 25.8837 33.2244 26.5528C32.926 26.8861 32.5873 27.2179 32.2166 27.4826C31.8718 27.7288 31.3317 28.0389 30.6563 28.0739C29.4864 28.1346 28.6103 27.5199 28.0668 27.0324C27.6002 26.614 27.1483 26.072 26.7824 25.6332C26.7259 25.5654 26.6714 25.5001 26.6192 25.438C25.7175 24.3656 25.158 23.8788 24.5991 23.7782C24.5794 23.788 24.5533 23.8022 24.5203 23.8224C24.3431 23.9311 24.0896 24.1425 23.7716 24.4952C23.1367 25.1996 22.459 26.2245 21.8181 27.3466C21.1869 28.4518 20.6336 29.5757 20.2359 30.4299C20.1603 30.5922 20.0907 30.7441 20.0274 30.8837C23.349 34.6898 29.5164 36.3427 35.6582 36.0354C38.8713 35.8747 41.8995 35.1784 44.2476 34.099C46.4119 33.104 47.7841 31.8888 48.3917 30.6696C48.3745 30.5619 48.3564 30.4481 48.3375 30.3286C47.9501 27.8838 47.1809 23.03 45.0899 18.5197C42.7272 13.4233 38.9057 9.2191 32.3727 9.2191C28.1372 9.2191 24.9876 10.8593 22.4604 13.5968C19.8751 16.3972 17.9227 20.3732 16.2889 25.0131C15.9627 25.9396 14.9484 26.4258 14.0235 26.099C13.0986 25.7722 12.6133 24.7561 12.9395 23.8295C14.6314 19.0247 16.7796 14.5101 19.8528 11.1811Z" fill="#1D2D35"/>
</svg>
