<svg width="182" height="46" viewBox="0 0 182 46" fill="none" xmlns="http://www.w3.org/2000/svg">
<path d="M68.9218 13.6998C64.4064 13.6998 61.1507 17.1941 61.1507 23.4806C61.1507 29.8161 64.3573 33.3104 69.0364 33.3104C73.2246 33.3104 75.8913 30.7958 75.9731 26.8116H69.5272V22.8601H80.8649V26.2075C80.8649 33.4083 75.9077 37.866 69.0036 37.866C61.2979 37.866 56.0626 32.3796 56.0626 23.5296C56.0626 14.5326 61.5433 9.16048 68.8564 9.16048C75.0242 9.16048 79.7687 12.9814 80.6358 18.4677H75.4823C74.5825 15.4959 72.2921 13.6998 68.9218 13.6998ZM84.2678 16.541H89.1923V37.4741H84.2678V16.541ZM86.7383 13.21C85.1677 13.21 83.8916 12.0343 83.8916 10.5484C83.8916 9.0625 85.184 7.85419 86.7546 7.85419C88.3252 7.85419 89.6013 9.07883 89.6013 10.5484C89.6013 12.018 88.3252 13.21 86.7546 13.21H86.7383ZM103.982 20.3455H99.8429V31.1877C99.8429 33.1797 100.841 33.6206 102.084 33.6206C102.204 33.6206 102.324 33.6152 102.444 33.6043C102.564 33.5934 102.684 33.5771 102.804 33.5553C102.924 33.5335 103.044 33.5172 103.164 33.5063C103.284 33.4845 103.404 33.4573 103.524 33.4247L104.358 37.2782C104.118 37.3653 103.878 37.436 103.639 37.4905C103.399 37.5449 103.159 37.5939 102.919 37.6374C102.679 37.681 102.433 37.7136 102.182 37.7354C101.942 37.7572 101.697 37.7735 101.446 37.7844C97.7488 37.8987 94.8857 35.9556 94.9021 32.0041V20.3618H91.9408V16.541H94.9021V11.4955H99.8429V16.541H103.982V20.3455ZM107.794 9.53603H112.849V33.2287H125.136V37.4741H107.794V9.53603ZM127.606 31.5959C127.606 26.8769 131.484 25.6686 135.541 25.2277C139.239 24.8359 140.727 24.7705 140.727 23.35V23.2683C140.727 21.2109 139.468 20.0353 137.177 20.0353C134.756 20.0353 133.365 21.2599 132.891 22.6968L128.277 22.0274C129.373 18.2065 132.744 16.2471 137.145 16.2471C141.136 16.2471 145.652 17.9126 145.652 23.4479V37.4741H140.907V34.6003H140.744C139.844 36.3638 137.881 37.8987 134.592 37.8987C130.6 37.8987 127.59 35.727 127.606 31.5959ZM136.212 34.2738C139.19 34.2738 141.071 32.298 141.055 29.963V27.4974C140.417 28.0199 137.832 28.3465 136.523 28.5261C134.331 28.8364 132.678 29.6201 132.678 31.5306C132.678 33.343 134.151 34.2738 136.212 34.2738ZM149.284 9.53603H154.208V19.9863H154.421C155.174 18.4677 156.712 16.2471 160.409 16.2471C165.252 16.2471 169.047 20.0516 169.047 27.0239C169.047 33.9309 165.35 37.8497 160.425 37.8497C156.826 37.8497 155.206 35.7107 154.421 34.1758H154.143V37.4741H149.284V9.53603ZM159.051 33.8002C162.307 33.8002 164.025 30.9101 164.025 27.0076C164.025 23.105 162.323 20.2965 159.051 20.2965C155.877 20.2965 154.127 22.9254 154.127 27.0076C154.127 31.0734 155.893 33.8002 159.051 33.8002Z" fill="#171321"/>
<path d="M47.3426 21.9122C47.3917 22.8756 47.2771 23.8226 46.999 24.7533C46.7373 25.6677 46.3282 26.5495 45.7883 27.3333C45.2485 28.1333 44.5777 28.8355 43.8087 29.407L43.7924 29.4233L36.4466 34.926L32.8146 37.6692L30.6223 39.3347C30.4914 39.4327 30.3496 39.5034 30.1969 39.547C30.0442 39.6014 29.8861 39.6286 29.7225 39.6286C29.5589 39.6286 29.4007 39.6014 29.248 39.547C29.0953 39.5034 28.959 39.4327 28.839 39.3347L26.6304 37.6692L23.0147 34.926L15.718 29.456L15.6853 29.4233L15.6526 29.407C14.9 28.8355 14.2292 28.1333 13.6893 27.3333C13.1331 26.5495 12.7241 25.6677 12.4623 24.7533C12.2005 23.8226 12.086 22.8756 12.1187 21.9122C12.1678 20.9488 12.3641 20.0017 12.7077 19.1037L12.7568 18.9894L17.5504 6.46539C17.5722 6.40008 17.5995 6.34021 17.6322 6.28578C17.6649 6.23135 17.7031 6.17692 17.7467 6.12249C17.7903 6.06806 17.834 6.01908 17.8776 5.97554C17.9321 5.93199 17.9866 5.89389 18.0412 5.86124C18.2048 5.76327 18.4011 5.69795 18.5974 5.66529C18.7938 5.64897 18.9901 5.68162 19.17 5.74694C19.3664 5.81225 19.53 5.92655 19.6609 6.07351C19.7917 6.22046 19.8899 6.40008 19.939 6.59602L23.1783 16.5074H36.283L39.5223 6.59602C39.5878 6.40008 39.6696 6.22046 39.8168 6.07351C39.9477 5.92655 40.1113 5.81225 40.2913 5.74694C40.4876 5.68162 40.6839 5.64897 40.8802 5.66529C41.0766 5.69795 41.2565 5.76327 41.4365 5.86124C41.491 5.89389 41.5401 5.93199 41.5837 5.97554C41.6383 6.01908 41.6874 6.06806 41.731 6.12249L41.8291 6.28578C41.8619 6.34021 41.8946 6.40008 41.9273 6.46539L46.7209 18.973L46.77 19.1037C47.1135 20.0017 47.3099 20.9488 47.3426 21.9122Z" fill="#E24329"/>
<path d="M47.3426 21.9122C47.3917 22.8756 47.2771 23.8227 47.0153 24.7535C46.7372 25.6679 46.3282 26.5495 45.7883 27.3333C45.2485 28.1333 44.5777 28.8355 43.8087 29.407L43.7924 29.4233L36.4466 34.926L29.7388 29.848L40.2749 21.8797C40.7438 21.5204 41.2347 21.1939 41.7473 20.8999C42.2599 20.5951 42.7889 20.323 43.3342 20.0835C43.8796 19.8331 44.4358 19.6154 45.003 19.4304C45.5592 19.2453 46.1319 19.0928 46.7209 18.973L46.77 19.1037C47.1135 20.0017 47.3099 20.9488 47.3426 21.9122Z" fill="#FC6D26"/>
<path d="M29.7388 29.848L36.4466 34.926L32.8146 37.6692L30.6223 39.3347C30.4914 39.4327 30.3496 39.5034 30.1969 39.547C30.0442 39.6014 29.8861 39.6286 29.7225 39.6286C29.5589 39.6286 29.4007 39.6014 29.248 39.547C29.0953 39.5034 28.959 39.4327 28.839 39.3347L26.6304 37.6692L23.0147 34.926L29.7388 29.848Z" fill="#FCA326"/>
<path d="M29.7225 29.8483L23.0147 34.926L15.718 29.456L15.6853 29.4233L15.6526 29.407C14.9 28.8355 14.2292 28.1333 13.6893 27.3333C13.1331 26.5495 12.7241 25.6677 12.4623 24.7533C12.2005 23.8226 12.086 22.8756 12.1187 21.9122C12.1678 20.9488 12.3641 20.0017 12.7077 19.1037L12.7568 18.9894C13.3349 19.1091 13.9075 19.2565 14.4746 19.4307C15.0418 19.6157 15.598 19.8334 16.1434 20.0838C16.6778 20.3233 17.2014 20.5954 17.714 20.9002C18.2266 21.205 18.7229 21.5316 19.2028 21.8799L29.7225 29.8483Z" fill="#FC6D26"/>
</svg>
