<svg width="182" height="46" viewBox="0 0 182 46" fill="none" xmlns="http://www.w3.org/2000/svg">
<path d="M57.377 5.66113H33.0053C31.3069 5.66113 29.9482 7.01983 29.9482 8.71821V36.5716C29.9482 38.2699 31.3069 39.6286 33.0053 39.6286H57.377C59.0754 39.6286 60.4341 38.2699 60.4341 36.5716V8.71821C60.4341 7.01983 59.0754 5.66113 57.377 5.66113ZM58.7357 36.5716C58.7357 37.3358 58.1413 37.9303 57.377 37.9303H33.0053C32.241 37.9303 31.6466 37.3358 31.6466 36.5716V8.71821C31.6466 7.95394 32.241 7.35951 33.0053 7.35951H57.377C58.1413 7.35951 58.7357 7.95394 58.7357 8.71821V36.5716ZM37.5909 34.5335L41.4123 31.1368L37.5909 27.74V34.5335ZM51.3478 20.7767C50.6684 20.0973 49.3946 19.2481 47.2717 19.2481C44.9789 19.2481 42.6011 19.8426 40.9028 20.437V10.7563H37.506V25.4472L39.8837 24.3433C39.8837 24.3433 43.79 22.56 47.1868 22.56C48.8851 22.56 49.3097 23.4941 49.3097 24.3433V34.5335H52.7065V24.3433C52.7914 24.0885 52.7914 22.2203 51.3478 20.7767ZM46.8471 16.276H50.2438C51.7724 14.4927 52.5366 12.7094 52.7914 10.7563H49.3946C49.055 12.7094 48.2058 14.4927 46.8471 16.276ZM140.682 24.2583V16.7855H144.079V24.2583C144.079 25.9567 144.673 26.8059 146.032 26.8059C147.391 26.8059 147.9 26.0416 147.9 24.2583V16.7855H151.212V24.3433C151.212 27.6551 149.599 29.6082 145.947 29.6082C142.296 29.5233 140.682 27.5702 140.682 24.2583ZM126.416 16.7855H129.813V21.3711L133.294 16.7855H137.201L132.955 21.7108L137.54 29.3535H133.719L130.747 24.3433L129.813 25.4472V29.3535H126.416V16.7855ZM110.281 22.9846C110.281 18.3989 113.423 16.4458 116.48 16.4458C119.538 16.4458 122.68 18.3989 122.68 22.9846C122.68 27.5702 119.538 29.5233 116.48 29.5233C113.423 29.5233 110.281 27.6551 110.281 22.9846ZM119.198 22.9846C119.198 20.6918 118.179 19.2481 116.396 19.2481C114.612 19.2481 113.593 20.6918 113.593 22.9846C113.593 25.2774 114.612 26.8059 116.396 26.8059C118.179 26.8059 119.198 25.3623 119.198 22.9846ZM96.6095 16.7855H101.535C104.762 16.7855 106.715 17.8894 106.715 20.8616C106.715 22.8147 105.866 24.0036 104.252 24.5131L106.885 29.3535H103.318L100.855 25.0226H99.9213V29.3535H96.6095V16.7855ZM101.45 22.3901C102.809 22.3901 103.488 21.9655 103.488 20.9465C103.488 19.9275 102.893 19.5029 101.45 19.5029H100.006V22.3901H101.45ZM83.6169 16.7855H92.6183V19.5878H87.0136V21.6259H91.0048V24.2583H87.0136V26.5511H92.873V29.2685H83.6169V16.7855ZM68.2466 16.7855H71.6433V21.456H75.8044V16.7855H79.2011V29.3535H75.8044V24.2583H71.6433V29.3535H68.2466V16.7855Z" fill="#430098"/>
</svg>
