<svg width="182" height="46" viewBox="0 0 182 46" fill="none" xmlns="http://www.w3.org/2000/svg">
<path d="M26.0378 19.2757C28.0503 21.2943 29.6963 24.6 28.7544 26.5641C26.2356 31.8161 7.44016 41.0285 5.844 39.4335C4.24785 37.84 13.4808 19.0703 18.7434 16.5542C20.7109 15.6138 24.0222 17.257 26.0459 19.266C26.0443 19.2677 26.0427 19.2709 26.0378 19.2757Z" fill="#FF8200"/>
<path d="M35.9957 17.058C35.6694 15.8497 34.8352 14.6286 33.5894 14.4841C31.3053 14.2194 27.7063 18.2503 27.9635 19.2067C28.2207 20.1631 33.3065 21.8496 35.2049 20.4872C36.1838 19.7844 36.3172 18.2663 35.9957 17.058ZM28.928 5.89116C30.6238 6.3501 32.3389 7.51669 32.5414 9.25936C32.9143 12.4558 27.253 17.4945 25.9093 17.135C24.5655 16.7756 22.1978 9.65731 24.1122 6.99838C25.0991 5.628 27.2289 5.44186 28.928 5.89116C28.928 5.88795 28.9264 5.89116 28.928 5.89116Z" fill="#43B02A"/>
<path d="M79.5014 24.8111L77.8201 24.556C76.2175 24.3201 75.29 23.8018 75.29 22.8599C75.29 21.7783 76.4972 21.1076 78.2814 21.1076C79.5432 21.1076 80.5703 21.5793 81.5541 22.08L81.7502 22.1795C81.9768 22.295 82.2211 22.3528 82.4735 22.3528C83.057 22.3528 83.5955 22.0367 83.8768 21.5264L84.0134 21.2793C84.2304 20.8845 84.277 20.4304 84.1436 20.0003C84.0102 19.5719 83.716 19.2253 83.3142 19.0247C81.882 18.309 80.3276 17.6656 78.2798 17.6656C74.0009 17.6656 71.2458 19.7276 71.2458 23.0476C71.2458 25.7723 73.2068 27.4813 76.9199 27.9868L78.6157 28.2066C80.408 28.4569 81.2792 28.9865 81.2792 29.8257C81.2792 30.6008 80.8597 31.6294 78.0837 31.6294C76.5534 31.6294 74.9991 31.241 73.7373 30.4435C73.4849 30.2846 73.1955 30.1996 72.8982 30.1996C72.3436 30.1996 71.818 30.4933 71.5255 30.965L71.4306 31.1175C71.1959 31.4962 71.1252 31.9615 71.2361 32.3932C71.347 32.8248 71.6203 33.1811 72.0061 33.3961C74.205 34.6301 76.7447 35.0681 78.0821 35.0681C82.5426 35.0681 85.3025 33.1169 85.3025 29.6829C85.3074 26.9389 83.3527 25.3631 79.5014 24.8111ZM131.361 30.8094C131.04 30.4499 130.577 30.2445 130.095 30.2445C129.768 30.2445 129.45 30.3376 129.172 30.5125C128.264 31.087 127.27 31.3919 126.295 31.3919C123.615 31.3919 121.67 29.2785 121.67 26.3677C121.67 23.4568 123.615 21.3435 126.295 21.3435C127.323 21.3435 128.244 21.6227 129.109 22.1971C129.779 22.6416 130.741 22.5277 131.292 21.9404L131.435 21.7879C131.813 21.3868 131.991 20.8412 131.927 20.294C131.864 19.7564 131.57 19.2766 131.122 18.9798C129.804 18.1068 128.17 17.6463 126.397 17.6463C121.254 17.6463 117.661 21.2327 117.661 26.3661C117.661 31.501 121.254 35.0874 126.397 35.0874C128.178 35.0874 129.821 34.6172 131.149 33.7267C131.593 33.4298 131.885 32.9548 131.951 32.4221C132.019 31.8861 131.85 31.3485 131.49 30.9474L131.361 30.8094ZM48.1232 11.7476C46.7843 11.7476 45.7362 12.8082 45.7362 14.161C45.7362 15.5201 46.7618 16.5439 48.1232 16.5439C49.4783 16.5439 50.5408 15.4977 50.5408 14.161C50.5408 12.8082 49.4783 11.7476 48.1232 11.7476ZM48.845 17.7891H47.4369C46.7473 17.7891 46.1879 18.3475 46.1879 19.0359V33.417C46.1879 34.1054 46.7473 34.6638 47.4369 34.6638H48.845C49.5345 34.6638 50.0939 34.1054 50.0939 33.417V19.0359C50.0939 18.3475 49.5345 17.7891 48.845 17.7891ZM95.0788 31.3164C93.4987 31.31 91.6614 30.0744 91.6614 27.9097V21.4221H95.09C95.7796 21.4221 96.339 20.8637 96.339 20.1753V19.0359C96.339 18.3475 95.7796 17.7891 95.09 17.7891H91.6614V14.0454C91.6614 13.357 91.1021 12.7986 90.4125 12.7986H88.9272C88.2377 12.7986 87.6783 13.357 87.6783 14.0454V27.6771C87.6783 31.6021 90.6616 35.0714 94.7927 35.0714C95.2042 35.0714 95.5947 34.9109 95.8889 34.6172C96.1815 34.3252 96.3438 33.9369 96.3438 33.5245V32.5633C96.3406 31.8717 95.7732 31.3197 95.0788 31.3164ZM60.9535 17.6479C55.9545 17.6479 53.1657 21.6403 53.1657 25.055V33.417C53.1657 34.1054 53.725 34.6638 54.4146 34.6638H55.8388C56.5284 34.6638 57.0877 34.1054 57.0877 33.417V25.6825C57.0877 23.0925 58.6598 21.3772 60.9519 21.3772C63.2441 21.3772 64.8161 23.0925 64.8161 25.6825V33.417C64.8161 34.1054 65.3755 34.6638 66.0651 34.6638H67.4893C68.1788 34.6638 68.7382 34.1054 68.7382 33.417V25.055C68.7414 21.6387 65.9542 17.6479 60.9535 17.6479ZM163.791 17.8212C163.249 17.7025 161.891 17.6479 161.187 17.6479C161.124 17.6479 161.061 17.6495 161 17.6495C157.129 17.6495 153.555 20.7995 153.555 25.1417C153.555 25.1449 153.553 25.1497 153.553 25.1529V33.417C153.553 34.1054 154.112 34.6638 154.802 34.6638H156.226C156.916 34.6638 157.475 34.1054 157.475 33.417V25.2845C157.475 22.9208 159.166 21.3788 161.238 21.3788C161.617 21.3852 162.024 21.4269 162.423 21.5055C162.532 21.5264 162.641 21.5376 162.752 21.5376C163.543 21.5376 164.228 20.992 164.413 20.225C164.514 19.803 164.589 19.4901 164.66 19.2028C164.731 18.9156 164.683 18.5915 164.519 18.3283C164.353 18.0683 164.094 17.887 163.791 17.8212ZM174.237 21.4221C174.927 21.4221 175.486 20.8637 175.486 20.1753V19.0359C175.486 18.3475 174.927 17.7891 174.237 17.7891H170.809V14.0454C170.809 13.357 170.249 12.7986 169.558 12.7986H168.073C167.383 12.7986 166.824 13.357 166.824 14.0454V27.6771C166.824 31.6021 169.807 35.0714 173.938 35.0714C174.351 35.0714 174.74 34.9109 175.034 34.6172C175.327 34.3252 175.489 33.9369 175.489 33.5245V32.5633C175.489 31.8701 174.922 31.318 174.227 31.3164C172.647 31.31 170.81 30.0744 170.81 27.9097V21.4221H174.237ZM147.053 18.9862C147.051 18.9846 147.054 18.9878 147.053 18.9862C145.735 18.1133 144.095 17.6479 142.322 17.6479C142.292 17.6479 142.261 17.6495 142.23 17.6495C142.2 17.6495 142.169 17.6479 142.139 17.6479C140.366 17.6479 138.731 18.1084 137.415 18.9814C137.413 18.983 137.416 18.9798 137.415 18.9814C135.042 20.4721 133.587 23.1102 133.587 26.3693C133.587 29.7824 135.177 32.5103 137.752 33.9561C138.953 34.6638 140.379 35.0858 141.915 35.0874C144.722 35.089 146.418 33.502 146.95 32.8088V33.4057C146.95 34.0941 147.509 34.6525 148.199 34.6525H149.623C150.312 34.6525 150.872 34.0941 150.872 33.4057V26.3677C150.873 23.1086 149.425 20.4753 147.053 18.9862ZM143.799 31.1303C143.343 31.2811 142.878 31.3678 142.417 31.3871C142.383 31.3887 142.349 31.3887 142.316 31.3903C142.287 31.3903 142.259 31.3919 142.23 31.3919C142.201 31.3919 142.174 31.3903 142.145 31.3903C142.111 31.3903 142.078 31.3887 142.044 31.3871C141.583 31.3678 141.117 31.2811 140.662 31.1303C138.82 30.4804 137.596 28.6768 137.596 26.3677C137.596 23.6429 139.302 21.6162 141.718 21.3691C141.731 21.3675 141.743 21.3675 141.756 21.3659C141.811 21.3611 141.866 21.3563 141.922 21.3531C141.952 21.3515 141.984 21.3499 142.015 21.3483C142.068 21.3467 142.123 21.3451 142.176 21.3451C142.195 21.3451 142.213 21.3435 142.232 21.3435C142.251 21.3435 142.269 21.3435 142.288 21.3451C142.343 21.3451 142.396 21.3467 142.449 21.3483C142.481 21.3499 142.512 21.3515 142.542 21.3531C142.597 21.3563 142.653 21.3595 142.708 21.3659C142.721 21.3675 142.734 21.3675 142.746 21.3691C145.162 21.6162 146.868 23.6413 146.868 26.3677C146.865 28.6752 145.641 30.4804 143.799 31.1303ZM111.498 18.9862C111.497 18.9846 111.5 18.9878 111.498 18.9862C110.18 18.1133 108.541 17.6479 106.768 17.6479C106.737 17.6479 106.707 17.6495 106.676 17.6495C106.646 17.6495 106.615 17.6479 106.585 17.6479C104.812 17.6479 103.177 18.1084 101.86 18.9814C101.859 18.983 101.862 18.9798 101.86 18.9814C99.4879 20.4721 98.0332 23.1102 98.0332 26.3693C98.0332 29.7824 99.6229 32.5103 102.198 33.9561C103.399 34.6638 104.824 35.0858 106.361 35.0874C109.168 35.089 110.864 33.502 111.396 32.8088V33.4057C111.396 34.0941 111.955 34.6525 112.645 34.6525H114.069C114.758 34.6525 115.318 34.0941 115.318 33.4057V26.3677C115.319 23.1086 113.871 20.4753 111.498 18.9862ZM108.245 31.1303C107.789 31.2811 107.324 31.3678 106.863 31.3871C106.829 31.3887 106.795 31.3887 106.761 31.3903C106.732 31.3903 106.705 31.3919 106.676 31.3919C106.647 31.3919 106.62 31.3903 106.591 31.3903C106.557 31.3903 106.524 31.3887 106.49 31.3871C106.028 31.3678 105.562 31.2811 105.107 31.1303C103.265 30.4804 102.042 28.6768 102.042 26.3677C102.042 23.6429 103.748 21.6162 106.163 21.3691C106.176 21.3675 106.189 21.3675 106.202 21.3659C106.257 21.3611 106.311 21.3563 106.368 21.3531C106.398 21.3515 106.43 21.3499 106.461 21.3483C106.514 21.3467 106.569 21.3451 106.622 21.3451C106.641 21.3451 106.659 21.3435 106.678 21.3435C106.697 21.3435 106.715 21.3435 106.734 21.3451C106.789 21.3451 106.842 21.3467 106.895 21.3483C106.927 21.3499 106.958 21.3515 106.988 21.3531C107.043 21.3563 107.099 21.3595 107.154 21.3659C107.166 21.3675 107.179 21.3675 107.192 21.3691C109.608 21.6162 111.314 23.6413 111.314 26.3677C111.31 28.6752 110.087 30.4804 108.245 31.1303Z" fill="#43B02A"/>
</svg>
