<svg width="182" height="46" viewBox="0 0 182 46" fill="none" xmlns="http://www.w3.org/2000/svg">
<path d="M9.18209 31.6221C8.5564 31.6235 7.94156 31.4587 7.40038 31.1446C6.8592 30.8306 6.41108 30.3785 6.10181 29.8346C5.79726 29.2945 5.64538 28.6817 5.66242 28.0618C5.67947 27.442 5.8648 26.8385 6.19857 26.316L12.5419 16.3542C12.8666 15.8188 13.3275 15.3792 13.8777 15.0803C14.4278 14.7813 15.0474 14.6338 15.6733 14.6527C16.2986 14.6677 16.9088 14.8486 17.4412 15.1768C17.9737 15.5051 18.4095 15.9689 18.7038 16.5209C19.2952 17.6391 19.2212 18.9844 18.513 20.0341L12.1737 29.9958C11.8522 30.4968 11.4095 30.9085 10.8865 31.1928C10.3636 31.4771 9.77731 31.6247 9.18209 31.6221Z" fill="#F62B54"/>
<path d="M20.0625 31.6221C18.7831 31.6221 17.6058 30.938 16.9876 29.8386C16.6838 29.3 16.5322 28.6888 16.5493 28.0706C16.5663 27.4524 16.7513 26.8505 17.0844 26.3294L23.4156 16.3905C23.7355 15.8476 24.1948 15.4001 24.7459 15.0946C25.297 14.789 25.9198 14.6364 26.5497 14.6527C27.8399 14.6809 29.0091 15.4027 29.6004 16.5316C30.1877 17.6606 30.1017 19.014 29.3719 20.061L23.042 29.9999C22.7215 30.4987 22.2806 30.9088 21.7599 31.1923C21.2392 31.4758 20.6554 31.6236 20.0625 31.6221Z" fill="#FFCC00"/>
<path d="M30.6997 31.7054C32.5034 31.7054 33.9655 30.2739 33.9655 28.508C33.9655 26.7422 32.5034 25.3106 30.6997 25.3106C28.8961 25.3106 27.434 26.7422 27.434 28.508C27.434 30.2739 28.8961 31.7054 30.6997 31.7054Z" fill="#00CA72"/>
<path d="M172.573 25.4961C173.559 25.4961 174.149 26.1977 174.149 27.3468V31.2847H175.489V27.2568C175.489 25.3026 174.569 24.1696 172.838 24.1696C172.16 24.1696 171.085 24.3551 170.444 25.601C170.295 25.2335 170.049 24.9132 169.733 24.6742C169.417 24.4352 169.042 24.2863 168.647 24.2435C168.399 24.1981 168.146 24.1832 167.895 24.1992C167.344 24.2435 166.363 24.5862 165.996 25.3631V24.3188H164.655V31.2847H165.996V27.5256C165.996 26.0633 166.953 25.4961 167.911 25.4961C168.809 25.4961 169.399 26.1829 169.399 27.332V31.2847H170.732V27.5256C170.732 26.3617 171.431 25.4827 172.573 25.4961ZM159.732 30.1208C160.345 30.1343 160.936 29.8897 161.365 29.4461C161.795 29.0026 162.023 28.3992 162 27.7796C162 26.3764 160.968 25.4961 159.732 25.4961C158.494 25.4961 157.463 26.3764 157.463 27.7796C157.439 28.3978 157.667 28.9999 158.095 29.4421C158.522 29.8856 159.111 30.1316 159.721 30.1208H159.732ZM159.732 31.4272C157.772 31.4272 156.137 29.9797 156.137 27.7715C156.137 25.5633 157.772 24.1615 159.732 24.1615C161.691 24.1615 163.34 25.5633 163.34 27.7715C163.34 29.9797 161.682 31.4339 159.722 31.4339L159.732 31.4272ZM149.236 27.7715L149.222 27.7796C149.222 25.5714 150.901 24.1696 152.874 24.1615C153.369 24.1519 153.861 24.2465 154.318 24.4391C154.775 24.6318 155.186 24.9181 155.525 25.2797L154.509 26.1453C154.293 25.9334 154.038 25.7663 153.757 25.6537C153.476 25.5411 153.176 25.4853 152.874 25.4894C151.637 25.4894 150.562 26.3697 150.562 27.7715C150.562 28.719 151.125 29.5725 151.989 29.9354C152.853 30.2982 153.848 30.0966 154.509 29.4273L155.54 30.2929C155.2 30.6582 154.787 30.9479 154.327 31.1434C153.868 31.3388 153.373 31.4355 152.874 31.4272C150.916 31.4272 149.236 29.9797 149.236 27.7715ZM144.944 29.9475C144.943 29.8257 144.966 29.7048 145.011 29.5917C145.056 29.4787 145.123 29.3757 145.208 29.2885C145.294 29.2014 145.395 29.1319 145.507 29.084C145.619 29.0361 145.739 29.0107 145.861 29.0093C145.983 29.0107 146.103 29.0361 146.215 29.084C146.327 29.1319 146.428 29.2014 146.514 29.2885C146.599 29.3757 146.666 29.4787 146.711 29.5917C146.756 29.7048 146.779 29.8257 146.778 29.9475C146.766 30.1833 146.664 30.4057 146.494 30.5693C146.323 30.7329 146.097 30.8253 145.861 30.8278C145.625 30.8253 145.399 30.7329 145.228 30.5693C145.058 30.4057 144.956 30.1833 144.944 29.9475Z" fill="#333333"/>
<path fill-rule="evenodd" clip-rule="evenodd" d="M148.611 15.4631H143.838L140.493 24.0876L137.166 15.4631H132.393L138.195 29.0913L134.587 38.1015H139.324L148.611 15.4631ZM119.587 23.0433C119.587 25.2206 121.49 26.6533 123.36 26.6533C125.197 26.6533 127.002 25.3201 127.002 23.042C127.002 20.7639 125.197 19.4293 123.36 19.4293C121.49 19.4293 119.587 20.8633 119.587 23.042V23.0433ZM127.002 28.9287C126.034 30.3937 123.776 30.9474 122.618 30.9474C118.782 30.9474 114.945 27.9234 114.945 23.042C114.945 18.1619 118.781 15.1379 122.618 15.1379C123.584 15.1379 125.842 15.4604 127.002 17.1539V15.4685H131.45V30.6557L127.002 30.6544V28.9287ZM113.679 30.6531H109.231V28.7661C108.488 30.1638 106.685 30.9783 104.815 30.9783C100.946 30.9783 97.5279 27.8884 97.5279 23.1038C97.5279 18.2291 100.946 15.1352 104.815 15.1352C106.683 15.1352 108.49 15.9147 109.231 17.3138V7.18945H113.679V30.6531ZM109.134 23.0084C109.134 20.7316 107.49 19.397 105.653 19.397C103.75 19.397 102.17 20.8284 102.17 23.0084C102.17 25.2582 103.75 26.6829 105.652 26.6829C107.524 26.6856 109.134 25.1883 109.134 23.0084ZM86.5292 22.6159C86.5292 20.3069 87.7226 19.5261 89.3018 19.5261C90.8164 19.5261 91.913 20.5341 91.913 22.5501V30.6504H96.3937V21.5757C96.3937 17.2507 94.2649 15.1352 90.8795 15.1352C89.1069 15.1352 87.3342 16.1432 86.5279 17.6727V15.4631H82.0499V30.6504H86.5292V22.6159ZM72.9515 30.9111C68.6966 30.9111 65.1473 27.789 65.1473 23.007C65.1473 18.2224 68.6926 15.1312 72.9515 15.1312C77.2104 15.1312 80.7866 18.2224 80.7866 23.007C80.7866 27.7917 77.2064 30.9124 72.9515 30.9124V30.9111ZM72.9515 26.4893C74.8196 26.4893 76.3691 25.1211 76.3691 23.0084C76.3691 20.9588 74.8209 19.5597 72.9515 19.5597C72.5014 19.5526 72.0546 19.6373 71.6382 19.8085C71.2219 19.9797 70.8447 20.2339 70.5298 20.5556C70.213 20.879 69.9644 21.2627 69.7989 21.6841C69.6333 22.1055 69.5542 22.5558 69.5662 23.0084C69.5675 25.1238 71.1144 26.4893 72.9515 26.4893ZM57.1147 19.5274C58.4357 19.5274 59.5969 20.569 59.5969 22.5514V30.6531H64.0453V22.0272C64.0453 17.4415 61.8157 15.1325 58.2422 15.1325C57.1805 15.1325 55.1807 15.4551 53.7293 17.8313C52.8907 16.0747 51.2793 15.1634 48.8979 15.1634C48.0711 15.1592 47.2605 15.3932 46.5632 15.8375C45.8658 16.2818 45.3112 16.9175 44.9655 17.6686V15.4645H40.4822V30.6517H44.9615V22.6159C44.9615 20.3069 46.2194 19.5261 47.5728 19.5261C48.8629 19.5261 50.0214 20.5341 50.055 22.4533V30.6517H54.5357V22.6159C54.5357 20.4077 55.6968 19.5287 57.1147 19.5287V19.5274Z" fill="#333333"/>
</svg>
