<svg width="182" height="46" viewBox="0 0 182 46" fill="none" xmlns="http://www.w3.org/2000/svg">
<path fill-rule="evenodd" clip-rule="evenodd" d="M66.603 28.0539L66.5739 27.6707H63.3542L63.3722 28.1017C63.5701 32.8976 66.8271 36.0754 72.6187 36.0754C78.1429 36.0754 81.8996 33.2255 81.8996 28.9115C81.8996 26.5793 81.0846 24.9284 79.5316 23.8019C78.3364 22.9346 76.9088 22.4453 74.54 21.9359L74.0194 21.8253L73.5032 21.7177C69.2004 20.8236 67.8363 20.0444 67.8363 17.7287C67.8363 15.333 69.8084 13.8076 73.1177 13.8076C76.3373 13.8076 78.3715 15.7596 78.4663 18.8328L78.479 19.2339H81.6755L81.6658 18.8111C81.5545 14.0205 78.3177 10.7964 73.0856 10.7964C67.9573 10.7964 64.5711 13.8606 64.5711 17.8273C64.5711 20.1535 65.3854 21.773 66.9406 22.8547C68.1254 23.6794 69.4984 24.1172 71.9202 24.6027C72.1676 24.6525 72.4151 24.7013 72.6628 24.7491C74.9539 25.1988 75.9646 25.4767 76.8871 26.0093C78.0323 26.6705 78.6 27.6147 78.6 29.0773C78.6 31.6172 76.4501 33.0641 72.6852 33.0641C69.0816 33.0641 66.845 31.2698 66.603 28.0539ZM88.628 10.0068H85.4509V35.6802H88.628V30.8358L91.9731 27.5758L97.9462 35.5151L98.0702 35.6794H102.023L94.2239 25.399L101.661 17.9901H97.3434L88.628 26.7743V10.0068ZM118.931 27.8911L118.955 27.5011C118.968 27.2906 118.978 27.08 118.985 26.8692C118.988 26.7616 118.99 26.6637 118.99 26.5771C118.99 21.3569 115.52 17.5113 110.392 17.5113C105.274 17.5113 101.628 21.6049 101.628 26.7765C101.628 32.0983 105.109 36.0754 110.426 36.0754C114.446 36.0754 117.552 33.6984 118.671 30.0933L118.838 29.5547H115.506L115.408 29.8311C114.706 31.8047 112.803 33.1142 110.459 33.1142C107.396 33.1142 105.259 31.0173 104.875 27.8911H118.931ZM104.784 25.411C105.321 22.5619 107.367 20.6712 110.152 20.6712C113.023 20.6712 115.005 22.4999 115.438 25.411H104.784ZM129.643 20.7705V17.9603H125.771V13.1667H122.594V17.9603H119.384V20.7705H122.594V30.6715C122.594 33.9195 124.281 35.6802 127.376 35.6802C127.916 35.6802 128.383 35.6481 128.773 35.5935C129.015 35.5599 129.182 35.5248 129.274 35.4994L129.577 35.4158V32.4733L129.075 32.5816C128.928 32.6114 128.78 32.6373 128.631 32.6593C128.315 32.7073 127.995 32.7336 127.674 32.7377C126.318 32.7377 125.771 32.1012 125.771 30.5064V20.7705H129.643ZM139.084 36.0754C143.448 36.0754 146.528 33.2778 147.302 29.3194L147.399 28.8226H144.219L144.139 29.1319C143.476 31.6575 141.677 33.1135 139.084 33.1135C135.85 33.1135 133.618 30.5288 133.618 26.8101C133.618 23.0624 135.845 20.4725 139.084 20.4725C141.677 20.4725 143.476 21.9292 144.139 24.4548L144.219 24.7641H147.399L147.302 24.2673C146.528 20.3081 143.448 17.5113 139.084 17.5113C134.016 17.5113 130.432 21.6341 130.432 26.8101C130.432 31.9571 134.021 36.0754 139.084 36.0754ZM153.331 10.0068H150.161V35.6802H153.331V25.2945C153.331 22.2571 155.175 20.4747 157.972 20.4747C160.643 20.4747 161.985 22.0263 161.985 24.9635V35.6802H165.155V24.4989C165.155 20.3492 162.594 17.592 158.368 17.592C156.195 17.592 154.447 18.3913 153.331 19.5372V10.0068Z" fill="black"/>
<path fill-rule="evenodd" clip-rule="evenodd" d="M24.2691 6.77941L34.9439 5.66113L45.6195 6.77941L53.8845 17.7732L34.9447 39.6286L16.0049 17.7732L24.2691 6.77941Z" fill="#FDB300"/>
<path fill-rule="evenodd" clip-rule="evenodd" d="M23.6767 17.9053L34.9447 39.6286L16.0049 17.9053H23.6767Z" fill="#EA6C00"/>
<path fill-rule="evenodd" clip-rule="evenodd" d="M46.2147 17.9053L34.9447 39.6286L53.8858 17.9053H46.2147Z" fill="#EA6C00"/>
<path fill-rule="evenodd" clip-rule="evenodd" d="M23.5049 17.9053H45.9961L34.7505 39.6285L23.5049 17.9053Z" fill="#FDAD00"/>
<path fill-rule="evenodd" clip-rule="evenodd" d="M34.5533 5.66113L24.0861 6.79137L23.5049 17.9053L34.5533 5.66113Z" fill="#FDD231"/>
<path fill-rule="evenodd" clip-rule="evenodd" d="M34.9439 5.66113L45.4087 6.79137L45.9961 17.9053L34.9439 5.66113Z" fill="#FDD231"/>
<path fill-rule="evenodd" clip-rule="evenodd" d="M53.8858 17.9053L45.5992 6.84403L46.1938 17.9036L53.8858 17.9053Z" fill="#FDAD00"/>
<path fill-rule="evenodd" clip-rule="evenodd" d="M16.0049 17.9053L24.2908 6.84403L23.6961 17.9036L16.0049 17.9053Z" fill="#FDAD00"/>
<path fill-rule="evenodd" clip-rule="evenodd" d="M34.7505 5.66113L23.5049 17.9053H45.9961L34.7505 5.66113Z" fill="#FEEEB7"/>
</svg>
