<svg width="182" height="46" viewBox="0 0 182 46" fill="none" xmlns="http://www.w3.org/2000/svg">
<path d="M66.6103 18.944C66.6103 16.5214 64.2493 13.9483 60.1637 13.9483C55.5757 13.9483 50.5356 17.3067 49.7653 24.0066C48.9784 30.7734 53.198 33.7808 57.4511 33.7808C61.7042 33.7808 63.9312 32.1267 66.2084 29.9212C64.2493 27.4652 61.7209 28.6013 61.2353 28.8519C60.6995 29.1193 60.013 29.4868 58.6064 29.4868C56.9655 29.4868 55.291 28.7517 55.291 25.6941C65.8065 24.6582 66.6103 21.3667 66.6103 18.944ZM61.4028 19.345C61.3358 20.0969 61.0344 21.3834 55.7096 22.1019C56.8315 18.1253 58.9748 17.8246 59.9627 17.8246C60.8837 17.8246 61.4697 18.5431 61.4028 19.345ZM43.5866 19.9967C43.5866 19.9967 41.3261 27.0809 41.142 27.6657C41.075 27.0642 39.4173 14.3493 39.4173 14.3493C35.566 14.3493 33.5065 17.0894 32.4181 19.9799C32.4181 19.9799 29.672 27.0809 29.4376 27.6824C29.4208 27.131 29.019 20.0635 29.019 20.0635C28.7845 16.5214 25.5361 14.366 22.9072 14.366L26.0887 33.6304C30.1241 33.6137 32.3009 30.8903 33.4395 27.9998C33.4395 27.9998 35.8674 21.7343 35.9679 21.4503C35.9847 21.7176 37.7093 33.6304 37.7093 33.6304C41.7615 33.6304 43.9383 31.0741 45.1104 28.2839L50.7868 14.366C46.7848 14.366 44.675 17.0894 43.5866 19.9967ZM81.4794 13.9149C78.9844 13.9149 77.0756 15.2683 75.4681 17.2565V17.2398L76.9081 5.66113C73.5927 5.66113 70.8969 8.53492 70.3778 12.8122L67.8661 33.4801C69.775 33.4801 71.8011 32.9287 72.8895 31.5252C73.8606 32.7783 75.3174 33.7808 77.4774 33.7808C83.0701 33.7808 86.9046 27.2981 86.9046 21.2163C86.8711 15.6693 84.1752 13.9149 81.4794 13.9149ZM80.9603 23.8562C80.3742 27.248 78.4821 29.5537 76.657 29.5537C74.8151 29.5537 74.0281 28.735 74.0281 28.735C74.3797 25.7609 74.5974 23.9398 75.2672 22.3692C75.937 20.7986 77.5277 18.2924 79.1854 18.2924C80.8096 18.2924 81.5463 20.4478 80.9603 23.8562ZM100.869 14.366H96.968L96.9847 14.1655C97.2527 11.6259 97.8555 10.2893 99.848 10.0721C101.204 9.9384 101.807 9.23666 101.958 8.46809C102.075 7.8666 102.443 5.77809 102.443 5.77809C94.607 5.72797 92.1456 9.10299 91.5093 14.2491L91.4926 14.366H91.4088C90.1363 14.366 88.7297 15.8029 88.4953 17.6241L88.4116 18.2924H91.0237L88.8302 36.3706L88.1604 39.6119C88.2441 39.6119 88.3446 39.6286 88.4283 39.6286C92.0954 39.495 94.4396 36.6045 94.9587 32.4107L96.6666 18.2924H97.8889C99.0945 18.2924 100.501 17.0894 100.752 15.0845L100.869 14.366ZM121.164 14.0319C116.659 14.0319 112.406 17.3401 111.1 22.5363C109.794 27.7325 111.77 33.8811 118.401 33.8811C125.015 33.8811 128.833 27.4819 128.833 22.152C128.833 16.8555 125.233 14.0319 121.164 14.0319ZM122.989 23.6891C122.754 26.045 121.716 29.6205 118.87 29.6205C116.006 29.6205 116.408 25.4435 116.693 23.4552C116.994 21.3333 118.183 18.3091 120.745 18.3091C123.039 18.3091 123.257 21.0326 122.989 23.6891ZM151.086 19.9967C151.086 19.9967 148.826 27.0809 148.641 27.6657C148.574 27.0642 146.917 14.3493 146.917 14.3493C143.066 14.3493 141.006 17.0894 139.918 19.9799C139.918 19.9799 137.171 27.0809 136.937 27.6824C136.92 27.131 136.518 20.0635 136.518 20.0635C136.284 16.5214 133.036 14.366 130.407 14.366L133.571 33.6304C137.607 33.6137 139.784 30.8903 140.922 27.9998C140.922 27.9998 143.35 21.7343 143.434 21.4503C143.467 21.7176 145.175 33.6304 145.175 33.6304C149.227 33.6304 151.404 31.0741 152.576 28.2839L158.253 14.366C154.268 14.366 152.158 17.0894 151.086 19.9967ZM104.553 5.77809L101.271 32.1935L100.602 35.4516C100.685 35.4516 100.786 35.4683 100.869 35.4683C104.403 35.4182 106.914 32.3272 107.383 28.4342L109.275 13.28C109.844 8.65188 107.082 5.77809 104.553 5.77809Z" fill="black"/>
</svg>
