<svg width="182" height="46" viewBox="0 0 182 46" fill="none" xmlns="http://www.w3.org/2000/svg">
<path d="M98.0109 20.4098H96.16C96.122 20.2583 96.0936 20.0826 96.0748 19.8832C96.0371 19.495 96.0371 19.1041 96.0748 18.7159C96.0936 18.5169 96.122 18.3413 96.16 18.189H100.773V32.7955C100.542 32.8356 100.309 32.864 100.075 32.8804C99.843 32.8982 99.6102 32.9076 99.3772 32.9086C99.1541 32.9072 98.9311 32.8978 98.7086 32.8804C98.4749 32.8639 98.2422 32.8354 98.0114 32.795V20.4092V20.4095L98.0109 20.4098ZM114.069 24.0831C114.069 23.5514 113.998 23.0438 113.856 22.5593C113.713 22.0756 113.504 21.6534 113.229 21.2925C112.954 20.9323 112.603 20.6425 112.175 20.4243C111.749 20.206 111.241 20.0967 110.652 20.0967C109.494 20.0967 108.607 20.4484 107.99 21.1504C107.373 21.8526 106.999 22.8301 106.865 24.0831H114.069H114.069ZM106.837 26.1898C106.875 27.7843 107.288 28.9519 108.076 29.6917C108.863 30.4319 110.026 30.8026 111.563 30.8026C112.911 30.8026 114.192 30.565 115.407 30.0905C115.558 30.3752 115.682 30.7217 115.777 31.1298C115.87 31.5271 115.927 31.9321 115.948 32.3397C115.322 32.6061 114.633 32.8045 113.884 32.9378C113.133 33.0702 112.303 33.1371 111.393 33.1371C110.063 33.1371 108.924 32.9514 107.976 32.5816C107.026 32.2111 106.243 31.6891 105.627 31.0156C105.01 30.3419 104.559 29.5446 104.274 28.6238C103.99 27.7035 103.847 26.6926 103.847 25.5916C103.847 24.5097 103.984 23.4988 104.26 22.559C104.534 21.62 104.958 20.8036 105.526 20.1108C106.096 19.4177 106.813 18.8675 107.676 18.4594C108.54 18.0513 109.56 17.8469 110.737 17.8469C111.743 17.8469 112.626 18.018 113.385 18.3596C114.144 18.7012 114.78 19.1711 115.293 19.769C115.805 20.367 116.194 21.0788 116.46 21.9041C116.726 22.7301 116.859 23.6268 116.859 24.5951C116.859 24.861 116.849 25.1408 116.83 25.4348C116.814 25.6865 116.795 25.938 116.773 26.1893H106.837L106.837 26.1897L106.837 26.1898ZM119.964 18.189C120.162 18.153 120.362 18.1245 120.562 18.1037C120.751 18.0851 120.951 18.0755 121.16 18.0755C121.369 18.0755 121.577 18.0851 121.786 18.1037C121.995 18.123 122.185 18.1515 122.356 18.189C122.412 18.4738 122.469 18.8491 122.526 19.3136C122.583 19.7788 122.612 20.1723 122.612 20.4952C123.01 19.85 123.537 19.2897 124.192 18.8151C124.847 18.3409 125.686 18.1033 126.711 18.1033C126.863 18.1033 127.02 18.1083 127.181 18.1178C127.319 18.1252 127.457 18.1392 127.594 18.1601C127.632 18.3312 127.661 18.5118 127.679 18.7013C127.698 18.891 127.708 19.0904 127.708 19.2991C127.708 19.527 127.694 19.7645 127.665 20.0107C127.638 20.2487 127.605 20.486 127.566 20.7224C127.412 20.6845 127.254 20.6654 127.096 20.6655H126.711C126.199 20.6655 125.71 20.7368 125.245 20.8789C124.779 21.0215 124.362 21.2731 123.992 21.6334C123.622 21.9943 123.328 22.4879 123.11 23.1143C122.891 23.7407 122.782 24.5475 122.782 25.5343V32.795C122.551 32.8351 122.318 32.8638 122.084 32.8803C121.829 32.8993 121.596 32.9085 121.387 32.9085C121.154 32.9076 120.922 32.8982 120.689 32.8803C120.446 32.8626 120.204 32.8342 119.963 32.7952V18.1891L119.964 18.189ZM99.9812 10.3897C99.9813 10.7305 99.9197 11.0685 99.7996 11.3874C99.4806 11.5076 99.1425 11.5691 98.8016 11.5692H98.7974C98.4566 11.5693 98.1185 11.5077 97.7994 11.3876C97.6791 11.0686 97.6175 10.7305 97.6175 10.3896V10.3851C97.6175 10.0339 97.682 9.69752 97.7987 9.38713C98.1178 9.26682 98.456 9.20529 98.797 9.2055H98.8009C99.1522 9.2055 99.4885 9.26996 99.7989 9.38713C99.9191 9.70611 99.9806 10.0442 99.9805 10.3851V10.3896H99.9809L99.9812 10.3897ZM103.46 9.59965H100.702L102.652 7.64896C102.345 7.2182 101.969 6.84173 101.538 6.53512L99.5871 8.48582V5.72692C99.3277 5.68329 99.0651 5.66128 98.802 5.66113H98.797C98.5294 5.66113 98.2673 5.684 98.0118 5.72692V8.48582L96.0605 6.53497C95.8456 6.68792 95.6439 6.85861 95.4576 7.04526L95.4567 7.04615C95.2703 7.23265 95.0998 7.43434 94.9468 7.6491L96.8981 9.59965H94.1388C94.1388 9.59965 94.0731 10.118 94.0731 10.3859V10.3891C94.0731 10.6571 94.0959 10.9196 94.1389 11.1752H96.8983L94.9467 13.1256C95.2536 13.5563 95.6302 13.9328 96.061 14.2397L98.012 12.2892V15.0482C98.2671 15.091 98.5288 15.1136 98.7961 15.1139H98.8028C99.0655 15.1136 99.3278 15.0917 99.5869 15.0482V12.2892L101.538 14.2402C101.753 14.0871 101.955 13.9164 102.141 13.7299H102.142C102.328 13.5432 102.499 13.3414 102.652 13.1265L100.701 11.1754H103.46C103.503 10.9199 103.526 10.6582 103.526 10.3909V10.3841C103.526 10.1212 103.504 9.8591 103.46 9.59995V9.59965H103.46ZM53.4526 32.397L61.1402 20.4383H54.3636C54.3069 20.0967 54.2785 19.7174 54.2785 19.2997C54.2785 18.9012 54.3073 18.5307 54.3642 18.1888H65.3258L65.4684 18.5596L57.724 30.5463H64.9841C65.041 30.926 65.0696 31.3148 65.0696 31.7133C65.0696 32.0935 65.0411 32.4539 64.9842 32.7955H53.5952L53.4526 32.3966V32.397ZM75.6322 25.9334C75.3475 25.8958 74.9868 25.8582 74.5503 25.8198C74.1137 25.7822 73.7436 25.7629 73.4403 25.7629C72.2632 25.7629 71.3664 25.9812 70.7499 26.4178C70.1325 26.8547 69.8247 27.5187 69.8247 28.4108C69.8247 28.9802 69.9286 29.4264 70.1376 29.7489C70.3461 30.0721 70.6073 30.3183 70.9205 30.4892C71.2339 30.66 71.5799 30.7646 71.9594 30.8026C72.3388 30.8405 72.6997 30.8593 73.0413 30.8593C73.4779 30.8593 73.9286 30.8356 74.3938 30.7881C74.8586 30.741 75.2715 30.6695 75.6324 30.5746V25.9334H75.6322ZM75.6322 23.1719C75.6322 22.0516 75.3475 21.2734 74.7783 20.8368C74.2086 20.4001 73.383 20.1818 72.3011 20.1818C71.6362 20.1818 71.015 20.2344 70.4362 20.3387C69.8635 20.4414 69.2976 20.5792 68.7417 20.7511C68.3808 20.1246 68.2011 19.3754 68.2011 18.5017C68.8457 18.2932 69.5574 18.1319 70.336 18.018C71.1142 17.904 71.8639 17.8469 72.5855 17.8469C74.4835 17.8469 75.926 18.2791 76.9131 19.1427C77.8998 20.007 78.3938 21.3877 78.3938 23.2856V32.4252C77.729 32.577 76.9226 32.7335 75.9736 32.895C75.0141 33.057 74.0426 33.138 73.0695 33.1371C72.1395 33.1371 71.2992 33.052 70.5499 32.881C69.7999 32.7098 69.1639 32.4352 68.6421 32.055C68.1196 31.6757 67.7168 31.1916 67.4317 30.6033C67.1472 30.0148 67.0047 29.3031 67.0047 28.4677C67.0047 27.6518 67.1708 26.9351 67.503 26.3179C67.8294 25.7081 68.2924 25.1819 68.8556 24.7805C69.425 24.373 70.0798 24.0688 70.8201 23.8698C71.5606 23.6704 72.3385 23.5706 73.1547 23.5706C73.7621 23.5706 74.2604 23.5851 74.6497 23.6136C75.0385 23.6418 75.3661 23.6751 75.6319 23.7131V23.1721L75.6322 23.1719ZM84.2874 30.4033C84.6469 30.536 85.019 30.6315 85.398 30.6881C85.7776 30.7453 86.2707 30.7736 86.8787 30.7736C87.5618 30.7736 88.1879 30.6648 88.7573 30.4465C89.327 30.2286 89.8156 29.8913 90.2237 29.4356C90.6318 28.9802 90.9544 28.4064 91.1917 27.7128C91.4289 27.0205 91.5479 26.1998 91.5479 25.2502C91.5479 23.7318 91.2675 22.5265 90.7079 21.6343C90.1475 20.7423 89.2317 20.2962 87.9604 20.2962C87.4859 20.2962 87.03 20.3814 86.5941 20.5525C86.1569 20.7233 85.7681 20.9796 85.4264 21.3212C85.0848 21.6628 84.8096 22.0949 84.6009 22.6168C84.3915 23.1393 84.2876 23.7604 84.2876 24.4818V30.4037V30.4034L84.2874 30.4033ZM81.4687 18.1887C81.6618 18.1506 81.8563 18.1223 82.0523 18.1034C82.2559 18.0846 82.4602 18.0752 82.6647 18.0752C82.8539 18.0752 83.053 18.085 83.2623 18.1034C83.4708 18.1227 83.6701 18.1514 83.8602 18.1888C83.8789 18.2274 83.9029 18.3455 83.9315 18.5449C83.9597 18.7444 83.9882 18.9578 84.0169 19.1853C84.0454 19.4133 84.0737 19.632 84.1022 19.8402C84.1308 20.0494 84.145 20.1823 84.145 20.2391C84.3344 19.9357 84.5623 19.6412 84.8282 19.3565C85.094 19.0717 85.4123 18.8155 85.7824 18.588C86.1524 18.36 86.5698 18.1799 87.035 18.0468C87.4999 17.9141 88.0172 17.8471 88.5867 17.8471C89.4406 17.8471 90.2332 17.9896 90.9644 18.2745C91.6947 18.5596 92.3207 19.0003 92.843 19.5983C93.3647 20.1964 93.7727 20.9557 94.0672 21.876C94.3613 22.7974 94.5083 23.8839 94.5083 25.1365C94.5083 27.6418 93.8296 29.6022 92.4722 31.016C91.1148 32.4303 89.1935 33.1371 86.707 33.1371C86.2892 33.1371 85.8624 33.1085 85.4258 33.0517C84.9889 32.9945 84.6096 32.9184 84.2867 32.824V39.515C84.0462 39.5542 83.8041 39.5826 83.5611 39.6004C83.3046 39.619 83.0719 39.6286 82.8631 39.6286C82.6303 39.6276 82.3977 39.6182 82.1657 39.6004C81.9319 39.5839 81.6991 39.5554 81.4683 39.515V18.1888L81.4687 18.1887Z" fill="#FF4A00"/>
</svg>
