<svg width="40" height="40" viewBox="0 0 40 40" fill="none" xmlns="http://www.w3.org/2000/svg">
<g clip-path="url(#clip0_297_3741)">
<path d="M36.3165 34.6003L35.1165 33.4003C35.7332 32.467 36.0998 31.3337 36.0998 30.1337C36.0998 26.8337 33.4332 24.167 30.1332 24.167C26.8332 24.167 24.1665 26.8337 24.1665 30.1337C24.1665 33.4337 26.8332 36.1003 30.1332 36.1003C31.3498 36.1003 32.4665 35.7337 33.3998 35.117L34.5998 36.317C34.8332 36.5503 35.1498 36.667 35.4498 36.667C35.7665 36.667 36.0665 36.5503 36.2998 36.317C36.7832 35.8337 36.7832 35.067 36.3165 34.6003Z" fill="#292D32"/>
<path d="M3.38343 24.3838C3.38343 24.4338 3.3501 24.5005 3.3501 24.5505C4.88343 27.6171 7.38343 30.1338 10.4501 31.6505C10.5001 31.6505 10.5668 31.6171 10.6168 31.6171C10.0501 29.6838 9.61676 27.7005 9.3001 25.7171C7.3001 25.3838 5.31676 24.9505 3.38343 24.3838Z" fill="#292D32"/>
<path d="M31.7831 10.7167C30.2165 7.4334 27.5665 4.7834 24.2998 3.2334C24.8998 5.21673 25.3998 7.25007 25.7331 9.2834C27.7665 9.61673 29.7998 10.1001 31.7831 10.7167Z" fill="#292D32"/>
<path d="M3.2168 10.7162C5.2168 10.1162 7.25013 9.61621 9.28346 9.28288C9.6168 7.29954 10.0335 5.33288 10.6001 3.39954C10.5501 3.39954 10.4835 3.36621 10.4335 3.36621C7.30013 4.91621 4.75013 7.53288 3.2168 10.7162Z" fill="#292D32"/>
<path d="M23.0335 8.93366C22.6335 6.76699 22.1335 4.60033 21.4168 2.50033C21.3835 2.38366 21.3835 2.28366 21.3668 2.15033C20.1335 1.85033 18.8335 1.66699 17.5001 1.66699C16.1501 1.66699 14.8668 1.85033 13.6168 2.16699C13.6001 2.28366 13.6168 2.38366 13.5835 2.51699C12.8835 4.61699 12.3668 6.76699 11.9668 8.93366C15.6501 8.53366 19.3501 8.53366 23.0335 8.93366Z" fill="#292D32"/>
<path d="M8.93317 11.9668C6.74984 12.3668 4.6165 12.8835 2.49984 13.5835C2.38317 13.6168 2.28317 13.6168 2.1665 13.6335C1.84984 14.8668 1.6665 16.1668 1.6665 17.5001C1.6665 18.8501 1.84984 20.1335 2.1665 21.3835C2.28317 21.4001 2.38317 21.3835 2.5165 21.4168C4.6165 22.1168 6.7665 22.6335 8.94984 23.0335C8.53317 19.3501 8.53317 15.6501 8.93317 11.9668Z" fill="#292D32"/>
<path d="M32.8331 13.6335C32.7165 13.6335 32.6165 13.6168 32.4831 13.5835C30.3831 12.8835 28.2165 12.3668 26.0498 11.9668C26.4665 15.6501 26.4665 19.3501 26.0498 23.0168C28.2165 22.6168 30.3831 22.1168 32.4831 21.4001C32.5998 21.3668 32.6998 21.3835 32.8331 21.3668C33.1331 20.1168 33.3331 18.8335 33.3331 17.4835C33.3331 16.1668 33.1498 14.8835 32.8331 13.6335Z" fill="#292D32"/>
<path d="M11.9668 26.0665C12.3668 28.2498 12.8668 30.3998 13.5835 32.4998C13.6168 32.6165 13.6001 32.7165 13.6168 32.8498C14.8668 33.1498 16.1501 33.3331 17.5001 33.3331C18.8335 33.3331 20.1335 33.1498 21.3668 32.8331C21.3835 32.7165 21.3835 32.6165 21.4168 32.4831C22.1168 30.3831 22.6335 28.2331 23.0335 26.0498C21.2001 26.2498 19.3501 26.3998 17.5001 26.3998C15.6501 26.3998 13.8001 26.2665 11.9668 26.0665Z" fill="#292D32"/>
<path d="M11.5835 11.583C11.0835 15.5163 11.0835 19.483 11.5835 23.433C15.5168 23.933 19.4835 23.933 23.4335 23.433C23.9335 19.4997 23.9335 15.533 23.4335 11.583C19.4835 11.083 15.5168 11.083 11.5835 11.583Z" fill="#292D32"/>
</g>
<defs>
<clipPath id="clip0_297_3741">
<rect width="40" height="40" fill="white"/>
</clipPath>
</defs>
</svg>
