<svg width="37" height="31" viewBox="0 0 37 31" fill="none" xmlns="http://www.w3.org/2000/svg">
<g id="Logo">
<path id="Vector" d="M9.40111 12.5145C9.8926 14.1442 10.4876 15.6728 11.1343 17.1472C12.2466 19.7881 12.9967 21.1849 14.0338 22.9181C15.3013 24.9875 16.7005 27.3438 19.0028 28.87C20.6842 29.9823 22.7301 30.5514 24.696 30.5514C27.4662 30.5514 29.846 29.3356 31.3746 27.9106C32.8749 26.5137 34.8174 23.8211 34.8174 18.5676C34.8174 16.7569 35.6192 15.2024 36.2142 13.9608C36.2142 13.9349 36.2401 13.8832 36.2918 13.7797C36.5246 13.2624 36.8092 12.5898 36.8092 11.9172C36.8092 11.4258 36.6798 10.8567 36.3435 10.3652C35.8262 9.48567 34.895 9.17526 34.039 9.17526C32.0471 9.17526 30.6738 10.5721 29.9754 11.9972L29.7426 12.4628C29.458 12.0489 29.1735 11.6092 28.9407 11.2212C28.2164 9.95364 27.8025 9.10001 27.4403 8.01121C27.1558 7.15757 26.923 6.1746 26.7678 5.37035C26.328 2.83296 25.6037 2.00519 24.4115 1.69478C23.532 1.46197 22.4972 1.64304 21.7447 2.13453C21.2297 0.97048 20.3502 0.453125 19.1838 0.453125C17.5283 0.453125 16.0256 1.53957 16.0256 3.37853C16.0256 3.61134 16.0515 3.84415 16.0773 4.1287C15.8704 4.07696 15.6376 4.05109 15.4048 4.05109C13.6199 4.05109 12.2983 5.29274 12.2983 6.9765C12.2983 7.36452 12.35 7.80427 12.4794 8.32162C12.3242 8.29575 12.169 8.29575 12.0138 8.29575C11.1343 8.34749 10.3324 8.68377 9.76091 9.3822C9.19417 10.0548 8.96136 11.0895 9.40111 12.5145Z" fill="#1F1F1A"/>
<path id="Vector_2" d="M10.8749 12.0493C10.6421 11.2991 10.668 10.73 10.9525 10.3679C11.2371 10.0316 11.6251 9.87641 12.0907 9.85054C12.8926 9.82467 13.203 10.3938 13.6686 11.8682C13.9532 12.7995 14.5223 14.1469 14.8586 14.8971C15.2983 15.8025 15.9191 17.0183 16.2037 17.4345C16.4365 17.7966 16.6434 17.9001 16.8762 17.9001C17.2901 17.9001 17.6005 17.6673 17.6005 17.2534C17.6005 17.0206 17.3677 16.6326 17.2384 16.3998C17.0056 15.96 16.5141 15.0805 16.1778 14.3304C15.8157 13.5026 15.4018 12.4679 15.0655 11.5343C14.8586 10.9911 14.6257 10.215 14.3929 9.43901C14.0308 8.24909 13.8497 7.5248 13.8497 6.97922C13.8497 6.15145 14.4705 5.60823 15.4018 5.60823C16.0743 5.60823 16.5141 5.94451 16.7986 7.1603C17.0314 8.27261 17.4453 10.0857 18.0403 11.5084C18.4283 12.4397 18.9974 13.6837 19.3337 14.3045C19.5406 14.6666 19.7734 14.9771 19.7734 15.1064C19.7734 15.2875 19.4371 15.572 19.1526 15.96C18.9715 16.1928 18.8939 16.348 18.8939 16.5291C18.8939 16.6843 18.9974 16.8395 19.1526 17.0465C19.3078 17.2534 19.463 17.4604 19.6441 17.4604C19.7734 17.4604 19.851 17.4086 19.9286 17.3052C20.7305 16.2963 21.61 15.5979 22.6212 15.0264C23.8111 14.3539 25.0293 14.0176 25.9864 13.8107C26.452 13.7072 26.5813 13.6037 26.5813 13.345C26.5813 13.0346 26.3485 12.8535 26.0381 12.8277C25.8053 12.8018 25.5984 12.8277 25.2362 12.8535C24.9775 12.8794 24.8482 12.7501 24.693 12.4138C24.2274 11.4308 23.322 9.77294 22.7788 7.65178C22.546 6.74641 22.339 5.7893 22.2097 4.5453C22.1321 3.97621 22.2356 3.76927 22.5201 3.51059C22.8823 3.20018 23.529 3.07084 24.0204 3.20018C24.6154 3.35539 24.9258 3.821 25.2362 5.6341C25.3914 6.48773 25.6501 7.57418 25.9605 8.50777C26.3485 9.69769 26.84 10.683 27.5902 12.0023C28.0041 12.7266 28.5214 13.4767 29.0646 14.2034C28.9612 14.5138 28.7801 14.7207 28.1851 15.2122C27.5902 15.7037 26.9952 16.2211 26.452 17.1782C26.064 17.8766 25.8829 18.6526 25.8829 19.17C25.8829 19.6615 25.9864 19.7649 26.2968 19.7649C26.84 19.7649 27.2798 19.6615 27.3056 19.4287C27.435 18.4974 27.5902 17.9025 28.1075 17.2017C28.418 16.8137 28.9612 16.3222 29.4009 15.9342C30.2287 15.2616 30.5132 14.8736 30.7978 13.9165C30.9271 13.4767 31.0823 13.0628 31.2893 12.6748C31.7808 11.7695 32.6603 10.7347 34.0336 10.7347C34.4734 10.7347 34.8355 10.8641 35.0683 11.2262C35.1977 11.4332 35.2494 11.7177 35.2494 11.9247C35.2494 12.3903 34.9131 13.037 34.7579 13.3474C34.1888 14.5632 33.2576 16.428 33.2576 18.575C33.2576 23.2594 31.602 25.5899 30.3063 26.7798C29.0388 27.9697 27.0446 29.0068 24.6906 29.0068C23.0092 29.0068 21.2738 28.5153 19.851 27.5841C17.8592 26.2648 16.6152 24.193 15.3477 22.1236C14.3388 20.4422 13.6404 19.1206 12.5516 16.5597C11.9378 15.0758 11.3664 13.6272 10.8749 12.0493Z" fill="#FFE450"/>
<path id="Vector_3" d="M17.5283 3.3788C17.5283 2.39583 18.4337 2.00781 19.1839 2.00781C19.9858 2.00781 20.2703 2.39583 20.4772 3.2236C20.6583 3.89616 20.7359 4.51698 20.8135 5.24128C20.917 5.96558 21.2791 7.62346 21.3826 8.03735C21.7706 9.46007 22.5467 11.1438 23.4779 13.1615C22.9347 13.3426 22.2104 13.653 21.7189 13.9117C21.0981 14.248 20.9687 14.248 20.7101 13.7565C20.1668 12.7476 19.7788 11.9975 19.4425 11.1156C19.158 10.3913 18.8734 9.56355 18.6406 8.60409C18.2526 6.97442 18.2009 6.5088 17.8905 5.75628C17.7094 4.9826 17.5283 4.0255 17.5283 3.3788Z" fill="#FFE450"/>
<path id="Vector_4" d="M8.26289 20.7056C7.71497 21.0442 4.81072 22.5657 4.15462 22.8079C3.68665 22.9819 3.1787 22.9396 2.88005 22.0554C2.5132 20.9619 3.0282 20.7032 3.7619 20.4187C4.41095 20.1671 7.10355 19.1935 7.72907 19.0242C8.16883 18.9066 8.47454 19.0548 8.68618 19.5839C8.91899 20.1647 8.75908 20.3975 8.26289 20.7056Z" fill="#1F1F1A"/>
<path id="Vector_5" d="M5.86918 14.5413C5.08844 14.5625 1.84557 14.4237 1.10481 14.3508C0.460466 14.2873 0.199437 14.0028 0.269985 13.0692C0.345237 12.0674 0.735605 12.0062 1.36819 12.0674C2.10189 12.1379 5.49997 12.6906 6.04084 12.8575C6.60053 13.0316 6.67813 13.2855 6.60993 13.7747C6.52292 14.4096 6.23603 14.5295 5.86918 14.5413Z" fill="#1F1F1A"/>
<path id="Vector_6" d="M6.27165 7.97574C5.37803 7.69355 2.72541 6.08739 2.03404 5.67351C1.40851 5.29725 1.32855 4.95862 1.7636 4.1332C2.14927 3.4042 2.57726 3.27722 3.2122 3.60644C3.94825 3.98976 6.54678 6.01214 7.04297 6.41192C7.5227 6.79758 7.45686 6.99747 7.20524 7.49366C6.95361 7.98985 6.71845 8.11684 6.27165 7.97574Z" fill="#1F1F1A"/>
</g>
</svg>
