<svg width="37" height="37" viewBox="0 0 37 37" fill="none" xmlns="http://www.w3.org/2000/svg">
<g id="Logo">
<path id="Vector" d="M4.81957 17.2602V19.7537C4.81957 21.0127 3.79617 22.0361 2.53723 22.0361C1.27828 22.0361 0.254883 21.0127 0.254883 19.7456V17.2521C0.254883 15.9931 1.27828 14.9697 2.53723 14.9697C3.79617 14.9697 4.81957 15.9931 4.81957 17.2602Z" fill="#0066D9"/>
<path id="Vector_2" d="M32.2393 17.3258C32.2393 17.3015 32.2393 17.2852 32.2393 17.2609C32.2393 16.0019 33.2627 14.9785 34.5216 14.9785C35.7805 14.9785 36.8039 16.0019 36.8039 17.2609C36.8039 17.2852 36.8039 17.3015 36.8039 17.3258V19.8194C36.7715 21.0539 35.7643 22.0367 34.5216 22.0367C33.2789 22.0367 32.2717 21.0458 32.2393 19.8194V17.3258Z" fill="#4285F4"/>
<path id="Vector_3" d="M12.7121 24.7324V27.2259C12.7121 28.4849 11.6888 29.5083 10.4298 29.5083C9.17086 29.5083 8.14746 28.4849 8.14746 27.2259V24.7324C8.14746 23.4735 9.17086 22.4501 10.4298 22.4501C11.6888 22.4501 12.7121 23.4735 12.7121 24.7324ZM12.7121 9.77942V17.9341C12.6878 19.1687 11.6725 20.1677 10.4298 20.1677C9.18711 20.1677 8.17183 19.1768 8.14746 17.9341V9.77942C8.14746 8.52047 9.17086 7.49707 10.4298 7.49707C11.6888 7.49707 12.7121 8.52047 12.7121 9.77942Z" fill="#EA4335"/>
<path id="Vector_4" d="M24.3467 12.2729C24.3467 13.5319 25.3701 14.5553 26.629 14.5553C27.888 14.5553 28.9114 13.5319 28.9114 12.2729V9.77942C28.9114 8.52047 27.888 7.49707 26.629 7.49707C25.3701 7.49707 24.3467 8.52047 24.3467 9.77942V12.2729Z" fill="#34A853"/>
<path id="Vector_5" d="M16.248 5.00341C16.248 6.26235 17.2714 7.28575 18.5304 7.28575C19.7893 7.28575 20.8127 6.26235 20.8127 5.00341V2.50988C20.8127 1.25094 19.7893 0.227539 18.5304 0.227539C17.2714 0.227539 16.248 1.25094 16.248 2.50988V5.00341ZM16.248 32.0017C16.248 30.7427 17.2714 29.7193 18.5304 29.7193C19.7893 29.7193 20.8127 30.7427 20.8127 32.0017V34.4952C20.8127 35.7541 19.7893 36.7775 18.5304 36.7775C17.2714 36.7775 16.248 35.7541 16.248 34.4952V32.0017Z" fill="#FAB908"/>
<path id="Vector_6" d="M24.3467 19.128C24.3467 17.8691 25.3701 16.8457 26.629 16.8457C27.888 16.8457 28.9114 17.8691 28.9114 19.128V27.2259C28.9114 28.4848 27.888 29.5082 26.629 29.5082C25.3701 29.5082 24.3467 28.4848 24.3467 27.2259V19.128Z" fill="#34A853"/>
<path id="Vector_7" d="M20.8127 11.8595V25.1474C20.8127 26.4064 19.7893 27.4298 18.5304 27.4298C17.2714 27.4298 16.248 26.4064 16.248 25.1474V11.8595C16.248 10.6005 17.2714 9.57715 18.5304 9.57715C19.7893 9.57715 20.8127 10.5924 20.8127 11.8595Z" fill="#FAB908"/>
</g>
</svg>
