<svg width="30" height="30" viewBox="0 0 30 30" fill="none" xmlns="http://www.w3.org/2000/svg">
<g filter="url(#filter0_i_511_1015)">
<rect width="30" height="30" rx="8" fill="#1E1E1E"/>
<rect x="0.2" y="0.2" width="29.6" height="29.6" rx="7.8" stroke="#1E1E1E" stroke-width="0.4"/>
<path d="M10.4149 4C6.87746 4 4 6.88012 4 10.4185V19.5851C4 23.1225 6.88012 26 10.4185 26H19.5851C23.1225 26 26 23.1199 26 19.5815V10.4149C26 6.87746 23.1199 4 19.5815 4H10.4149ZM21.4167 7.66667C21.9227 7.66667 22.3333 8.07733 22.3333 8.58333C22.3333 9.08933 21.9227 9.5 21.4167 9.5C20.9107 9.5 20.5 9.08933 20.5 8.58333C20.5 8.07733 20.9107 7.66667 21.4167 7.66667ZM15 9.5C18.0332 9.5 20.5 11.9668 20.5 15C20.5 18.0332 18.0332 20.5 15 20.5C11.9668 20.5 9.5 18.0332 9.5 15C9.5 11.9668 11.9668 9.5 15 9.5ZM15 11.3333C14.0275 11.3333 13.0949 11.7196 12.4073 12.4073C11.7196 13.0949 11.3333 14.0275 11.3333 15C11.3333 15.9725 11.7196 16.9051 12.4073 17.5927C13.0949 18.2804 14.0275 18.6667 15 18.6667C15.9725 18.6667 16.9051 18.2804 17.5927 17.5927C18.2804 16.9051 18.6667 15.9725 18.6667 15C18.6667 14.0275 18.2804 13.0949 17.5927 12.4073C16.9051 11.7196 15.9725 11.3333 15 11.3333Z" fill="white"/>
</g>
<defs>
<filter id="filter0_i_511_1015" x="0" y="-3" width="30" height="33" filterUnits="userSpaceOnUse" color-interpolation-filters="sRGB">
<feFlood flood-opacity="0" result="BackgroundImageFix"/>
<feBlend mode="normal" in="SourceGraphic" in2="BackgroundImageFix" result="shape"/>
<feColorMatrix in="SourceAlpha" type="matrix" values="0 0 0 0 0 0 0 0 0 0 0 0 0 0 0 0 0 0 127 0" result="hardAlpha"/>
<feOffset dy="-3"/>
<feGaussianBlur stdDeviation="4.65"/>
<feComposite in2="hardAlpha" operator="arithmetic" k2="-1" k3="1"/>
<feColorMatrix type="matrix" values="0 0 0 0 0.580392 0 0 0 0 0.639216 0 0 0 0 0.721569 0 0 0 0.76 0"/>
<feBlend mode="normal" in2="shape" result="effect1_innerShadow_511_1015"/>
</filter>
</defs>
</svg>
