<svg width="35" height="37" viewBox="0 0 35 37" fill="none" xmlns="http://www.w3.org/2000/svg">
<g id="Logo">
<g id="Artboard-5-8">
<g id="Group-3-7">
<g id="Group-24">
<path id="Fill-3-Copy-4-1" fill-rule="evenodd" clip-rule="evenodd" d="M9.74952 33.6262C9.22464 33.6033 7.90507 33.3723 6.56791 33.0208C5.24114 32.6782 4.33475 32.2206 4.33475 32.2206C3.83605 31.9709 3.65404 31.5769 3.58416 31.1699C3.60547 31.1778 3.41519 29.8914 3.41519 27.403C3.41519 25.5141 3.51774 24.5019 3.56462 24.1823C3.61488 23.8456 3.78462 23.5701 4.23753 23.5909C4.69049 23.6122 5.30626 23.6014 6.75442 23.8542C8.48128 24.1628 9.32745 24.4233 9.73817 24.5594C10.1096 24.6874 10.5007 24.9673 10.5763 25.4915C10.5763 25.4915 10.7763 26.8691 10.7733 28.9578C10.7763 30.6484 10.6497 32.3233 10.5921 32.8648C10.5384 33.3664 10.2744 33.6491 9.74952 33.6262ZM17.5679 27.8169C17.5675 27.5182 17.4412 27.2398 17.1978 27.0194L12.724 22.8791C12.2106 22.3712 11.5998 22.0546 10.8566 21.9068C10.8566 21.9068 9.1688 21.5137 6.65625 21.1162C4.14365 20.7187 3.4875 20.7636 3.4875 20.7636C1.25989 20.7636 1.17961 23.0053 1.15661 23.2316C1.10159 23.7727 0.970703 25.2066 0.970703 27.2027C0.970703 29.5583 1.07689 31.1906 1.20509 32.1884C1.39996 33.7112 2.63921 34.4252 3.20962 34.6957C3.35419 34.764 4.902 35.3824 6.47147 35.8391C7.52923 36.1475 9.22421 36.5983 10.0183 36.7168C10.2792 36.7563 11.813 37.0049 12.5376 36.0984L17.2916 30.2812C17.4887 30.0118 17.5679 29.9021 17.5679 29.4897V27.8169ZM27.9584 19.3316C27.2841 19.267 26.6058 19.2531 25.9292 19.2899L15.237 20.2346C15.237 20.2346 14.5282 20.3365 14.1245 20.845C13.8121 21.2383 13.7464 21.5664 13.7464 21.5664C13.8879 21.6991 13.9451 21.7535 14.023 21.8209L18.2453 25.8854C18.7174 26.323 18.9914 26.7486 18.9914 27.3857V29.6751C18.9914 30.0822 18.9542 30.4242 18.7145 30.7312L16.4501 33.6345L18.7283 34.4686C19.5929 34.7375 20.3958 34.7298 21.2983 34.6002L31.1057 32.4752C31.1057 32.4752 32.8743 32.0311 32.8745 30.4456V24.8051C32.8745 24.6963 32.8077 24.6027 32.6874 24.6256L26.4249 25.7874C26.1911 25.8322 26.0447 26.0212 26.0447 26.233V28.9653C26.0447 29.1285 26.2459 29.2601 26.4249 29.2222L28.3872 28.7899C28.4892 28.7633 28.568 28.8341 28.572 28.9653V29.8467C28.5627 30.0281 28.4117 30.1533 28.1991 30.1993L25.978 30.649C25.9798 30.6425 24.4873 31.0077 24.4873 29.5025V26.0176C24.4873 24.4969 25.6556 24.3429 25.6556 24.3429L32.551 23.0883C32.7306 23.0563 32.8745 22.906 32.8745 22.7432V21.3237C32.868 19.7563 31.2647 19.6593 31.2647 19.6593L27.9584 19.3316ZM15.1428 4.54589C17.7073 4.64885 19.6513 6.94744 19.518 9.74277C19.37 12.5301 17.1474 14.7534 14.6766 14.6573C12.1126 14.5543 10.2542 12.2332 10.3869 9.43839C10.5349 6.65109 12.672 4.44985 15.1428 4.54589ZM25.4738 11.0842C25.5789 9.17837 27.0197 7.67209 28.7206 7.73315C30.3376 7.80171 31.6288 9.41988 31.5422 11.2637C31.4379 13.1751 29.9746 14.624 28.2774 14.573C26.6562 14.4939 25.388 12.9341 25.4738 11.0842ZM34.0714 11.3333C34.0668 7.57142 31.1013 4.5465 27.4511 4.5465C25.3205 4.5465 23.3873 5.61088 22.1363 7.19071C21.1752 3.17517 17.6236 0.216431 13.3715 0.22757C8.29677 0.240963 4.21678 4.37936 4.23372 9.48234C4.2507 14.6371 8.35257 18.8253 13.3715 18.8109C13.6605 18.8078 27.4907 17.9309 27.4511 17.9302C31.4371 17.6054 34.0917 15.0077 34.0714 11.3333Z" fill="#FF7705"/>
</g>
</g>
</g>
</g>
</svg>
