<svg width="30" height="30" viewBox="0 0 30 30" fill="none" xmlns="http://www.w3.org/2000/svg">
<g filter="url(#filter0_i_511_1013)">
<rect width="30" height="30" rx="8" fill="#1E1E1E"/>
<rect x="0.2" y="0.2" width="29.6" height="29.6" rx="7.8" stroke="#1E1E1E" stroke-width="0.4"/>
<path d="M24 4H6C4.895 4 4 4.895 4 6V24C4 25.105 4.895 26 6 26H24C25.105 26 26 25.105 26 24V6C26 4.895 25.105 4 24 4ZM10.954 22H8.004V12.508H10.954V22ZM9.449 11.151C8.498 11.151 7.729 10.38 7.729 9.431C7.729 8.482 8.499 7.712 9.449 7.712C10.397 7.712 11.168 8.483 11.168 9.431C11.168 10.38 10.397 11.151 9.449 11.151ZM22.004 22H19.056V17.384C19.056 16.283 19.036 14.867 17.523 14.867C15.988 14.867 15.752 16.066 15.752 17.304V22H12.804V12.508H15.634V13.805H15.674C16.068 13.059 17.03 12.272 18.465 12.272C21.452 12.272 22.004 14.238 22.004 16.794V22Z" fill="white"/>
</g>
<defs>
<filter id="filter0_i_511_1013" x="0" y="-3" width="30" height="33" filterUnits="userSpaceOnUse" color-interpolation-filters="sRGB">
<feFlood flood-opacity="0" result="BackgroundImageFix"/>
<feBlend mode="normal" in="SourceGraphic" in2="BackgroundImageFix" result="shape"/>
<feColorMatrix in="SourceAlpha" type="matrix" values="0 0 0 0 0 0 0 0 0 0 0 0 0 0 0 0 0 0 127 0" result="hardAlpha"/>
<feOffset dy="-3"/>
<feGaussianBlur stdDeviation="4.65"/>
<feComposite in2="hardAlpha" operator="arithmetic" k2="-1" k3="1"/>
<feColorMatrix type="matrix" values="0 0 0 0 0.580392 0 0 0 0 0.639216 0 0 0 0 0.721569 0 0 0 0.76 0"/>
<feBlend mode="normal" in2="shape" result="effect1_innerShadow_511_1013"/>
</filter>
</defs>
</svg>
