<svg width="37" height="37" viewBox="0 0 37 37" fill="none" xmlns="http://www.w3.org/2000/svg">
<g id="Social platforms logo/QQ/Default" clip-path="url(#clip0_321_4109)">
<g id="Logo">
<path d="M18.512 36.3578C15.3447 36.3578 12.4371 35.2922 10.5652 33.7008C9.61452 33.9863 8.39843 34.4455 7.63118 35.0153C6.9741 35.5025 7.05624 35.9994 7.17451 36.1998C7.6941 37.0812 16.0887 36.7627 18.512 36.4883V36.3578ZM18.512 36.3578C21.6799 36.3578 24.5871 35.2922 26.4593 33.7008C27.4095 33.9863 28.6258 34.4455 29.3934 35.0153C30.0499 35.5025 29.968 35.9994 29.8495 36.1998C29.3299 37.0812 20.9356 36.7627 18.512 36.4883V36.3578Z" fill="#FAAB07"/>
<path d="M18.5305 17.2767C23.7613 17.2412 27.9534 16.2233 29.3739 15.8332C29.7125 15.7399 29.8935 15.573 29.8935 15.573C29.8948 15.525 29.915 14.717 29.915 14.3004C29.915 7.28101 26.6185 0.227793 18.5113 0.227539C10.404 0.227793 7.10729 7.28126 7.10729 14.3002C7.10729 14.7173 7.12751 15.525 7.12902 15.5728C7.12902 15.5728 7.27636 15.729 7.54601 15.8047C8.85762 16.1715 13.1286 17.2399 18.4918 17.2767H18.5305ZM32.7447 23.1241C32.4204 22.0753 31.9779 20.8522 31.5296 19.6777C31.5296 19.6777 31.2718 19.6457 31.1412 19.6835C27.1196 20.8578 22.2449 21.6064 18.5305 21.5612H18.4918C14.798 21.6056 9.95645 20.8659 5.94832 19.7031C5.79517 19.6586 5.49292 19.6777 5.49292 19.6777C5.04459 20.8522 4.60208 22.0756 4.27784 23.1241C2.73145 28.1257 3.23259 30.1954 3.61395 30.2416C4.4325 30.3412 6.79973 26.4769 6.79973 26.4769C6.79973 30.4037 10.3269 36.433 18.4041 36.4883H18.6184C26.6953 36.433 30.2225 30.4037 30.2225 26.4769C30.2225 26.4769 32.59 30.3412 33.4086 30.2419C33.7897 30.1954 34.2908 28.1254 32.7447 23.1241Z" fill="black"/>
<path d="M15.6265 10.5974C14.5266 10.6475 13.587 9.38831 13.5279 7.78726C13.4682 6.1857 14.3108 4.84679 15.4106 4.79675C16.5092 4.74722 17.4486 6.00586 17.5082 7.60742C17.5684 9.20923 16.7255 10.5481 15.6265 10.5974ZM23.4944 7.78726C23.4355 9.38806 22.4959 10.6475 21.3961 10.5974C20.2967 10.5479 19.4542 9.20923 19.5143 7.60767C19.5739 6.00611 20.513 4.74747 21.6119 4.79675C22.7117 4.84679 23.5543 6.1857 23.4944 7.78726Z" fill="white"/>
<path d="M25.4489 12.8584C25.1553 12.2043 22.1951 11.4753 18.531 11.4753H18.4915C14.8271 11.4753 11.8673 12.2043 11.5733 12.8587C11.5594 12.8878 11.5521 12.9196 11.5519 12.9519C11.5524 12.997 11.5665 13.0409 11.5923 13.0779C11.84 13.4403 15.1266 15.2337 18.4915 15.2337H18.531C21.8957 15.2337 25.1823 13.4409 25.43 13.0779C25.456 13.0408 25.4701 12.9967 25.4704 12.9514C25.4701 12.9192 25.4628 12.8876 25.4489 12.8587" fill="#FAAB07"/>
<path d="M16.9783 7.81088C17.0285 8.44338 16.6833 9.00526 16.2085 9.06647C15.7326 9.12794 15.3068 8.66513 15.2562 8.03264C15.2064 7.39963 15.5512 6.83775 16.0253 6.77679C16.5019 6.71481 16.9285 7.17813 16.9783 7.81063V7.81088ZM19.9998 8.02222C20.0971 7.84721 20.7589 6.92691 22.1294 7.26196C22.4896 7.3501 22.6561 7.47965 22.6912 7.53045C22.743 7.60564 22.7574 7.71283 22.7046 7.85711C22.6005 8.14313 22.3854 8.13526 22.2664 8.07937C22.1893 8.0433 21.2348 7.4037 20.3553 8.35803C20.2947 8.42331 20.1865 8.44592 20.0842 8.36819C19.9813 8.28995 19.9391 8.13196 19.9998 8.02222Z" fill="black"/>
<path d="M18.5305 21.331H18.4918C15.9656 21.3615 12.9027 21.0252 9.93623 20.4374C9.6825 21.9153 9.52935 23.7731 9.66077 25.9884C9.99334 31.5876 13.3017 35.1075 18.4084 35.1583H18.6156C23.7226 35.1075 27.0307 31.5876 27.3638 25.9884C27.4952 23.7726 27.3418 21.9153 27.0878 20.4372C24.1211 21.0252 21.0574 21.3618 18.5307 21.3308" fill="white"/>
<path d="M11.3345 20.8624V26.3727C11.3345 26.3727 13.8458 26.8818 16.3619 26.5292V21.4466C14.768 21.3559 13.049 21.154 11.3345 20.8624Z" fill="#EB1923"/>
<path d="M29.8935 15.573C29.8935 15.573 25.0084 17.123 18.5305 17.167H18.4918C12.0245 17.1233 7.1457 15.5781 7.12902 15.573L5.49291 19.6774C9.5852 20.9175 14.6568 21.7166 18.4918 21.6702H18.5305C22.3655 21.7166 27.4368 20.9175 31.5296 19.6774L29.8935 15.573Z" fill="#EB1923"/>
</g>
</g>
<defs>
<clipPath id="clip0_321_4109">
<rect width="36.55" height="36.55" fill="white" transform="translate(0.236328 0.227539)"/>
</clipPath>
</defs>
</svg>
