<svg width="37" height="37" viewBox="0 0 37 37" fill="none" xmlns="http://www.w3.org/2000/svg">
<g id="Social platforms logo/Quora/Default" clip-path="url(#clip0_321_4107)">
<path id="Logo" d="M19.6331 28.7275C18.3606 26.235 16.8678 23.7174 13.9558 23.7174C13.3992 23.7174 12.8432 23.8091 12.333 24.0409L11.3438 22.0706C12.5493 21.0413 14.4972 20.2252 17.0011 20.2252C20.8963 20.2252 22.8954 22.0924 24.4824 24.476C25.4245 22.4411 25.8723 19.693 25.8723 16.2867C25.8723 7.78039 23.1992 3.41269 16.9553 3.41269C10.8024 3.41269 8.14385 7.78039 8.14385 16.2867C8.14385 24.748 10.8024 29.0708 16.9553 29.0708C17.9333 29.0708 18.819 28.9639 19.6331 28.7275ZM21.1584 31.6961C19.7877 32.063 18.3748 32.2508 16.9553 32.2547C8.76221 32.2547 0.740234 25.7484 0.740234 16.2867C0.740234 6.73518 8.76221 0.227539 16.9553 0.227539C25.2858 0.227539 33.2308 6.6883 33.2308 16.2867C33.2308 21.6256 30.7276 25.9643 27.0891 28.7684C28.2648 30.5215 29.475 31.6855 31.1602 31.6855C32.9993 31.6855 33.741 30.2712 33.8651 29.162H36.2602C36.4002 30.639 35.6578 36.7775 28.9641 36.7775C24.9096 36.7775 22.766 34.4389 21.1584 31.6961Z" fill="#B92B27"/>
</g>
<defs>
<clipPath id="clip0_321_4107">
<rect width="36.55" height="36.55" fill="white" transform="translate(0.232422 0.227539)"/>
</clipPath>
</defs>
</svg>
