<svg width="37" height="37" viewBox="0 0 37 37" fill="none" xmlns="http://www.w3.org/2000/svg">
<g id="Logo">
<path id="Vector" d="M7.94854 23.3292C7.94854 25.4518 6.23305 27.1673 4.1105 27.1673C1.98795 27.1673 0.272461 25.4518 0.272461 23.3292C0.272461 21.2067 1.98795 19.4912 4.1105 19.4912H7.94854V23.3292ZM9.86755 23.3292C9.86755 21.2067 11.583 19.4912 13.7056 19.4912C15.8281 19.4912 17.5436 21.2067 17.5436 23.3292V32.9243C17.5436 35.0469 15.8281 36.7624 13.7056 36.7624C11.583 36.7624 9.86755 35.0469 9.86755 32.9243V23.3292Z" fill="#E01E5A"/>
<path id="Vector_2" d="M13.7034 7.91826C11.5809 7.91826 9.86538 6.20278 9.86538 4.08023C9.86538 1.95767 11.5809 0.242188 13.7034 0.242188C15.826 0.242188 17.5415 1.95767 17.5415 4.08023V7.91826H13.7034ZM13.7034 9.86636C15.826 9.86636 17.5415 11.5818 17.5415 13.7044C17.5415 15.827 15.826 17.5424 13.7034 17.5424H4.07925C1.9567 17.5424 0.241211 15.827 0.241211 13.7044C0.241211 11.5818 1.9567 9.86636 4.07925 9.86636H13.7034Z" fill="#36C5F0"/>
<path id="Vector_3" d="M29.0863 13.7044C29.0863 11.5818 30.8018 9.86636 32.9243 9.86636C35.0469 9.86636 36.7624 11.5818 36.7624 13.7044C36.7624 15.827 35.0469 17.5424 32.9243 17.5424H29.0863V13.7044ZM27.1673 13.7044C27.1673 15.827 25.4518 17.5424 23.3292 17.5424C21.2067 17.5424 19.4912 15.827 19.4912 13.7044V4.08023C19.4912 1.95767 21.2067 0.242188 23.3292 0.242188C25.4518 0.242188 27.1673 1.95767 27.1673 4.08023V13.7044Z" fill="#2EB67D"/>
<path id="Vector_4" d="M23.3292 29.0863C25.4518 29.0863 27.1673 30.8018 27.1673 32.9243C27.1673 35.0469 25.4518 36.7624 23.3292 36.7624C21.2067 36.7624 19.4912 35.0469 19.4912 32.9243V29.0863H23.3292ZM23.3292 27.1673C21.2067 27.1673 19.4912 25.4518 19.4912 23.3292C19.4912 21.2067 21.2067 19.4912 23.3292 19.4912H32.9534C35.076 19.4912 36.7915 21.2067 36.7915 23.3292C36.7915 25.4518 35.076 27.1673 32.9534 27.1673H23.3292Z" fill="#ECB22E"/>
</g>
</svg>
