<svg width="37" height="37" viewBox="0 0 37 37" fill="none" xmlns="http://www.w3.org/2000/svg">
<g id="Social platforms logo/Soundcloud/Default" clip-path="url(#clip0_321_4121)">
<path id="Logo" d="M0.677231 20.0609C0.601252 20.0609 0.54066 20.1195 0.531043 20.2042L0.263672 22.2344L0.531043 24.2291C0.532005 24.3128 0.601252 24.3715 0.677231 24.3715C0.751287 24.3715 0.810917 24.3138 0.82342 24.2291L1.13984 22.2335L0.82342 20.2032C0.811878 20.1195 0.751287 20.0609 0.677231 20.0609ZM2.18047 18.9519C2.16797 18.8644 2.10545 18.8048 2.02851 18.8048C1.95157 18.8048 1.88713 18.8673 1.87655 18.9519C1.87655 18.952 1.51685 22.2344 1.51685 22.2344L1.87655 25.4439C1.88713 25.5304 1.95061 25.592 2.02851 25.592C2.10545 25.592 2.16797 25.5314 2.18047 25.4448L2.58922 22.2344L2.18047 18.9519ZM7.84143 15.9243C7.69428 15.9243 7.57213 16.0445 7.5654 16.1984L7.27879 22.2373L7.5654 26.1402C7.57309 26.2931 7.69428 26.4133 7.84143 26.4133C7.98762 26.4133 8.10976 26.2931 8.11842 26.1402V26.1403L8.44157 22.2374L8.11842 16.1985C8.10976 16.0456 7.98858 15.9244 7.84143 15.9244V15.9243ZM4.91093 18.023C4.79744 18.023 4.70511 18.1134 4.69645 18.2336L4.37426 22.2345L4.69645 26.1008C4.70511 26.2211 4.79744 26.3115 4.91093 26.3115C5.02249 26.3115 5.11578 26.2211 5.1254 26.1008L5.49183 22.2345L5.1254 18.2326C5.12444 18.1124 5.02345 18.022 4.91093 18.022V18.023ZM10.8191 26.4105C11.0018 26.4105 11.1509 26.2634 11.1576 26.0749L11.4384 22.2384L11.1586 14.199C11.1509 14.0105 11.0028 13.8633 10.82 13.8633C10.6354 13.8633 10.4863 14.0114 10.4805 14.1999L10.2314 22.2384L10.4805 26.0768C10.4863 26.2643 10.6354 26.4115 10.8191 26.4115V26.4105ZM16.9147 26.4288C17.1667 26.4288 17.3735 26.222 17.3783 25.9672V25.97V25.9672L17.5745 22.2403L17.3783 12.9554C17.3735 12.7015 17.1658 12.4938 16.9147 12.4938C16.6627 12.4938 16.455 12.7005 16.4512 12.9564L16.2761 22.2384C16.2761 22.2442 16.4512 25.971 16.4512 25.971C16.455 26.223 16.6637 26.4307 16.9147 26.4307V26.4288ZM13.8438 26.4163C14.0631 26.4163 14.2391 26.2403 14.2449 26.0162V26.0191L14.4834 22.2403L14.2449 14.1422C14.2391 13.9181 14.0621 13.7431 13.8438 13.7431C13.6236 13.7431 13.4466 13.9181 13.4418 14.1422L13.2302 22.2403L13.4428 26.0181C13.4476 26.2393 13.6236 26.4153 13.8448 26.4153L13.8438 26.4163ZM6.37185 26.3797C6.50169 26.3797 6.60748 26.2759 6.6171 26.1383L6.96237 22.2355L6.6171 18.5221C6.61614 18.3846 6.50265 18.2817 6.37185 18.2817C6.24009 18.2817 6.13429 18.3855 6.1266 18.524L5.82268 22.2355L6.1266 26.1383C6.13525 26.2759 6.24009 26.3797 6.37185 26.3797ZM3.46732 26.1662C3.56253 26.1662 3.63947 26.0912 3.65005 25.9874L4.03764 22.2345L3.65005 18.3403C3.63851 18.2365 3.56157 18.1615 3.46635 18.1615C3.37018 18.1615 3.29324 18.2365 3.28362 18.3403L2.94219 22.2345L3.28362 25.9864C3.28458 26.0903 3.37018 26.1662 3.46635 26.1662H3.46732ZM15.3759 14.0066C15.1383 14.0066 14.9479 14.1961 14.9431 14.4375L14.7498 22.2393L14.9431 25.9941C14.9479 26.2326 15.1383 26.4221 15.3759 26.4221C15.6135 26.4221 15.8029 26.2336 15.8087 25.9912V25.9941L16.0261 22.2393L15.8087 14.4356C15.8029 14.1942 15.6135 14.0057 15.3759 14.0057V14.0066ZM9.32736 26.4182C9.49182 26.4182 9.62743 26.2845 9.63512 26.1133L9.93712 22.2374L9.63512 14.8174C9.62647 14.6462 9.49182 14.5125 9.32736 14.5125C9.16193 14.5125 9.02632 14.6462 9.01959 14.8174L8.75222 22.2374L9.01959 26.1133C9.02632 26.2826 9.16193 26.4163 9.32736 26.4163V26.4182ZM12.6983 26.0508V26.0489L12.958 22.2365L12.6983 13.9258C12.6926 13.7191 12.5291 13.5575 12.3281 13.5575C12.1261 13.5575 11.9636 13.7191 11.9578 13.9258L11.7279 22.2355L11.9587 26.0499C11.9645 26.2547 12.1271 26.4153 12.329 26.4153C12.53 26.4153 12.6926 26.2538 12.6993 26.0479L12.6983 26.0508ZM32.3184 17.4459C31.7028 17.4459 31.1152 17.5709 30.5795 17.795C30.2217 13.7431 26.8248 10.5654 22.6805 10.5654C21.6668 10.5654 20.6781 10.7655 19.8048 11.1031C19.4653 11.2339 19.3749 11.3695 19.372 11.632V25.8998C19.3759 26.1749 19.5894 26.4038 19.8577 26.4317C19.8693 26.4318 32.2385 26.4394 32.3184 26.4394C34.8007 26.4394 36.8137 24.4264 36.8137 21.9441C36.8137 19.4608 34.8017 17.4478 32.3184 17.4478V17.4459ZM18.4526 11.6195C18.1823 11.6195 17.9611 11.8407 17.9573 12.1139L17.7544 22.2403L17.9573 25.9152C17.9611 26.1836 18.1823 26.4048 18.4526 26.4048C18.7219 26.4048 18.9431 26.1836 18.9479 25.9114V25.9162L19.1681 22.2403L18.9479 12.1129C18.9441 11.8417 18.7219 11.6195 18.4526 11.6195Z" fill="url(#paint0_linear_321_4121)"/>
</g>
<defs>
<linearGradient id="paint0_linear_321_4121" x1="19.0032" y1="26.3048" x2="18.857" y2="10.4925" gradientUnits="userSpaceOnUse">
<stop stop-color="#FF433A"/>
<stop offset="1" stop-color="#FF9436"/>
</linearGradient>
<clipPath id="clip0_321_4121">
<rect width="36.55" height="36.55" fill="white" transform="translate(0.263672 0.227539)"/>
</clipPath>
</defs>
</svg>
