<svg width="37" height="37" viewBox="0 0 37 37" fill="none" xmlns="http://www.w3.org/2000/svg">
<g id="Logo">
<path id="Vector" d="M19.6665 12.4112C22.6105 12.4112 24.9971 10.0246 24.9971 7.08059C24.9971 4.13659 22.6105 1.75 19.6665 1.75C16.7225 1.75 14.3359 4.13659 14.3359 7.08059C14.3359 10.0246 16.7225 12.4112 19.6665 12.4112Z" fill="#7B83EB"/>
<path id="Vector_2" opacity="0.1" d="M19.287 8.22266H14.459L14.483 8.32888L14.4853 8.33802L14.5104 8.43625C14.8612 9.76656 15.7124 10.9099 16.8861 11.6276C18.0599 12.3453 19.4656 12.5818 20.8095 12.2877V9.74519C20.8083 9.34176 20.6475 8.9552 20.3623 8.66993C20.077 8.38466 19.6904 8.22386 19.287 8.22266Z" fill="black"/>
<path id="Vector_3" opacity="0.2" d="M18.1456 9.36523H14.8516C15.2839 10.2767 15.966 11.0468 16.8186 11.5861C17.6712 12.1253 18.6593 12.4115 19.6682 12.4114V10.8878C19.667 10.4843 19.5062 10.0978 19.2209 9.81251C18.9356 9.52724 18.5491 9.36644 18.1456 9.36523Z" fill="black"/>
<path id="Vector_4" d="M31.6607 12.7922C33.8686 12.7922 35.6584 11.0024 35.6584 8.79453C35.6584 6.58669 33.8686 4.79688 31.6607 4.79688C29.4529 4.79688 27.6631 6.58669 27.6631 8.79453C27.6631 11.0024 29.4529 12.7922 31.6607 12.7922Z" fill="#5059C9"/>
<path id="Vector_5" d="M35.0867 13.9346H26.108C25.9141 13.9346 25.7282 14.0116 25.5911 14.1487C25.454 14.2858 25.377 14.4717 25.377 14.6656V23.9287C25.3522 25.2693 25.7888 26.5778 26.6137 27.6349C27.4386 28.692 28.6016 29.4337 29.908 29.7356C30.7401 29.9102 31.6006 29.897 32.427 29.6971C33.2533 29.4971 34.0247 29.1154 34.6849 28.5797C35.3451 28.044 35.8775 27.3678 36.2434 26.6004C36.6093 25.833 36.7994 24.9936 36.8 24.1434V15.6479C36.8 15.1935 36.6195 14.7577 36.2982 14.4364C35.9769 14.1151 35.5411 13.9346 35.0867 13.9346Z" fill="#5059C9"/>
<path id="Vector_6" d="M28.8043 15.6479V26.4986C28.8054 28.5095 28.1428 30.4645 26.9192 32.0603C25.6956 33.656 23.9795 34.8033 22.0372 35.324C20.0949 35.8447 18.0351 35.7098 16.1773 34.9401C14.3196 34.1705 12.7678 32.8091 11.7629 31.0674C11.5431 30.7021 11.3521 30.3202 11.1918 29.9252C11.0423 29.5528 10.9164 29.1713 10.8148 28.783C10.6265 28.0361 10.5306 27.2689 10.5293 26.4986V15.6479C10.529 15.4228 10.5731 15.1999 10.6591 14.9919C10.7451 14.7839 10.8713 14.5949 11.0304 14.4357C11.1896 14.2766 11.3786 14.1504 11.5866 14.0644C11.7946 13.9784 12.0175 13.9343 12.2426 13.9346H27.091C27.3161 13.9343 27.539 13.9784 27.747 14.0644C27.955 14.1504 28.144 14.2766 28.3032 14.4357C28.4623 14.5949 28.5885 14.7839 28.6745 14.9919C28.7605 15.1999 28.8046 15.4228 28.8043 15.6479Z" fill="#7B83EB"/>
<path id="Vector_7" opacity="0.2" d="M18.1456 9.36523H14.8516C15.2839 10.2767 15.966 11.0468 16.8186 11.5861C17.6712 12.1253 18.6593 12.4115 19.6682 12.4114V10.8878C19.667 10.4843 19.5062 10.0978 19.2209 9.81251C18.9356 9.52724 18.5491 9.36644 18.1456 9.36523Z" fill="black"/>
<path id="Vector_8" opacity="0.1" d="M20.809 13.9346V28.4061C20.809 28.7504 20.6911 29.0844 20.475 29.3524C20.2589 29.6205 19.9576 29.8065 19.6211 29.8795C19.5137 29.9115 19.402 29.9269 19.2899 29.9252H11.1918C11.0423 29.5528 10.9164 29.1713 10.8148 28.783C10.6265 28.0361 10.5306 27.2689 10.5293 26.4986V15.6479C10.529 15.4228 10.5731 15.1999 10.6591 14.9919C10.7451 14.7839 10.8713 14.5949 11.0304 14.4357C11.1896 14.2766 11.3786 14.1504 11.5866 14.0644C11.7946 13.9784 12.0175 13.9343 12.2426 13.9346H20.809Z" fill="black"/>
<path id="Vector_9" opacity="0.2" d="M19.6668 13.9346V29.5483C19.6685 29.6604 19.6531 29.7721 19.6211 29.8795C19.5481 30.216 19.3621 30.5173 19.094 30.7334C18.826 30.9496 18.492 31.0674 18.1477 31.0674H11.7629C11.5431 30.7021 11.3521 30.3202 11.1918 29.9252C11.0423 29.5528 10.9164 29.1713 10.8148 28.783C10.6265 28.0361 10.5306 27.2689 10.5293 26.4986V15.6479C10.529 15.4228 10.5731 15.1999 10.6591 14.9919C10.7451 14.7839 10.8713 14.5949 11.0304 14.4357C11.1896 14.2766 11.3786 14.1504 11.5866 14.0644C11.7946 13.9784 12.0175 13.9343 12.2426 13.9346H19.6668Z" fill="black"/>
<path id="Vector_10" opacity="0.2" d="M19.6668 13.9346V27.2639C19.665 27.6662 19.5044 28.0516 19.2199 28.3361C18.9354 28.6206 18.55 28.7812 18.1477 28.783H10.8148C10.6265 28.0361 10.5306 27.2689 10.5293 26.4986V15.6479C10.529 15.4228 10.5731 15.1999 10.6591 14.9919C10.7451 14.7839 10.8713 14.5949 11.0304 14.4357C11.1896 14.2766 11.3786 14.1504 11.5866 14.0644C11.7946 13.9784 12.0175 13.9343 12.2426 13.9346H19.6668Z" fill="black"/>
<path id="Vector_11" opacity="0.2" d="M12.2426 13.9346C12.0175 13.9343 11.7946 13.9784 11.5866 14.0644C11.3786 14.1504 11.1896 14.2766 11.0304 14.4357C10.8713 14.5949 10.7451 14.7839 10.6591 14.9919C10.5731 15.1999 10.529 15.4228 10.5293 15.6479V26.4986C10.5306 27.2689 10.6265 28.0361 10.8148 28.783H17.0055C17.4078 28.7812 17.7932 28.6206 18.0777 28.3361C18.3622 28.0516 18.5228 27.6662 18.5246 27.2639V13.9346H12.2426Z" fill="black"/>
<path id="Vector_12" d="M1.77254 9.36523H17.0025C17.4063 9.36523 17.7935 9.52564 18.0791 9.81117C18.3646 10.0967 18.525 10.484 18.525 10.8878V26.1177C18.525 26.5215 18.3646 26.9088 18.0791 27.1943C17.7935 27.4798 17.4063 27.6402 17.0025 27.6402H1.77254C1.36873 27.6402 0.981471 27.4798 0.69594 27.1943C0.41041 26.9088 0.25 26.5215 0.25 26.1177L0.25 10.8878C0.25 10.484 0.41041 10.0967 0.69594 9.81117C0.981471 9.52564 1.36873 9.36523 1.77254 9.36523Z" fill="#4B53BC"/>
<path id="Vector_13" d="M13.9336 15.048H10.5185V24.2083H8.2775V15.048H4.8418V12.7979H13.9336V15.048Z" fill="white"/>
</g>
</svg>
