<svg width="30" height="30" viewBox="0 0 30 30" fill="none" xmlns="http://www.w3.org/2000/svg">
<g filter="url(#filter0_i_511_1011)">
<rect width="30" height="30" rx="8" fill="#1E1E1E"/>
<rect x="0.2" y="0.2" width="29.6" height="29.6" rx="7.8" stroke="#1E1E1E" stroke-width="0.4"/>
<path d="M6 4C4.895 4 4 4.895 4 6V24C4 25.105 4.895 26 6 26H24C25.105 26 26 25.105 26 24V6C26 4.895 25.105 4 24 4H6ZM8.64844 9H13.2598L15.9512 12.8477L19.2812 9H20.7324L16.6035 13.7812L21.6543 21H17.043L14.0566 16.7305L10.3691 21H8.89453L13.4004 15.7949L8.64844 9ZM10.8789 10.1836L17.6328 19.8105H19.4219L12.666 10.1836H10.8789Z" fill="white"/>
</g>
<defs>
<filter id="filter0_i_511_1011" x="0" y="-3" width="30" height="33" filterUnits="userSpaceOnUse" color-interpolation-filters="sRGB">
<feFlood flood-opacity="0" result="BackgroundImageFix"/>
<feBlend mode="normal" in="SourceGraphic" in2="BackgroundImageFix" result="shape"/>
<feColorMatrix in="SourceAlpha" type="matrix" values="0 0 0 0 0 0 0 0 0 0 0 0 0 0 0 0 0 0 127 0" result="hardAlpha"/>
<feOffset dy="-3"/>
<feGaussianBlur stdDeviation="4.65"/>
<feComposite in2="hardAlpha" operator="arithmetic" k2="-1" k3="1"/>
<feColorMatrix type="matrix" values="0 0 0 0 0.580392 0 0 0 0 0.639216 0 0 0 0 0.721569 0 0 0 0.76 0"/>
<feBlend mode="normal" in2="shape" result="effect1_innerShadow_511_1011"/>
</filter>
</defs>
</svg>
