<svg width="56" height="53" viewBox="0 0 56 53" fill="none" xmlns="http://www.w3.org/2000/svg">
<g id="Group 205">
<path id="Vector" d="M8.95 8.62558C9.13321 8.05956 9.66366 7.6658 10.2652 7.6658C9.78125 7.3158 9.57891 6.69238 9.76211 6.11816C9.27812 6.46817 8.62188 6.46817 8.13789 6.11816C8.3211 6.68418 8.11602 7.3158 7.63477 7.6658C8.23634 7.6658 8.76135 8.05135 8.95 8.62558Z" fill="black"/>
<path id="Vector_2" d="M47.0516 8.77836C48.0797 8.77836 48.9902 9.44282 49.3047 10.4162C49.6192 9.43735 50.5297 8.77836 51.5579 8.77836C50.7239 8.17679 50.3821 7.10493 50.6965 6.12598C49.8626 6.72755 48.736 6.72755 47.9102 6.12598C48.2246 7.10486 47.8828 8.17678 47.0488 8.77836H47.0516Z" fill="black"/>
<path id="Vector_3" d="M45.8328 2.0791C45.8328 2.94592 45.1246 3.65411 44.2578 3.65411C45.1246 3.65411 45.8328 4.36231 45.8328 5.22912C45.8328 4.36231 46.541 3.65411 47.4078 3.65411C46.541 3.65411 45.8328 2.94592 45.8328 2.0791Z" fill="black"/>
<path id="Vector_4" d="M16.6419 2.61683C15.1926 2.61683 14.025 1.44649 14.025 0C14.025 1.44922 12.8547 2.61683 11.4082 2.61683C12.8574 2.61683 14.025 3.78716 14.025 5.23365C14.025 3.78443 15.1954 2.61683 16.6419 2.61683Z" fill="black"/>
<path id="Vector_5" d="M0.268536 21.455L27.2187 52.0039C27.2734 52.0668 27.3308 52.116 27.4019 52.1652C27.4156 52.1734 27.4293 52.1789 27.4429 52.1871C27.514 52.2281 27.5824 52.2637 27.6535 52.291C27.6753 52.2992 27.7027 52.3047 27.7246 52.3129C27.8148 52.3402 27.9132 52.3539 28.0035 52.3539C28.0937 52.3539 28.1921 52.332 28.2824 52.3129C28.3097 52.3047 28.3316 52.2992 28.3535 52.291C28.43 52.2637 28.5011 52.2281 28.564 52.1871C28.5777 52.1789 28.5914 52.1734 28.605 52.1652C28.6679 52.116 28.7308 52.0668 28.7882 52.0039L55.7384 21.455C56.1158 21.0284 56.0802 20.3776 55.6618 19.9839L42.1511 7.55039C41.9542 7.37539 41.7026 7.27148 41.4374 7.27148H14.5635C14.2983 7.27148 14.0467 7.36992 13.8499 7.55039L0.339102 19.9839C-0.0819929 20.3694 -0.114809 21.0202 0.262535 21.455H0.268536ZM28.0034 48.2932L18.1543 21.8134H37.8532L28.0034 48.2932ZM30.9566 46.3682L40.0923 21.8134H52.6294L30.965 46.3682H30.9566ZM42.1567 10.4166L52.2577 19.7134H40.604L42.1567 10.4166ZM40.1988 9.38027L38.6785 18.4586L30.382 9.38027H40.1988ZM36.9777 19.7137H19.024L27.998 9.89198L36.9721 19.7137H36.9777ZM25.6243 9.38027L17.3279 18.4586L15.8075 9.38027H25.6243ZM13.8502 10.4166L15.4034 19.7134H3.74973L13.8502 10.4166ZM15.9147 21.8134L25.0504 46.3682L3.37761 21.8134H15.9147Z" fill="black"/>
</g>
</svg>
