<svg width="57" height="57" viewBox="0 0 57 57" fill="none" xmlns="http://www.w3.org/2000/svg">
<path id="Vector" fill-rule="evenodd" clip-rule="evenodd" d="M49.1934 56.1075C49.1934 56.5996 48.7944 56.9986 48.3023 56.9986C47.8102 56.9986 47.4112 56.6003 47.4112 56.1075V52.3697C47.4112 52.2525 47.434 52.141 47.4745 52.0391L50.2111 43.2302C50.3941 42.6399 50.498 42.0275 50.1699 41.4999L47.6734 37.4992C47.1927 38.2807 46.6436 39.016 46.0356 39.6956V44.5848C46.0356 45.0763 45.6366 45.4753 45.1445 45.4753C44.6524 45.4753 44.2541 45.0763 44.2541 44.5848V36.7646C44.2541 35.5809 42.2984 35.5961 42.2984 36.7646V40.8799C42.2984 41.0256 42.2635 41.1617 42.2021 41.2827C41.9545 41.8039 41.6904 42.4917 41.4453 42.9971L40.0374 46.1897C39.4117 47.6083 39.4889 49.0757 40.2629 50.4178L41.2027 52.046C41.2825 52.1854 41.3205 52.3374 41.3205 52.4875V56.1069C41.3205 56.5971 40.9234 56.9935 40.4339 56.9935C39.9443 56.9935 39.5466 56.5965 39.5466 56.1069V52.7243L38.7258 51.3012C37.6694 49.4697 37.5567 47.4063 38.4098 45.4728L38.9918 44.1542C37.6092 44.5627 36.1602 44.7717 34.6934 44.7717C34.2013 44.7717 33.8023 44.3733 33.8023 43.8806V40.3485C33.8023 39.8571 34.2013 39.4575 34.6934 39.4575C37.038 39.4575 38.2185 36.61 36.5604 34.9526C36.0823 34.4745 35.4224 34.1793 34.6934 34.1793C34.2013 34.1793 33.8023 33.781 33.8023 33.2883V29.482C33.8023 28.969 34.2115 28.57 34.7719 28.5953L37.8258 28.5972C38.2261 26.9823 39.6796 25.8169 41.3857 25.815C43.0754 25.815 44.5505 26.9614 44.9583 28.6017L49.0445 28.6042C49.5195 28.6042 49.9077 28.9779 49.9312 29.4472C50.0236 31.3978 49.4232 33.8905 48.6341 35.6746L51.6817 40.5594C52.3087 41.5639 52.2466 42.6722 51.9109 43.7514L49.1953 52.4951V56.1069L49.1934 56.1075ZM44.1097 9.95852L37.3356 13.8693C36.3059 14.4634 35.3407 12.754 36.3508 12.1714L39.9152 10.1137C40.0279 10.0485 40.121 9.96296 40.1932 9.86289L43.299 5.54299C44.204 4.28331 45.522 3.60249 47.0723 3.59426L49.0445 3.58349C49.2149 3.58349 49.3732 3.53409 49.5087 3.45049L52.6177 1.65629C53.0427 1.41183 53.1896 0.869702 52.9452 0.445375C52.7013 0.0204155 52.1586 -0.125882 51.7349 0.117947L48.8026 1.81019L47.066 1.82032C44.938 1.83172 43.1001 2.77917 41.8595 4.50624L38.8632 8.67288L37.1729 9.64883C31.9201 6.20608 25.1119 6.19215 19.8458 9.61463L18.2175 8.67478L15.2472 4.51511C14.0008 2.76904 12.1408 1.81082 9.99443 1.81082L8.27243 1.80955L5.34267 0.117947C4.91771 -0.125882 4.37559 0.0204155 4.13176 0.445375C3.88793 0.870335 4.03423 1.41183 4.45855 1.65629L7.5688 3.45113C7.70434 3.53536 7.86393 3.58349 8.03556 3.58349H9.99443C11.5587 3.58476 12.8906 4.27001 13.8001 5.54426L16.8818 9.85846C16.9534 9.95979 17.0478 10.0478 17.1624 10.1137L20.7267 12.1714C21.7362 12.754 20.7711 14.4634 19.7413 13.8693L12.9673 9.95852C12.5423 9.7147 12.0008 9.86099 11.757 10.286C11.5131 10.7109 11.6588 11.2524 12.0838 11.4969L15.6658 13.564C14.9819 14.4969 14.3973 15.5077 13.9286 16.5799L12.6867 16.6217C12.073 16.6426 11.5765 16.2386 11.1661 15.794L4.87845 8.99334C4.81448 8.91797 4.73595 8.85274 4.64602 8.80081L1.40783 6.93124C0.982875 6.68741 0.44075 6.83371 0.196921 7.25867C-0.046909 7.68363 0.0993889 8.22512 0.524349 8.46895L3.646 10.2714L9.86524 16.9979C10.2313 17.3944 10.629 17.7414 11.0793 17.9903C11.8855 18.4356 12.408 18.4077 13.2693 18.3786C12.3821 21.34 12.3821 24.5256 13.2693 27.4876L12.6645 27.4674C11.4745 27.4262 10.5581 28.031 9.78607 28.8651L3.56683 35.5929L0.445183 37.3941C0.0202234 37.6386 -0.126074 38.1807 0.118388 38.605C0.362218 39.03 0.904976 39.1763 1.3293 38.9324L4.56685 37.0629C4.65742 37.0109 4.73532 36.9457 4.79992 36.8703L11.0869 30.0691C11.4979 29.6251 11.9945 29.2211 12.6075 29.2413L13.928 29.2863C14.3922 30.3452 14.9679 31.3446 15.6411 32.2686L12.0052 34.3668C11.5803 34.6113 11.434 35.1534 11.6784 35.5777C11.9223 36.0027 12.4644 36.149 12.8887 35.9045L19.6627 31.9944C20.6925 31.3997 21.6577 33.1097 20.6476 33.6923L17.0832 35.75C16.9743 35.8127 16.8831 35.8956 16.8128 35.9906L13.5632 40.3815C12.6481 41.6184 11.3409 42.2789 9.80317 42.2795H7.95703C7.78603 42.2795 7.62644 42.3289 7.49027 42.4125L4.38065 44.2074C3.95569 44.4512 3.8094 44.994 4.05323 45.4183C4.29769 45.8433 4.83981 45.9896 5.26414 45.7451L8.19453 44.0541L9.8038 44.0529C11.9109 44.0529 13.738 43.132 14.9907 41.4391L18.132 37.1927L19.8059 36.2262C22.3968 37.921 25.381 38.8045 28.4754 38.8058C28.9441 38.8058 29.357 38.4277 29.3621 37.9413L29.3646 33.8342C31.0195 33.4225 32.1519 31.9412 32.1519 30.2521C32.1462 28.5497 30.9821 27.1013 29.3691 26.7023L29.371 23.8207L33.0341 23.8226C33.5446 23.8226 33.9208 23.4109 33.9208 22.9208C33.9271 21.8751 34.7916 21.0404 35.8214 21.0404C36.8651 21.0429 37.7201 21.8929 37.7207 22.9398C37.7207 23.4293 38.1178 23.8264 38.608 23.8264L43.4725 23.8283C43.9748 23.8289 44.363 23.416 44.363 22.9328C44.363 21.3495 44.1306 19.8187 43.6974 18.3735L44.3358 18.395C45.5251 18.4362 46.4422 17.8314 47.2142 16.9966L53.4335 10.2701L56.5551 8.46768C56.9801 8.22385 57.1257 7.68173 56.8819 7.2574C56.6381 6.83244 56.0953 6.68614 55.671 6.92997L52.4334 8.79954C52.3429 8.85148 52.265 8.91671 52.2004 8.99207L45.9134 15.7927C45.5017 16.2373 45.0058 16.6414 44.3921 16.6205L43.0381 16.5749C42.5764 15.5197 42.0039 14.5254 41.337 13.6071L44.9957 11.4956C45.4206 11.2511 45.5669 10.709 45.3225 10.2847C45.0787 9.85973 44.5365 9.71343 44.1122 9.95726L44.1097 9.95852ZM39.7841 14.5039C41.4199 16.6914 42.3858 19.2943 42.5542 22.0556L39.3863 22.0537C38.9842 20.4369 37.5288 19.2696 35.8207 19.2671C34.1386 19.2671 32.6611 20.402 32.2532 22.0493L29.371 22.048L29.3722 18.3862C29.3722 17.8814 28.9637 17.4989 28.478 17.4989C27.4273 17.4976 26.5932 16.6458 26.5932 15.604C26.5932 14.5622 27.4343 13.7002 28.4894 13.7002C28.9802 13.7002 29.3773 13.3025 29.3773 12.8123L29.3786 8.86794C31.523 9.00157 33.5794 9.61653 35.423 10.6596C34.3521 11.3005 34.0202 12.3329 34.176 13.3145C34.4648 15.1302 36.3863 16.4659 38.2191 15.4083L39.7834 14.5052L39.7841 14.5039ZM21.6001 10.6267C23.4342 9.60006 25.476 8.99587 27.6046 8.86604L27.6027 12.0333C25.8661 12.4652 24.9124 13.8763 24.8117 15.6033C24.6742 17.1999 26.0846 18.7909 27.5977 19.1651L27.5964 22.0468L23.9326 22.0449C23.4 22.0449 23.0523 22.4654 23.046 22.9638C23.0308 23.9974 22.184 24.8271 21.1479 24.8271C20.1035 24.8258 19.246 23.9759 19.2454 22.9277C19.2454 22.4375 18.8483 22.0404 18.3587 22.0404L14.4131 22.0385C14.586 19.2658 15.5645 16.6477 17.2143 14.4583L18.8578 15.407C19.9648 16.046 21.0396 15.8199 21.8205 15.1872C23.191 14.0764 23.5045 11.7274 21.6001 10.6267ZM17.1884 31.3763C15.5506 29.1888 14.581 26.5776 14.4119 23.8137L17.5797 23.815C17.9889 25.4604 19.4823 26.6118 21.1751 26.6048C22.8718 26.5934 24.3145 25.4281 24.7129 23.8201L27.5951 23.8213L27.5939 27.4838C27.5939 27.9918 28.0042 28.3699 28.4932 28.3705C29.5331 28.3743 30.3729 29.223 30.376 30.2597C30.376 31.2971 29.5318 32.1698 28.4767 32.1704C27.9865 32.1704 27.5894 32.5675 27.5894 33.0571L27.5875 37.0052C25.4551 36.871 23.3937 36.2554 21.5551 35.2174C22.6425 34.5777 22.9788 33.5384 22.8218 32.5517C22.5323 30.7366 20.6115 29.4003 18.7786 30.4579L17.1884 31.3763ZM47.2167 34.451C47.7177 33.1793 48.0312 31.8107 48.1237 30.38L44.1781 30.3781C43.6885 30.3781 43.2908 29.981 43.2908 29.4915C43.2908 28.4433 42.4333 27.5934 41.3883 27.5921C40.3566 27.5921 39.5086 28.4174 39.4908 29.451C39.482 29.9513 39.1431 30.375 38.6029 30.375L35.5807 30.3724V32.4909C39.0006 33.1907 40.3148 37.4498 37.8163 39.947C37.2159 40.5468 36.4445 40.9755 35.5807 41.1522V42.9629C36.2577 42.9192 36.9195 42.8255 37.5624 42.6855C38.4034 42.5018 39.2109 42.2428 39.9766 41.9148L40.5149 40.6962V36.7658C40.5149 33.2414 46.0343 33.2275 46.0343 36.7677C46.5277 35.9944 46.8532 35.2807 47.2161 34.4517L47.2167 34.451Z" fill="black"/>
</svg>
