<svg width="50" height="67" viewBox="0 0 50 67" fill="none" xmlns="http://www.w3.org/2000/svg">
<g id="Group 206">
<path id="Vector" d="M25.0005 6.25359C25.4816 6.25359 25.872 5.8632 25.872 5.38202V0.871565C25.872 0.390388 25.4816 0 25.0005 0C24.5193 0 24.1289 0.390388 24.1289 0.871565V5.38202C24.1289 5.8632 24.5193 6.25359 25.0005 6.25359Z" fill="black"/>
<path id="Vector_2" d="M12.5697 8.94585C12.7309 9.22559 13.0242 9.38163 13.325 9.38163C13.4731 9.38163 13.6229 9.34418 13.7602 9.26474C14.1772 9.02416 14.3197 8.49134 14.0791 8.07429L11.8236 4.16813C11.583 3.75051 11.0496 3.60922 10.6331 3.84924C10.216 4.08983 10.0736 4.62264 10.3142 5.0397L12.5697 8.94585Z" fill="black"/>
<path id="Vector_3" d="M36.2404 9.26453C36.3777 9.34397 36.5275 9.38142 36.6751 9.38142C36.9769 9.38142 37.2697 9.22538 37.4309 8.94563L39.6858 5.03948C39.9264 4.62243 39.7834 4.08961 39.3669 3.84903C38.9482 3.60674 38.417 3.75143 38.1765 4.16792L35.9215 8.07407C35.6809 8.49113 35.8239 9.02394 36.2404 9.26453Z" fill="black"/>
<path id="Vector_4" d="M5.21356 16.3012L1.3074 14.0457C0.890347 13.8051 0.357536 13.9475 0.116947 14.3646C-0.123641 14.7816 0.0187829 15.3144 0.43584 15.555L4.34199 17.8105C4.47931 17.89 4.62911 17.9274 4.77721 17.9274C5.07794 17.9274 5.3713 17.7714 5.53245 17.4916C5.77304 17.0746 5.63061 16.5418 5.21356 16.3012Z" fill="black"/>
<path id="Vector_5" d="M49.8839 14.3651C49.6433 13.9491 49.1111 13.8039 48.6934 14.0462L44.7873 16.3017C44.3708 16.5423 44.2278 17.0751 44.4684 17.4921C44.6295 17.7719 44.9223 17.9279 45.2242 17.9279C45.3717 17.9279 45.5215 17.8905 45.6588 17.811L49.565 15.5555C49.9815 15.3149 50.1245 14.7821 49.8839 14.3651Z" fill="black"/>
<path id="Vector_6" d="M37.7802 14.5743C33.6653 10.8905 28.3496 9.19848 22.8121 9.813C19.1624 10.2181 15.7063 11.6946 12.8181 14.0829C12.447 14.3898 12.3953 14.9391 12.7018 15.3102C13.0093 15.6813 13.5574 15.7335 13.9291 15.4265C16.5551 13.255 19.693 11.913 23.0039 11.5459C28.0364 10.9836 32.8765 12.5236 36.6181 15.8731C40.3087 19.1766 42.4252 23.9107 42.4252 28.8603C42.4252 32.8896 41.0066 36.8207 38.4328 39.9291C38.1252 40.3002 38.1763 40.8494 38.5474 41.1558C38.7097 41.2909 38.9071 41.3567 39.1035 41.3567C39.3531 41.3567 39.6028 41.2489 39.7742 41.0412C42.6079 37.6208 44.1683 33.2942 44.1683 28.8603C44.1683 23.4153 41.8396 18.208 37.7802 14.5743Z" fill="black"/>
<path id="Vector_7" d="M36.0735 42.2685C36.0099 42.3207 35.9498 42.3752 35.8896 42.4308C35.8476 42.4705 35.8056 42.5091 35.7637 42.5431C33.6335 44.2159 32.3228 46.6343 32.0856 49.2762L28.8077 49.2759C28.3629 45.6123 28.1498 41.6899 28.2952 38.8651C31.0007 38.3147 31.8348 37.0993 32.0856 36.2947C32.4045 35.2642 32.0016 34.1464 31.0824 33.5143C30.1654 32.8844 28.9988 32.9304 28.1136 33.63C27.3465 34.2338 26.9096 35.6092 26.6849 37.3376C26.1821 37.3841 25.6226 37.4102 25.0019 37.4102C24.3817 37.4102 23.8222 37.3841 23.3195 37.3376C23.0948 35.6092 22.6573 34.2338 21.8913 33.63C21.0027 32.9304 19.8377 32.8844 18.9214 33.5143C18.0016 34.1475 17.5987 35.2642 17.9187 36.2947C18.1684 37.0993 19.0036 38.3158 21.7085 38.8651C21.8535 41.6897 21.6402 45.6118 21.195 49.2753L17.9164 49.2751C17.6747 46.6524 16.3521 44.1932 14.2758 42.5704C9.49189 38.831 7.02699 32.9803 7.68123 26.9202C8.04268 23.5792 9.39089 20.4164 11.5794 17.7739C11.8864 17.4028 11.8348 16.8535 11.4643 16.5466C11.092 16.2396 10.5439 16.2895 10.2369 16.6618C7.8299 19.5681 6.34665 23.051 5.94832 26.733C5.22826 33.3968 7.94055 39.8308 13.2023 43.9435C14.8825 45.2571 15.9535 47.242 16.1682 49.3649C15.0598 49.6491 14.2344 50.6481 14.2344 51.8444C14.2344 53.0573 15.0817 54.0704 16.2136 54.338V58.0656C16.2136 62.9114 20.1561 66.8539 25.0019 66.8539C29.8477 66.8539 33.7902 62.9114 33.7902 58.0656V54.3378C34.9222 54.0701 35.7693 53.0572 35.7693 51.8444C35.7693 50.6479 34.9438 49.6488 33.8348 49.3647C34.0463 47.2277 35.112 45.2722 36.8429 43.9118C36.9223 43.8493 36.9972 43.7813 37.071 43.7132L37.1856 43.6099C37.5567 43.3035 37.6078 42.7542 37.3002 42.3831C36.9938 42.012 36.4423 41.961 36.0735 42.2685ZM29.1917 34.9987C29.3676 34.8602 29.5322 34.8137 29.6763 34.8137C29.8545 34.8137 30.0009 34.8874 30.0951 34.951C30.3334 35.1155 30.5263 35.4344 30.4208 35.7772C30.2823 36.2232 29.6809 36.7123 28.4643 37.038C28.6164 35.9916 28.8558 35.2642 29.1917 34.9987ZM19.5835 35.7783C19.4769 35.4344 19.6704 35.1155 19.9092 34.951C20.0023 34.8874 20.1487 34.8137 20.328 34.8137C20.4721 34.8137 20.6367 34.8602 20.812 34.9987C21.1491 35.2642 21.3874 35.9916 21.54 37.038C20.3229 36.7123 19.7214 36.2232 19.5835 35.7783ZM23.4732 39.1C23.9431 39.1352 24.4515 39.1533 25.0019 39.1533C25.5523 39.1533 26.0607 39.1352 26.5305 39.1C26.3487 42.607 26.7577 46.8517 27.0489 49.2758L22.9548 49.2755C23.2457 46.8514 23.6551 42.6069 23.4732 39.1ZM33.2012 52.6694H23.5845C23.1033 52.6694 22.7129 53.0598 22.7129 53.541C22.7129 54.0221 23.1033 54.4125 23.5845 54.4125H32.047V58.0656C32.047 61.9502 28.8865 65.1108 25.0019 65.1108C21.1173 65.1108 17.9567 61.9502 17.9567 58.0656V54.4125H20.0982C20.5794 54.4125 20.9698 54.0221 20.9698 53.541C20.9698 53.0598 20.5794 52.6694 20.0982 52.6694H16.802C16.3475 52.6694 15.9776 52.2994 15.9776 51.8444C15.9776 51.3893 16.3475 51.0193 16.802 51.0193H17.0852H32.9186H33.2012C33.6562 51.0193 34.0262 51.3893 34.0262 51.8444C34.0262 52.2994 33.6562 52.6694 33.2012 52.6694Z" fill="black"/>
</g>
</svg>
